<svg viewBox="0 0 193 172" fill="none" xmlns="http://www.w3.org/2000/svg">
  <path stroke="#052CF9" d="M.5 167V13M74.5 66V32M30.5 158.482v-126M60.5 158.482v-126M15.5 122V41M45.5 73V21M45.5 154v-24M89.5 166v-7M.5 7V0M30.5 167v-2M45.5 119v-2M45.5 85v-4M45.5 14V6M15.5 133v-2M74.5 17V3M15.5 29V3M45.5 109V95M15.5 166v-24M89.5 148.664V3M74.5 172V73M103.5 167V13M177.5 66V32M133.5 158.482v-126M163.5 158.482v-126M118.5 122V41M148.5 73V21M148.5 154v-24M192.5 166v-7M103.5 7V0M133.5 167v-2M148.5 119v-2M148.5 85v-4M148.5 14V6M118.5 133v-2M177.5 17V3M118.5 29V3M148.5 109V95M118.5 166v-24M192.5 148.664V3M177.5 172V73"/>
</svg>