<svg width="186" height="179" viewBox="0 0 186 179" fill="none" xmlns="http://www.w3.org/2000/svg">
<path d="M93.032 165.016C92.2718 165.01 91.503 165.004 90.7479 164.981L90.7713 164.217C91.5186 164.241 92.2828 164.251 93.0322 164.252C93.7849 164.252 94.5519 164.24 95.3128 164.215L95.3373 164.978C94.5681 165.003 93.7927 165.016 93.032 165.016ZM86.1685 164.693C84.6519 164.549 83.1203 164.354 81.6164 164.113L81.7365 163.359C83.2244 163.597 84.7397 163.79 86.2403 163.933L86.1685 164.693ZM99.9162 164.685L99.8436 163.925C101.344 163.781 102.859 163.586 104.347 163.345L104.468 164.1C102.964 164.342 101.432 164.539 99.9162 164.685H99.9162ZM77.1104 163.242C75.6255 162.904 74.1315 162.513 72.67 162.08L72.8859 161.348C74.3318 161.776 75.8098 162.163 77.2789 162.497L77.1104 163.242ZM108.973 163.223L108.803 162.478C110.276 162.142 111.753 161.753 113.195 161.324L113.412 162.056C111.955 162.49 110.461 162.883 108.973 163.223H108.973ZM68.3128 160.635C66.88 160.107 65.4463 159.526 64.0518 158.907L64.3602 158.209C65.7397 158.821 67.1578 159.396 68.5754 159.918L68.3128 160.635ZM117.767 160.605L117.503 159.888C118.912 159.368 120.326 158.793 121.704 158.18L122.013 158.878C120.619 159.498 119.191 160.079 117.767 160.605H117.767ZM59.9122 156.908C58.5638 156.202 57.2173 155.441 55.9103 154.647L56.3054 153.993C57.5985 154.78 58.9306 155.532 60.2647 156.231L59.9122 156.908ZM126.141 156.88L125.789 156.203C127.119 155.505 128.449 154.753 129.738 153.967L130.134 154.62C128.83 155.414 127.487 156.174 126.141 156.88H126.141ZM52.0622 152.134C50.8133 151.26 49.5755 150.333 48.383 149.38L48.858 148.782C50.0379 149.726 51.2627 150.643 52.4982 151.507L52.0622 152.134ZM133.976 152.107L133.539 151.481C134.774 150.615 135.997 149.698 137.174 148.756L137.65 149.352C136.46 150.305 135.224 151.232 133.976 152.107V152.107ZM44.887 146.396C43.758 145.368 42.648 144.291 41.5884 143.196L42.1353 142.664C43.1837 143.748 44.2819 144.813 45.3992 145.83L44.887 146.396ZM141.142 146.369L140.63 145.804C141.744 144.789 142.841 143.723 143.892 142.636L144.438 143.167C143.377 144.266 142.268 145.343 141.142 146.369V146.369ZM38.5003 139.793C37.5118 138.631 36.548 137.422 35.6353 136.2L36.2452 135.742C37.1482 136.951 38.1017 138.147 39.0798 139.297L38.5003 139.793ZM147.526 139.761L146.946 139.266C147.924 138.115 148.878 136.917 149.781 135.707L150.391 136.164C149.478 137.388 148.514 138.598 147.526 139.761V139.761ZM33.0053 132.431C32.1718 131.152 31.3699 129.83 30.6214 128.503L31.2847 128.127C32.0249 129.44 32.8185 130.748 33.6432 132.014L33.0053 132.431ZM153.022 132.39L152.383 131.973C153.208 130.704 154.002 129.394 154.742 128.079L155.406 128.454C154.658 129.784 153.855 131.108 153.022 132.39V132.39ZM28.4941 124.431C27.8312 123.056 27.205 121.644 26.6329 120.232L27.3386 119.944C27.9047 121.341 28.5242 122.739 29.18 124.099L28.4941 124.431ZM157.534 124.372L156.848 124.04C157.504 122.678 158.123 121.276 158.69 119.873L159.396 120.159C158.823 121.578 158.197 122.995 157.534 124.372V124.372ZM25.0427 115.915C24.5608 114.464 24.1206 112.98 23.7341 111.504L24.471 111.31C24.8532 112.77 25.2888 114.239 25.7655 115.673L25.0427 115.915ZM160.983 115.834L160.26 115.594C160.734 114.161 161.168 112.692 161.55 111.229L162.287 111.422C161.901 112.901 161.463 114.385 160.983 115.834V115.834ZM22.7121 107.018C22.421 105.52 22.1748 103.992 21.98 102.476L22.7355 102.379C22.9282 103.878 23.1718 105.39 23.4598 106.872L22.7121 107.018ZM163.304 106.935L162.556 106.79C162.842 105.308 163.084 103.795 163.274 102.295L164.03 102.392C163.837 103.908 163.593 105.437 163.304 106.935V106.935ZM21.5396 97.8969C21.442 96.3744 21.3916 94.8269 21.3899 93.2974L22.1517 93.2966C22.1534 94.8101 22.2032 96.3412 22.2999 97.8477L21.5396 97.8969ZM164.466 97.8115L163.705 97.763C163.8 96.258 163.848 94.727 163.848 93.2131L163.848 93.0456H164.61L164.61 93.2105C164.61 94.743 164.561 96.2901 164.466 97.8115ZM22.2893 88.7463L21.529 88.6993C21.6235 87.1738 21.768 85.6327 21.9586 84.1184L22.7145 84.2139C22.5257 85.7125 22.3827 87.2372 22.2893 88.7463ZM163.695 88.4956C163.596 86.9858 163.447 85.4615 163.254 83.9651L164.009 83.8666C164.205 85.3791 164.355 86.9194 164.455 88.4457L163.695 88.4956ZM23.428 79.7187L22.6799 79.5744C22.9673 78.0752 23.3077 76.5652 23.6911 75.0864L24.4284 75.2784C24.049 76.7416 23.7123 78.2354 23.428 79.7187ZM162.523 79.4724C162.233 77.9883 161.891 76.4957 161.507 75.0357L162.244 74.841C162.632 76.3166 162.978 77.8253 163.271 79.3255L162.523 79.4724ZM25.7128 70.912L24.9893 70.6725C25.4675 69.2211 25.9998 67.7652 26.5717 66.3451L27.2781 66.6311C26.7123 68.036 26.1858 69.4762 25.7128 70.912ZM160.208 70.6739C159.73 69.2401 159.199 67.804 158.63 66.4051L159.336 66.1168C159.911 67.5308 160.447 68.9824 160.931 70.4314L160.208 70.6739ZM29.1157 62.4613L28.429 62.1301C29.0898 60.7527 29.8044 59.3782 30.5526 58.0452L31.2166 58.4201C30.4762 59.7387 29.7694 61.0984 29.1157 62.4613ZM156.784 62.253C156.128 60.8966 155.419 59.542 154.675 58.2267L155.338 57.85C156.089 59.1792 156.807 60.5486 157.469 61.9199L156.784 62.253ZM33.5712 54.523L32.9325 54.1064C33.7633 52.826 34.647 51.5551 35.5587 50.3293L36.1695 50.7858C35.2674 51.9987 34.3931 53.256 33.5712 54.523ZM152.312 54.3432C151.487 53.0809 150.611 51.8275 149.705 50.618L150.314 50.1596C151.23 51.3822 152.116 52.649 152.949 53.9248L152.312 54.3432ZM38.9999 47.2237L38.4196 46.7291C39.4062 45.5652 40.4435 44.4179 41.5025 43.3193L42.0504 43.8501C41.0026 44.9371 39.9763 46.0723 38.9999 47.2237ZM146.866 47.0663C145.887 45.9181 144.857 44.7863 143.807 43.7024L144.353 43.1701C145.415 44.2654 146.455 45.4093 147.445 46.5698L146.866 47.0663ZM45.3084 40.6785L44.7954 40.1138C45.9227 39.0842 47.0967 38.0788 48.2844 37.1259L48.7605 37.7223C47.5853 38.6651 46.4238 39.6599 45.3084 40.6785V40.6785ZM140.539 40.5399C139.422 39.526 138.257 38.5342 137.077 37.5925L137.551 36.9946C138.744 37.9466 139.921 38.9488 141.05 39.9737L140.539 40.5399ZM52.3927 34.993L51.9557 34.3675C53.2021 33.4916 54.4937 32.6447 55.7943 31.8503L56.1906 32.5026C54.9039 33.2887 53.626 34.1266 52.3927 34.993ZM133.433 34.8714C132.193 34.0059 130.911 33.1708 129.623 32.3892L130.018 31.7358C131.319 32.5256 132.615 33.3696 133.869 34.2444L133.433 34.8714ZM60.138 30.2618L59.7843 29.5852C61.131 28.8769 62.5192 28.2029 63.9099 27.5821L64.2197 28.28C62.8438 28.8941 61.4706 29.561 60.138 30.2618ZM125.661 30.157C124.323 29.4588 122.945 28.795 121.564 28.1841L121.871 27.4851C123.267 28.1026 124.661 28.7736 126.013 29.4793L125.661 30.157ZM68.4184 26.5665L68.1539 25.85C69.5823 25.3202 71.047 24.8301 72.5074 24.3935L72.725 25.1257C71.2802 25.5574 69.8314 26.0423 68.4184 26.5665H68.4184ZM117.346 26.4798C115.93 25.9604 114.48 25.4808 113.035 25.0545L113.25 24.3215C114.71 24.7525 116.177 25.2374 117.608 25.7626L117.346 26.4798ZM77.1153 23.9667L76.9453 23.2222C78.4274 22.8817 79.9427 22.585 81.449 22.3397L81.571 23.0939C80.0807 23.3363 78.5816 23.6299 77.1153 23.9667ZM108.64 23.9111C107.171 23.5791 105.671 23.2908 104.181 23.054L104.3 22.2995C105.806 22.5389 107.323 22.8304 108.807 23.1659L108.64 23.9111ZM86.0734 22.5093L85.9997 21.7491C87.5122 21.602 89.0528 21.5015 90.5784 21.4506L90.6037 22.214C89.094 22.2644 87.5699 22.3638 86.0734 22.5093V22.5093ZM99.6766 22.4856C98.1779 22.3452 96.6532 22.2512 95.1454 22.2062L95.1681 21.4427C96.6919 21.4883 98.2328 21.5832 99.7475 21.7251L99.6766 22.4856Z" fill="#D0CDE1"/>
<path d="M96.7199 52.2083C111.101 52.2083 122.76 40.5211 122.76 26.1042C122.76 11.6872 111.101 0 96.7199 0C82.3384 0 70.6799 11.6872 70.6799 26.1042C70.6799 40.5211 82.3384 52.2083 96.7199 52.2083Z" fill="#6C63FF"/>
<path d="M160.425 105.349C174.55 105.349 186 93.8704 186 79.7109C186 65.5514 174.55 54.0729 160.425 54.0729C146.3 54.0729 134.85 65.5514 134.85 79.7109C134.85 93.8704 146.3 105.349 160.425 105.349Z" fill="#6C63FF"/>
<path d="M136.245 175.271C150.883 175.271 162.75 163.375 162.75 148.701C162.75 134.026 150.883 122.13 136.245 122.13C121.607 122.13 109.74 134.026 109.74 148.701C109.74 163.375 121.607 175.271 136.245 175.271Z" fill="#6C63FF"/>
<path d="M54.4051 179C68.5298 179 79.9801 167.313 79.9801 152.896C79.9801 138.479 68.5298 126.792 54.4051 126.792C40.2804 126.792 28.8301 138.479 28.8301 152.896C28.8301 167.313 40.2804 179 54.4051 179Z" fill="#6C63FF"/>
<path d="M26.04 105.349C40.4215 105.349 52.08 93.8704 52.08 79.7109C52.08 65.5514 40.4215 54.0729 26.04 54.0729C11.6585 54.0729 0 65.5514 0 79.7109C0 93.8704 11.6585 105.349 26.04 105.349Z" fill="#6C63FF"/>
<path d="M107.626 23.5737H98.7491C97.9419 23.5737 97.1677 23.2474 96.597 22.6667C96.0262 22.086 95.7055 21.2984 95.7055 20.4771V11.4455C95.7055 11.4117 95.6989 11.3781 95.6862 11.3468C95.6734 11.3155 95.6548 11.287 95.6312 11.2631C95.6077 11.2391 95.5797 11.2201 95.5489 11.2071C95.5182 11.1942 95.4852 11.1875 95.4519 11.1875H89.6182C88.5419 11.1875 87.5097 11.6225 86.7487 12.3968C85.9876 13.1711 85.5601 14.2212 85.5601 15.3162V35.9598C85.5601 37.0548 85.9876 38.105 86.7487 38.8793C87.5097 39.6535 88.5419 40.0885 89.6182 40.0885H103.822C104.898 40.0885 105.93 39.6535 106.691 38.8793C107.452 38.105 107.88 37.0548 107.88 35.9598V23.8317C107.88 23.7978 107.873 23.7643 107.861 23.7329C107.848 23.7016 107.829 23.6732 107.806 23.6492C107.782 23.6253 107.754 23.6063 107.723 23.5933C107.693 23.5803 107.66 23.5737 107.626 23.5737V23.5737ZM101.793 33.8955H91.6473C91.3783 33.8955 91.1202 33.7867 90.9299 33.5931C90.7397 33.3996 90.6328 33.137 90.6328 32.8633C90.6328 32.5895 90.7397 32.327 90.9299 32.1334C91.1202 31.9398 91.3783 31.8311 91.6473 31.8311H101.793C102.062 31.8311 102.32 31.9398 102.51 32.1334C102.7 32.327 102.807 32.5895 102.807 32.8633C102.807 33.137 102.7 33.3996 102.51 33.5931C102.32 33.7867 102.062 33.8955 101.793 33.8955ZM101.793 28.7346H91.6473C91.3783 28.7346 91.1202 28.6258 90.9299 28.4322C90.7397 28.2387 90.6328 27.9761 90.6328 27.7024C90.6328 27.4286 90.7397 27.1661 90.9299 26.9725C91.1202 26.7789 91.3783 26.6702 91.6473 26.6702H101.793C102.062 26.6702 102.32 26.7789 102.51 26.9725C102.7 27.1661 102.807 27.4286 102.807 27.7024C102.807 27.9761 102.7 28.2387 102.51 28.4322C102.32 28.6258 102.062 28.7346 101.793 28.7346Z" fill="white"/>
<path d="M106.913 21.2276L97.8645 12.1564C97.8469 12.1389 97.8245 12.127 97.8002 12.1221C97.7758 12.1173 97.7506 12.1198 97.7277 12.1293C97.7047 12.1388 97.6851 12.1549 97.6713 12.1756C97.6575 12.1962 97.65 12.2205 97.6499 12.2454V20.4334C97.6499 20.7011 97.756 20.9578 97.9448 21.1471C98.1336 21.3363 98.3897 21.4427 98.6567 21.4427H106.825C106.849 21.4426 106.874 21.4351 106.894 21.4212C106.915 21.4074 106.931 21.3877 106.94 21.3647C106.95 21.3417 106.952 21.3164 106.948 21.292C106.943 21.2676 106.931 21.2452 106.913 21.2276L106.913 21.2276Z" fill="white"/>
<path d="M139.964 143.573C139.642 143.573 139.329 143.685 139.08 143.891C138.83 144.096 138.66 144.382 138.597 144.699C138.534 145.017 138.583 145.346 138.735 145.631C138.887 145.916 139.134 146.14 139.432 146.264C139.73 146.387 140.062 146.403 140.371 146.309C140.679 146.215 140.946 146.017 141.125 145.748C141.305 145.479 141.385 145.156 141.353 144.834C141.322 144.512 141.179 144.211 140.951 143.982C140.821 143.852 140.668 143.749 140.498 143.679C140.329 143.609 140.148 143.573 139.964 143.573Z" fill="white"/>
<path d="M147.737 137.986V137.982C147.693 137.789 147.597 137.612 147.458 137.471C147.319 137.331 147.144 137.232 146.952 137.186C145.405 136.807 142.972 137.211 140.276 138.293C137.683 139.303 135.311 140.809 133.292 142.726C132.74 143.276 132.228 143.864 131.758 144.486C130.721 144.415 129.681 144.582 128.718 144.976C125.722 146.298 124.866 149.681 124.638 151.07C124.605 151.268 124.618 151.47 124.676 151.661C124.733 151.853 124.835 152.029 124.971 152.175C125.108 152.321 125.276 152.433 125.463 152.503C125.65 152.573 125.85 152.599 126.049 152.579H126.056L129.394 152.214C129.398 152.256 129.403 152.295 129.406 152.331C129.449 152.739 129.631 153.12 129.92 153.409L131.549 155.043C131.838 155.334 132.217 155.516 132.624 155.559L132.736 155.571L132.372 158.913V158.92C132.355 159.09 132.371 159.261 132.42 159.425C132.468 159.589 132.549 159.741 132.656 159.874C132.764 160.006 132.896 160.116 133.046 160.198C133.196 160.279 133.36 160.33 133.53 160.347C133.57 160.351 133.61 160.354 133.65 160.354C133.722 160.354 133.794 160.348 133.865 160.336C135.259 160.112 138.632 159.264 139.947 156.244C140.337 155.282 140.505 154.245 140.438 153.209C141.061 152.739 141.65 152.226 142.2 151.672C144.111 149.666 145.615 147.307 146.627 144.725C147.701 142.053 148.105 139.596 147.737 137.986ZM142.181 147.085C141.755 147.512 141.211 147.804 140.62 147.922C140.028 148.04 139.415 147.98 138.857 147.749C138.3 147.518 137.823 147.126 137.488 146.624C137.152 146.121 136.973 145.53 136.973 144.925C136.973 144.321 137.151 143.729 137.486 143.226C137.821 142.723 138.297 142.331 138.854 142.099C139.412 141.868 140.025 141.807 140.617 141.925C141.208 142.042 141.752 142.333 142.179 142.761L142.181 142.763C142.753 143.327 143.077 144.096 143.083 144.901C143.089 145.705 142.776 146.479 142.213 147.052L142.181 147.085Z" fill="white"/>
<path d="M131.243 155.468C131.019 155.444 130.791 155.492 130.604 155.604C130.233 155.827 129.859 156.047 129.483 156.262C129.319 156.354 129.125 156.396 128.931 156.379C128.738 156.363 128.556 156.291 128.415 156.173C128.274 156.055 128.183 155.9 128.155 155.731C128.127 155.562 128.165 155.39 128.262 155.242L128.968 154.172C129.069 154.042 129.125 153.89 129.13 153.733C129.135 153.576 129.088 153.422 128.995 153.287C128.902 153.153 128.767 153.046 128.606 152.977C128.445 152.909 128.264 152.883 128.087 152.902C127.303 152.989 126.574 153.302 126.016 153.792C125.803 153.979 125.156 154.547 124.808 156.711C124.708 157.333 124.646 157.958 124.62 158.585C124.617 158.692 124.638 158.799 124.682 158.899C124.726 158.999 124.792 159.09 124.876 159.168C124.96 159.246 125.061 159.308 125.172 159.352C125.284 159.395 125.404 159.419 125.526 159.422C125.534 159.422 125.542 159.422 125.551 159.422H125.574C126.29 159.4 127.004 159.345 127.713 159.259C130.182 158.953 130.83 158.385 131.042 158.198C131.604 157.708 131.96 157.066 132.053 156.377C132.083 156.162 132.015 155.946 131.863 155.775C131.711 155.605 131.488 155.495 131.243 155.468V155.468Z" fill="white"/>
<path d="M45.1051 166.88H43.2451C42.8751 166.88 42.5203 166.733 42.2587 166.471C41.9971 166.208 41.8501 165.853 41.8501 165.482V157.091C41.8501 156.72 41.9971 156.365 42.2587 156.102C42.5203 155.84 42.8751 155.693 43.2451 155.693H45.1051C45.4751 155.693 45.8299 155.84 46.0915 156.102C46.3531 156.365 46.5001 156.72 46.5001 157.091V165.482C46.5001 165.853 46.3531 166.208 46.0915 166.471C45.8299 166.733 45.4751 166.88 45.1051 166.88V166.88Z" fill="white"/>
<path d="M58.7761 166.88H56.5441C56.1002 166.88 55.6744 166.733 55.3604 166.471C55.0465 166.208 54.8701 165.853 54.8701 165.482V151.497C54.8701 151.127 55.0465 150.771 55.3604 150.509C55.6744 150.246 56.1002 150.099 56.5441 150.099H58.7761C59.2201 150.099 59.6459 150.246 59.9598 150.509C60.2737 150.771 60.4501 151.127 60.4501 151.497V165.482C60.4501 165.853 60.2737 166.208 59.9598 166.471C59.6459 166.733 59.2201 166.88 58.7761 166.88V166.88Z" fill="white"/>
<path d="M65.565 166.88H63.7051C63.3351 166.88 62.9803 166.733 62.7186 166.471C62.457 166.208 62.3101 165.853 62.3101 165.482V144.971C62.3101 144.6 62.457 144.245 62.7186 143.982C62.9803 143.72 63.3351 143.573 63.7051 143.573H65.565C65.935 143.573 66.2899 143.72 66.5515 143.982C66.8131 144.245 66.9601 144.6 66.9601 144.971V165.482C66.9601 165.853 66.8131 166.208 66.5515 166.471C66.2899 166.733 65.935 166.88 65.565 166.88V166.88Z" fill="white"/>
<path d="M51.6151 166.88H49.7551C49.3851 166.88 49.0303 166.733 48.7687 166.471C48.5071 166.208 48.3601 165.853 48.3601 165.482V140.31C48.3601 139.939 48.5071 139.583 48.7687 139.321C49.0303 139.059 49.3851 138.911 49.7551 138.911H51.6151C51.9851 138.911 52.3399 139.059 52.6015 139.321C52.8631 139.583 53.0101 139.939 53.0101 140.31V165.482C53.0101 165.665 52.974 165.847 52.9039 166.017C52.8338 166.187 52.731 166.341 52.6015 166.471C52.472 166.601 52.3182 166.704 52.1489 166.774C51.9797 166.844 51.7983 166.88 51.6151 166.88V166.88Z" fill="white"/>
<path d="M162.241 79.2005L160.82 77.861C160.495 77.5542 160.054 77.3814 159.594 77.3803C159.134 77.3791 158.692 77.5497 158.365 77.8549L148.489 86.4458C148.127 86.7483 147.905 87.1731 147.872 87.6284C147.861 87.8545 147.9 88.0802 147.987 88.2914C148.073 88.5026 148.204 88.6948 148.373 88.856L150.494 90.878L150.498 90.8816C150.826 91.1896 151.27 91.3632 151.733 91.3646H151.797C152.037 91.3519 152.271 91.2948 152.488 91.1965C152.704 91.0982 152.898 90.9607 153.057 90.7918L162.235 81.5255C162.563 81.2191 162.748 80.8025 162.75 80.3673C162.752 79.932 162.571 79.5139 162.246 79.2049L162.241 79.2005Z" fill="white"/>
<path d="M172.667 76.3264L172.651 76.3102L170.86 74.535C170.755 74.4303 170.631 74.3474 170.494 74.2912C170.357 74.235 170.21 74.2065 170.062 74.2074C169.822 74.2076 169.588 74.2834 169.394 74.4241C169.394 74.4016 169.397 74.3796 169.398 74.3602C169.471 73.9018 169.374 73.4327 169.127 73.0403C168.732 72.5077 168.299 72.005 167.831 71.5362L167.827 71.532C166.518 70.2741 164.98 69.2802 163.296 68.6044C162.416 68.2426 161.474 68.0568 160.523 68.0575C159.292 68.0463 158.095 68.4661 157.14 69.2444C156.868 69.5045 156.62 69.7886 156.399 70.0933C156.293 70.2393 156.238 70.4155 156.24 70.5958C156.242 70.7761 156.303 70.9508 156.412 71.0939C156.522 71.237 156.674 71.3409 156.848 71.3901C157.021 71.4394 157.205 71.4313 157.373 71.3671C157.52 71.3123 157.67 71.2663 157.822 71.2295C158.138 71.1624 158.463 71.1421 158.786 71.1693C159.454 71.2392 160.095 71.4746 160.65 71.8544C160.962 72.117 161.209 72.447 161.374 72.8196C161.54 73.1921 161.618 73.5974 161.604 74.0048C161.372 74.6668 161.018 75.2789 160.559 75.8093C160.437 75.9707 160.377 76.171 160.391 76.3731C160.405 76.5752 160.492 76.7653 160.635 76.9084L162.433 78.7092C162.584 78.8609 162.787 78.9488 163.001 78.9549C163.215 78.9609 163.423 78.8846 163.582 78.7417C164.091 78.2869 164.865 77.6013 165.136 77.4333C165.367 77.2782 165.629 77.1747 165.904 77.1298C166.108 77.1096 166.314 77.1531 166.493 77.2543C166.494 77.2633 166.493 77.2723 166.491 77.2809C166.488 77.2894 166.483 77.2973 166.477 77.304L166.382 77.3946L166.367 77.4092C166.155 77.62 166.036 77.9063 166.036 78.205C166.035 78.5037 166.153 78.7904 166.364 79.002L166.369 79.0075L168.159 80.7822C168.264 80.8869 168.389 80.9696 168.526 81.0258C168.663 81.0819 168.809 81.1103 168.957 81.1093C169.255 81.1098 169.54 80.9932 169.753 80.7848L172.652 77.9158C172.662 77.9059 172.672 77.8954 172.681 77.8849C172.876 77.6713 172.983 77.3919 172.98 77.1028C172.977 76.8137 172.865 76.5363 172.667 76.3264Z" fill="white"/>
<path d="M30.69 77.3802C30.5061 77.3802 30.3263 77.3255 30.1733 77.2231C30.0204 77.1206 29.9012 76.975 29.8308 76.8047C29.7604 76.6343 29.742 76.4469 29.7779 76.266C29.8138 76.0852 29.9023 75.9191 30.0324 75.7887L32.1647 73.651L30.0324 71.5134C29.858 71.3385 29.76 71.1014 29.76 70.8541C29.76 70.6069 29.858 70.3698 30.0324 70.1949C30.2068 70.0201 30.4433 69.9219 30.69 69.9219C30.9366 69.9219 31.1732 70.0201 31.3476 70.1949L34.1376 72.9918C34.224 73.0784 34.2925 73.1811 34.3392 73.2943C34.386 73.4074 34.41 73.5286 34.41 73.651C34.41 73.7735 34.386 73.8947 34.3392 74.0078C34.2925 74.1209 34.224 74.2237 34.1376 74.3102L31.3476 77.1071C31.2613 77.1938 31.1588 77.2626 31.046 77.3095C30.9331 77.3563 30.8121 77.3804 30.69 77.3802Z" fill="white"/>
<path d="M14.043 82.0417C13.9087 82.0417 13.7757 82.0115 13.6515 81.953C13.5274 81.8944 13.4146 81.8086 13.3196 81.7004C13.2246 81.5921 13.1493 81.4637 13.0979 81.3223C13.0465 81.1809 13.02 81.0293 13.02 80.8763V79.7109C13.028 77.8599 13.6769 76.0872 14.8256 74.778C15.9743 73.4688 17.5301 72.7288 19.155 72.7188H32.457C32.7283 72.7188 32.9885 72.8415 33.1804 73.0601C33.3722 73.2786 33.48 73.575 33.48 73.8841C33.48 74.1932 33.3722 74.4896 33.1804 74.7081C32.9885 74.9267 32.7283 75.0495 32.457 75.0495H19.158C18.0742 75.0568 17.0367 75.5507 16.2706 76.4241C15.5045 77.2975 15.0716 78.4798 15.066 79.7144V80.8763C15.066 81.0293 15.0396 81.1809 14.9882 81.3223C14.9367 81.4637 14.8614 81.5921 14.7664 81.7003C14.6714 81.8086 14.5586 81.8944 14.4345 81.953C14.3104 82.0115 14.1774 82.0417 14.043 82.0417V82.0417Z" fill="white"/>
<path d="M21.39 89.5C21.2678 89.5001 21.1468 89.4761 21.034 89.4292C20.9211 89.3823 20.8186 89.3136 20.7324 89.2269L17.9423 86.4297C17.856 86.3432 17.7875 86.2404 17.7407 86.1273C17.694 86.0142 17.6699 85.8929 17.6699 85.7705C17.6699 85.648 17.694 85.5268 17.7407 85.4137C17.7875 85.3006 17.856 85.1978 17.9423 85.1112L20.7324 82.3141C20.9068 82.1395 21.1433 82.0415 21.3898 82.0416C21.6363 82.0417 21.8726 82.14 22.0469 82.3147C22.2212 82.4895 22.3192 82.7264 22.3193 82.9735C22.3194 83.2207 22.2217 83.4577 22.0475 83.6326L19.9152 85.7705L22.0475 87.9083C22.1776 88.0387 22.2662 88.2048 22.3021 88.3857C22.3379 88.5666 22.3195 88.754 22.2491 88.9244C22.1787 89.0947 22.0596 89.2404 21.9066 89.3428C21.7537 89.4453 21.5739 89.4999 21.39 89.5Z" fill="white"/>
<path d="M19.6231 86.7032C19.3518 86.7032 19.0916 86.5804 18.8997 86.3618C18.7079 86.1433 18.6001 85.8469 18.6001 85.5378C18.6001 85.2287 18.7079 84.9323 18.8997 84.7138C19.0916 84.4952 19.3518 84.3724 19.6231 84.3724H32.9221C34.0059 84.3651 35.0434 83.8712 35.8095 82.9978C36.5756 82.1244 37.0085 80.9421 37.0141 79.7075V78.5456C37.0141 78.2365 37.1219 77.9401 37.3137 77.7216C37.5056 77.503 37.7658 77.3802 38.0371 77.3802C38.3084 77.3802 38.5686 77.503 38.7605 77.7216C38.9523 77.9401 39.0601 78.2365 39.0601 78.5456V79.711C39.0521 81.562 38.4032 83.3347 37.2545 84.6439C36.1058 85.9531 34.55 86.6931 32.9251 86.7032L19.6231 86.7032Z" fill="white"/>
</svg>
