<svg viewBox="0 0 326 326" fill="none" xmlns="http://www.w3.org/2000/svg">
  <g filter="url(#filter0_d)">
    <circle cx="163" cy="161" r="155" fill="#F7FAFC"/>
    <g clip-path="url(#clip0)">
      <path d="M154.991 103.419V125.1h-14.048v-13.943H127V90.009c0-4.602 3.656-8.365 8.216-8.54.11-.004.22-.007.331-.007 4.713 0 8.547 3.834 8.547 8.547v7.1h4.587c3.479 0 6.31 2.831 6.31 6.31z" fill="#97A1F0"/>
      <path d="M176.019 59.695v11.049a5.902 5.902 0 01-5.895 5.894h-2.53L162.65 85.2l-4.944-8.562h-2.53a5.902 5.902 0 01-5.895-5.894v-11.05a5.902 5.902 0 015.895-5.894h14.948a5.902 5.902 0 015.895 5.895z" fill="#1020A1"/>
      <path d="M154.991 103.419V125.1h-7.381v-20.749h-12.394V81.469c.11-.004.22-.007.331-.007 4.713 0 8.547 3.834 8.547 8.547v7.1h4.587c3.479 0 6.31 2.831 6.31 6.31z" fill="#6D76E7"/>
      <path d="M145.915 76.181c0 5.2-4.218 9.432-9.411 9.459h-.047c-5.214 0-9.457-4.243-9.457-9.459 0-5.213 4.243-9.457 9.457-9.457h.047c5.193.027 9.411 4.26 9.411 9.457z" fill="#FFDBA9"/>
      <path d="M145.915 76.181c0 5.2-4.218 9.432-9.411 9.459V66.724c5.193.027 9.411 4.26 9.411 9.457z" fill="#FFC473"/>
      <path d="M170.309 103.419V125.1h14.048v-13.943H198.3V90.009c0-4.602-3.655-8.365-8.216-8.54a8.458 8.458 0 00-.331-.007c-4.713 0-8.547 3.834-8.547 8.547v7.1h-4.587a6.317 6.317 0 00-6.31 6.31z" fill="#6D76E7"/>
      <path d="M170.309 103.419V125.1h7.381v-20.749h12.394V81.469a8.458 8.458 0 00-.331-.007c-4.713 0-8.547 3.834-8.547 8.547v7.1h-4.587a6.317 6.317 0 00-6.31 6.31z" fill="#97A1F0"/>
      <path d="M179.385 76.181c0 5.2 4.218 9.432 9.411 9.459h.047c5.214 0 9.457-4.243 9.457-9.459 0-5.213-4.243-9.457-9.457-9.457h-.047c-5.193.027-9.411 4.26-9.411 9.457z" fill="#FFC473"/>
      <path d="M179.385 76.181c0 5.2 4.218 9.432 9.411 9.459V66.724c-5.193.027-9.411 4.26-9.411 9.457z" fill="#FFDBA9"/>
      <path d="M176.019 59.695v11.049a5.901 5.901 0 01-5.895 5.894h-2.53L162.65 85.2V53.8h7.474a5.901 5.901 0 015.895 5.895z" fill="#081476"/>
    </g>
    <path d="M112.771 30.768v1.068a34.75 34.75 0 011.32-.036h5.748v5.664h-5.892c-.504 0-1.02-.036-1.332-.072v1.092c.324-.024.864-.048 1.356-.048h5.868c-.012.288-.012.54-.024.672h1.08c-.012-.192-.048-.732-.048-1.164v-6.192c0-.288.024-.66.036-.936-.24.012-.6.024-.888.024h-5.916c-.384 0-.912-.024-1.308-.072zm12.66-.564l-.684.732c.888.6 2.388 1.884 2.988 2.508l.756-.756c-.672-.672-2.208-1.92-3.06-2.484zm-1.032 8.04l.636.984a13.153 13.153 0 004.716-1.86c1.812-1.14 3.216-2.772 4.032-4.272l-.576-1.02c-.696 1.476-2.16 3.252-4.008 4.416a12.39 12.39 0 01-4.8 1.752zm18.948-4.752v-.432h1.32c.528 0 .972.024 1.104.036v-1.008c-.168.024-.576.06-1.104.06h-1.32v-1.5c0-.468.048-.864.06-.984h-1.08c.024.12.06.516.06.984v1.5h-3.42v-1.536c0-.42.048-.756.06-.876h-1.068c.036.276.048.624.048.876v1.536h-1.296c-.504 0-1.092-.06-1.2-.084v1.044c.144-.012.684-.048 1.2-.048h1.296v1.944c0 .456-.036.972-.048 1.092h1.056a14.45 14.45 0 01-.048-1.092V33.06h3.42v.504c0 3.36-1.092 4.392-3.276 5.232l.804.756c2.748-1.224 3.432-2.868 3.432-6.06zm9.648 5.256l.636.528c.084-.072.216-.168.408-.276 1.392-.684 3.06-1.92 4.092-3.324l-.564-.816c-.924 1.356-2.4 2.448-3.504 2.952v-6.924c0-.456.036-.804.048-.888h-1.104c.012.084.072.432.072.888v7.188c0 .24-.036.48-.084.672zm-5.496-.06l.9.612a6.707 6.707 0 002.136-3.3c.324-1.2.372-3.768.372-5.1 0-.36.048-.72.06-.864h-1.104c.048.252.084.516.084.876 0 1.332-.012 3.732-.36 4.824-.36 1.164-1.08 2.232-2.088 2.952zm13.788-8.568v.996c.3-.024.696-.036 1.092-.036h4.848c.348 0 .768.012 1.116.036v-.996c-.348.048-.78.072-1.116.072h-4.86c-.384 0-.744-.036-1.08-.072zm-1.44 3.012v.996c.336-.024.684-.024 1.044-.024h3.6c-.036 1.128-.168 2.136-.696 2.976-.468.756-1.332 1.452-2.268 1.836l.888.66c1.02-.528 1.932-1.392 2.364-2.196.48-.888.672-1.98.708-3.276h3.264c.288 0 .672.012.936.024v-.996c-.288.048-.684.06-.936.06h-7.86c-.372 0-.708-.024-1.044-.06zm11.61 2.772l.456.888a22.523 22.523 0 003.756-1.584v3.672c0 .372-.024.864-.048 1.056h1.104c-.048-.192-.06-.684-.06-1.056v-4.272c1.092-.708 2.112-1.584 2.712-2.244l-.744-.72c-.612.768-1.716 1.752-2.856 2.448-.972.6-2.736 1.44-4.32 1.812zm13.26-5.7l-.684.732c.888.6 2.388 1.884 2.988 2.508l.756-.756c-.672-.672-2.208-1.92-3.06-2.484zm-1.032 8.04l.636.984a13.153 13.153 0 004.716-1.86c1.812-1.14 3.216-2.772 4.032-4.272l-.576-1.02c-.696 1.476-2.16 3.252-4.008 4.416a12.39 12.39 0 01-4.8 1.752zm19.488-8.844l-.636.276c.324.444.732 1.176.972 1.656l.648-.288a17.007 17.007 0 00-.984-1.644zm1.32-.48l-.636.276c.336.444.732 1.128.996 1.644l.648-.288a17.17 17.17 0 00-1.008-1.632zm-4.548 1.056l-1.104-.372a4.45 4.45 0 01-.372.96 10.051 10.051 0 01-3.768 4.056l.828.612a11.58 11.58 0 003.048-2.952h4.044c-.24 1.092-.984 2.652-1.908 3.744-1.092 1.284-2.592 2.364-4.8 3.012l.876.792c2.244-.84 3.684-1.932 4.776-3.264 1.068-1.308 1.8-2.928 2.124-4.14.06-.192.18-.468.276-.636l-.792-.48c-.192.072-.456.108-.78.108h-3.252c.096-.168.192-.336.276-.504.12-.216.336-.624.528-.936z" fill="#1A202C"/>
    <g clip-path="url(#clip1)">
      <path d="M281.309 227.569h-87.218a5.99 5.99 0 01-5.991-5.991v-52.405h99.2v52.405a5.99 5.99 0 01-5.991 5.991z" fill="#A9DBF5"/>
      <path d="M281.312 169.173v58.396a5.99 5.99 0 005.988-5.993v-52.403h-5.988z" fill="#88C3E0"/>
      <path d="M208.225 187.94a1.454 1.454 0 00-2.055 0l-8.996 8.996a1.453 1.453 0 000 2.056l8.877 8.876a1.45 1.45 0 002.055 0 1.454 1.454 0 000-2.055l-7.85-7.849 7.969-7.968a1.455 1.455 0 000-2.056zM239.351 196.936l-8.996-8.996a1.454 1.454 0 00-2.055 2.055l7.968 7.969-7.849 7.849a1.452 1.452 0 102.055 2.055l8.877-8.877a1.454 1.454 0 000-2.055zM224.101 182.534a1.452 1.452 0 00-1.874.843l-10.637 28.024a1.453 1.453 0 002.717 1.031l10.637-28.024a1.452 1.452 0 00-.843-1.874z" fill="#43809F"/>
      <path d="M262.949 187.991h-9.381a2.993 2.993 0 110-5.988h9.381a2.994 2.994 0 010 5.988z" fill="#29CEF6"/>
      <path d="M278.318 199.967h-24.75a2.993 2.993 0 110-5.988h24.75a2.995 2.995 0 010 5.988z" fill="#FFC328"/>
      <path d="M270.966 211.943h-17.398a2.993 2.993 0 110-5.988h17.398a2.994 2.994 0 010 5.988z" fill="#F78E36"/>
      <path d="M287.3 171.233h-99.2v-8.392a5.99 5.99 0 015.991-5.991h87.218a5.99 5.99 0 015.991 5.991v8.392z" fill="#43809F"/>
      <path d="M281.312 156.85v14.383h5.988v-8.39a5.99 5.99 0 00-5.988-5.993z" fill="#3A7190"/>
      <path d="M197.682 167.134a2.993 2.993 0 10.001-5.987 2.993 2.993 0 00-.001 5.987z" fill="#29CEF6"/>
      <path d="M209.29 167.134a2.993 2.993 0 10.001-5.987 2.993 2.993 0 00-.001 5.987z" fill="#F3F3F3"/>
      <path d="M220.899 167.134a2.993 2.993 0 10.001-5.987 2.993 2.993 0 00-.001 5.987z" fill="#F78E36"/>
    </g>
    <path d="M200.844 245.984l-.54.804a34.347 34.347 0 012.58 1.704l.564-.816c-.516-.384-1.896-1.296-2.604-1.692zm-1.8 8.58l.552.972c1.116-.228 2.772-.792 3.984-1.488 1.908-1.128 3.576-2.676 4.608-4.296l-.576-.984c-.972 1.692-2.556 3.252-4.548 4.392-1.212.696-2.7 1.176-4.02 1.404zm-.012-5.88l-.528.816c.72.372 2.028 1.212 2.616 1.644l.552-.84c-.528-.384-1.932-1.236-2.64-1.62zm19.8-1.512l-.612-.468c-.192.06-.504.096-.9.096h-4.632c-.36 0-1.044-.048-1.212-.072v1.092c.132-.012.792-.06 1.212-.06h4.68c-.3.996-1.176 2.412-1.992 3.336-1.236 1.38-3.012 2.808-4.944 3.564l.768.804c1.776-.804 3.396-2.124 4.68-3.504a27.707 27.707 0 013.3 3.564l.84-.72c-.78-.948-2.244-2.508-3.504-3.588.852-1.08 1.608-2.484 2.016-3.516.072-.168.228-.432.3-.528zm4.98-.852v.996c.3-.024.696-.036 1.092-.036h4.848c.348 0 .768.012 1.116.036v-.996c-.348.048-.78.072-1.116.072h-4.86c-.384 0-.744-.036-1.08-.072zm-1.44 3.012v.996c.336-.024.684-.024 1.044-.024h3.6c-.036 1.128-.168 2.136-.696 2.976-.468.756-1.332 1.452-2.268 1.836l.888.66c1.02-.528 1.932-1.392 2.364-2.196.48-.888.672-1.98.708-3.276h3.264c.288 0 .672.012.936.024v-.996c-.288.048-.684.06-.936.06h-7.86c-.372 0-.708-.024-1.044-.06zm16.76-3.084l-1.2-.24a7.55 7.55 0 01-.228 1.152c-.336 1.176-1.56 5.016-2.232 6.672-.216.012-.42.024-.6.036-.348.012-.756.024-1.116.012l.18 1.116c.348-.048.696-.108.996-.132a273.17 273.17 0 007.476-.828c.276.588.504 1.14.66 1.572l1.008-.456c-.504-1.236-1.812-3.648-2.664-4.884l-.9.408c.444.576.984 1.512 1.464 2.46-1.32.18-3.624.432-5.388.6.6-1.56 1.788-5.244 2.136-6.372.156-.504.288-.816.408-1.116zm10.344.108v.972h-2.628v-.972h2.628zm-2.628 2.64v-1.032h2.628v1.032h-2.628zm3.468.684v-4.008h-4.344v10.452h.876v-6.444h3.468zm-.336 2.784v-1.296h1.68v1.296h-1.68zm4.104.756v-.756h-1.632v-1.296h1.368v-.732h-5.916v.732h1.296v1.296h-1.524v.756h1.5c-.072.696-.408 1.692-1.416 2.304.192.12.456.372.588.528 1.152-.78 1.536-2.028 1.608-2.832h1.704v2.676h.792v-2.676h1.632zm-1.86-4.212v-1.044h2.724v1.044h-2.724zm2.724-2.652v.972h-2.724v-.972h2.724zm.876-.684h-4.452v4.02h3.576v5.256c0 .192-.06.264-.252.264-.18.012-.828.012-1.488-.012.132.24.264.66.288.888.9.012 1.5-.012 1.86-.156.348-.156.468-.444.468-.972v-9.288zm8.016 6.348h-2.088v-1.788h2.088v1.788zm2.304-1.788v-.456c.528.42 1.104.78 1.716 1.044.132-.228.42-.576.612-.744a7.798 7.798 0 01-2.244-1.392 19.263 19.263 0 001.884-1.548l-.672-.48a14.761 14.761 0 01-1.716 1.548c-.276-.288-.54-.6-.78-.924.576-.42 1.236-.984 1.764-1.512l-.672-.48c-.372.42-.948.984-1.476 1.428-.3-.48-.552-.984-.756-1.512l-.768.228c.6 1.548 1.512 2.928 2.676 3.972h-5.64c1.068-.9 1.98-2.076 2.496-3.48l-.588-.288-.156.036h-3.42v.792h2.976a8.406 8.406 0 01-1.116 1.584c-.384-.36-.972-.828-1.452-1.176l-.552.468c.492.372 1.08.876 1.44 1.26a8.3 8.3 0 01-2.436 1.56c.168.168.432.48.552.672a9.833 9.833 0 001.788-1.056v.456h1.26v1.788h-2.76v.828h2.664c-.216.996-.9 1.944-2.904 2.616.18.168.456.504.564.708 2.352-.816 3.06-2.04 3.252-3.324h2.16v1.92c0 .984.264 1.248 1.272 1.248h1.572c.876 0 1.128-.42 1.212-1.944-.24-.06-.612-.216-.804-.372-.048 1.284-.108 1.524-.48 1.524h-1.368c-.408 0-.48-.072-.48-.444v-1.932h2.844v-.828h-2.844v-1.788h1.38z" fill="#000"/>
    <g clip-path="url(#clip2)">
      <path d="M39.988 167.397L39 169.239v51.439a6.146 6.146 0 006.146 6.146h71.118a6.146 6.146 0 006.146-6.146v-51.439l-.988-1.842H39.988z" fill="#D8EAFB"/>
      <path d="M112.346 167.397v43.217a6.146 6.146 0 01-6.146 6.146H39v3.918a6.146 6.146 0 006.146 6.146h71.118a6.146 6.146 0 006.146-6.146v-51.439l-.988-1.842h-9.076z" fill="#B3D8FB"/>
      <path d="M116.264 152.277H45.146A6.146 6.146 0 0039 158.423v10.816h83.41v-10.816a6.146 6.146 0 00-6.146-6.146z" fill="#1690FB"/>
      <path d="M116.264 152.277h-3.918v16.962h10.064v-10.816a6.146 6.146 0 00-6.146-6.146z" fill="#0571F9"/>
      <path d="M49.34 163.515a2.757 2.757 0 10.002-5.514 2.757 2.757 0 00-.001 5.514zM57.823 163.515a2.757 2.757 0 10.001-5.514 2.757 2.757 0 000 5.514zM66.306 163.515a2.757 2.757 0 100-5.514 2.757 2.757 0 000 5.514z" fill="#B3D8FB"/>
      <path d="M63.298 201.393a1.48 1.48 0 01-1.376-2.029l8.241-20.722a1.482 1.482 0 012.754 1.095l-8.242 20.722c-.23.581-.788.934-1.377.934zM79.678 200.4a1.482 1.482 0 01-1.28-2.225l5.095-8.797-5.082-8.43a1.482 1.482 0 012.537-1.53l5.535 9.18c.279.463.284 1.04.013 1.508l-5.534 9.555a1.482 1.482 0 01-1.284.739zM54.877 200.4a1.482 1.482 0 01-1.284-.739l-5.534-9.555a1.482 1.482 0 01.013-1.508l5.535-9.18a1.482 1.482 0 012.537 1.53l-5.082 8.43 5.096 8.797a1.482 1.482 0 01-1.281 2.225z" fill="#465961"/>
      <path d="M130.21 213.972h-4.154a19.051 19.051 0 00-2.144-5.173l2.938-2.938a1.489 1.489 0 000-2.105l-4.498-4.498a1.487 1.487 0 00-2.105 0l-2.938 2.938a19.04 19.04 0 00-5.174-2.144v-4.154c0-.822-.666-1.489-1.488-1.489h-6.361a1.49 1.49 0 00-1.489 1.489v4.154a19.056 19.056 0 00-5.173 2.144l-2.938-2.938a1.487 1.487 0 00-2.105 0l-4.498 4.498a1.488 1.488 0 000 2.105l2.938 2.938a19.033 19.033 0 00-2.144 5.173h-4.154c-.822 0-1.489.667-1.489 1.489v6.361c0 .822.667 1.488 1.489 1.488h4.154a19.065 19.065 0 002.144 5.174l-2.938 2.938a1.488 1.488 0 000 2.105l4.498 4.497a1.487 1.487 0 002.105 0l2.938-2.938a18.993 18.993 0 005.173 2.144v4.154c0 .823.667 1.489 1.489 1.489h6.361c.822 0 1.488-.666 1.488-1.489v-4.154a19.04 19.04 0 005.174-2.144l2.938 2.938a1.487 1.487 0 002.105 0l4.498-4.497a1.489 1.489 0 000-2.105l-2.938-2.938a19.071 19.071 0 002.144-5.174h4.154c.822 0 1.488-.666 1.488-1.488v-6.361c0-.822-.666-1.489-1.488-1.489zm-22.743 12.335a7.666 7.666 0 110-15.332 7.666 7.666 0 010 15.332z" fill="#7C8B96"/>
      <path d="M130.21 213.972h-4.155a19.045 19.045 0 00-2.144-5.172l2.939-2.939a1.489 1.489 0 000-2.105l-4.498-4.498a1.489 1.489 0 00-2.105 0l-2.94 2.94a19.093 19.093 0 00-5.242-2.163c4.86 3.477 8.032 9.164 8.032 15.595 0 10.585-8.581 19.165-19.165 19.165-1.586 0-3.125-.196-4.599-.559a19.105 19.105 0 006.465 2.993v4.156c0 .822.666 1.488 1.488 1.488h6.361c.822 0 1.489-.666 1.489-1.488v-4.154a19.051 19.051 0 005.173-2.144l2.938 2.938a1.49 1.49 0 002.106 0l4.497-4.498a1.487 1.487 0 000-2.105l-2.938-2.938a19.071 19.071 0 002.144-5.174h4.154c.822 0 1.489-.666 1.489-1.488v-6.361a1.49 1.49 0 00-1.489-1.489z" fill="#465961"/>
      <path d="M139.27 185.476l-1.993-.814a9.871 9.871 0 00-.015-2.903l1.986-.834a.77.77 0 00.412-1.01l-1.276-3.04a.772.772 0 00-1.011-.412l-1.985.834a9.888 9.888 0 00-2.062-2.043l.814-1.994a.772.772 0 00-.423-1.006l-3.052-1.247a.772.772 0 00-1.006.423l-.814 1.993a9.871 9.871 0 00-2.903.015l-.834-1.986a.77.77 0 00-1.01-.412l-3.04 1.276a.771.771 0 00-.413 1.01l.834 1.986a9.889 9.889 0 00-2.043 2.062l-1.993-.814a.772.772 0 00-1.006.422l-1.247 3.053a.772.772 0 00.423 1.006l1.993.814a9.871 9.871 0 00.015 2.903l-1.986.834a.771.771 0 00-.413 1.01l1.277 3.04a.771.771 0 001.01.413l1.986-.834a9.889 9.889 0 002.062 2.043l-.814 1.993a.772.772 0 00.422 1.006l3.053 1.247a.772.772 0 001.006-.423l.814-1.993c.976.14 1.953.131 2.903-.015l.834 1.986a.771.771 0 001.01.413l3.04-1.277a.771.771 0 00.412-1.01l-.834-1.986a9.864 9.864 0 002.043-2.062l1.994.814a.772.772 0 001.006-.422l1.247-3.053a.772.772 0 00-.423-1.006zm-13.331 1.461a3.973 3.973 0 113.003-7.356 3.973 3.973 0 01-3.003 7.356z" fill="#7C8B96"/>
      <path d="M139.27 185.476l-1.994-.814a9.864 9.864 0 00-.015-2.902l1.987-.835a.77.77 0 00.412-1.01l-1.276-3.04a.77.77 0 00-1.01-.412l-1.988.834a9.894 9.894 0 00-2.091-2.065 9.918 9.918 0 01.797 9.058c-2.075 5.079-7.874 7.514-12.953 5.439a9.913 9.913 0 01-2.097-1.169 9.924 9.924 0 002.515 2.703l-.814 1.994a.772.772 0 00.422 1.006l3.053 1.247a.772.772 0 001.006-.423l.814-1.993c.976.14 1.953.131 2.903-.015l.834 1.986a.771.771 0 001.01.413l3.04-1.277a.771.771 0 00.412-1.01l-.834-1.986a9.864 9.864 0 002.043-2.062l1.994.814a.772.772 0 001.006-.422l1.247-3.053a.772.772 0 00-.423-1.006z" fill="#465961"/>
    </g>
    <path d="M58.686 248.192c-.684 1.812-1.836 3.588-3.024 4.728.156.204.408.672.504.864.432-.444.876-.96 1.284-1.536v6.84h.852v-8.148c.468-.78.876-1.632 1.224-2.496l-.84-.252zm2.076 1.332h4.452v2.196h-4.452v-2.196zm6 5.292V254h-3.36v-1.488h2.7v-3.792h-6.18v3.792h2.592V254h-3.48v.816h2.964c-.804 1.272-2.076 2.46-3.312 3.072.204.168.468.492.624.708 1.164-.672 2.364-1.872 3.204-3.192v3.72h.888v-3.756c.816 1.308 1.968 2.556 3.036 3.252.156-.228.444-.552.636-.708-1.152-.624-2.364-1.836-3.156-3.096h2.844zm2.508-4.464h8.1v1.668h.936v-2.508h-4.524v-1.356h-.924v1.356H68.37v2.508h.9v-1.668zm.276 4.308c.768.768 1.596 1.836 1.944 2.544l.744-.516c-.36-.708-1.212-1.752-1.992-2.472l-.696.444zm9.072-1.932h-3.072v-1.716h-.9v1.716h-6.552v.876h6.552v4.368c0 .204-.084.276-.324.288-.228 0-1.068.012-1.932-.024.12.252.276.636.312.888 1.14 0 1.86-.012 2.28-.144.42-.144.564-.42.564-1.008v-4.368h3.072v-.876zm6.732-.36c-.708 0-1.272.564-1.272 1.272 0 .708.564 1.272 1.272 1.272.708 0 1.272-.564 1.272-1.272 0-.708-.564-1.272-1.272-1.272zm10.536-3.108h5.76v.876h.828v-1.56h-7.38v1.56h.792v-.876zm.612 5.304v-.804h1.812v.804h-1.812zm0-2.172h1.812v.78h-1.812v-.78zm4.536 0v.78h-1.848v-.78h1.848zm0 2.172h-1.848v-.804h1.848v.804zm-2.724 3.168h.876v-1.14h3.504v-.684h-3.504v-.732h2.652v-3.396h-2.652v-.72h3v-.672h-3v-.828h-.876v.828h-2.964v.672h2.964v.72h-2.592v3.396h2.592v.732h-3.42v.684h3.42v1.14zm-3.636-7.32c-.372-.588-1.2-1.404-1.932-1.956l-.684.504c.732.576 1.536 1.404 1.896 2.004l.72-.552zm-.36 2.448H91.95v.84h1.524v3.072a19.752 19.752 0 01-1.656 1.38l.468.852c.588-.516 1.14-1.02 1.668-1.536.744.936 1.824 1.356 3.396 1.416 1.344.06 3.876.036 5.22-.024.036-.264.18-.672.288-.876-1.44.096-4.2.132-5.52.072-1.404-.048-2.46-.456-3.024-1.344v-3.852zm15.54 1.752v-1.992h3.228v1.992h-3.228zm-3.804 0c.036-.444.048-.888.048-1.284v-.708h2.868v1.992h-2.916zm2.916-4.752v1.92h-2.868v-1.92h2.868zm4.116 1.92h-3.228v-1.92h3.228v1.92zm.876-2.772h-8.736v4.32c0 1.668-.12 3.78-1.44 5.268.192.108.552.408.684.588.912-1.02 1.32-2.388 1.5-3.72h3v3.54h.888v-3.54h3.228v2.436c0 .228-.084.3-.324.312-.216 0-1.032.012-1.872-.024.12.24.264.624.3.864 1.128.012 1.824 0 2.232-.144.384-.156.54-.42.54-.996v-8.904z" fill="#1A202C"/>
    <g clip-path="url(#clip3)">
      <path d="M275.438 120.274c0 .934-.365 1.851-1.054 2.541l-8.782 8.801a5.36 5.36 0 01-3.818 1.584 5.359 5.359 0 01-3.818-1.584l-8.783-8.801a3.593 3.593 0 01-.777-3.926 3.586 3.586 0 013.322-2.22h8.259c0-14.268-11.608-25.875-25.876-25.875h-2.874a1.797 1.797 0 110-3.594h2.874c7.872 0 15.272 3.065 20.838 8.631 5.566 5.566 8.632 12.967 8.632 20.838a3.598 3.598 0 01-3.594 3.594h-8.259-.001l-.004.01.004.003 8.783 8.802c.34.34.792.528 1.274.528.481 0 .934-.188 1.274-.528l8.782-8.802.004-.003-.003-.01h-1.971a1.797 1.797 0 110-3.594h1.969c1.459 0 2.763.871 3.323 2.22.186.449.276.919.276 1.385z" fill="#000"/>
    </g>
    <g clip-path="url(#clip4)">
      <path d="M87.424 85.112c.934 0 1.85.365 2.54 1.054l8.802 8.782a5.358 5.358 0 011.584 3.818 5.358 5.358 0 01-1.584 3.818l-8.801 8.783a3.593 3.593 0 01-3.926.777 3.587 3.587 0 01-2.22-3.322v-8.259c-14.267 0-25.875 11.608-25.875 25.876v2.874a1.797 1.797 0 11-3.594 0v-2.874c0-7.872 3.065-15.272 8.631-20.839 5.566-5.565 12.967-8.63 20.838-8.63a3.598 3.598 0 013.594 3.593v8.26l.01.004c0-.002.002-.003.004-.004l8.8-8.783c.341-.34.53-.793.53-1.274 0-.482-.189-.934-.53-1.274l-8.8-8.782-.004-.004c-.004 0-.007.002-.01.003V90.68a1.797 1.797 0 01-3.594 0v-1.97c0-1.458.871-2.762 2.22-3.322a3.61 3.61 0 011.385-.276z" fill="#000"/>
    </g>
    <g clip-path="url(#clip5)">
      <path d="M139.427 285.729a3.593 3.593 0 01-1.051-2.542l-.013-12.433a5.357 5.357 0 011.58-3.82 5.36 5.36 0 013.819-1.58l12.434.014a3.593 3.593 0 013.326 2.226 3.587 3.587 0 01-.78 3.919l-5.839 5.84c10.088 10.088 26.504 10.088 36.593 0l2.033-2.033a1.796 1.796 0 112.541 2.541l-2.033 2.033c-5.566 5.566-12.966 8.631-20.838 8.631-7.871 0-15.272-3.065-20.838-8.631a3.599 3.599 0 010-5.083l5.84-5.84h.001l-.004-.01h-.006l-12.434-.013a1.79 1.79 0 00-1.274.527 1.786 1.786 0 00-.527 1.275l.013 12.434v.005a.036.036 0 00.009.004l.001-.001 1.393-1.392a1.796 1.796 0 112.541 2.541l-1.393 1.393a3.588 3.588 0 01-3.919.779 3.613 3.613 0 01-1.175-.784z" fill="#000"/>
    </g>
  </g>
  <defs>
    <clipPath id="clip0">
      <path fill="#fff" transform="translate(127 53.8)" d="M0 0h71.3v71.3H0z"/>
    </clipPath>
    <clipPath id="clip1">
      <path fill="#fff" transform="translate(188.1 135.2)" d="M0 0h99.2v99.2H0z"/>
    </clipPath>
    <clipPath id="clip2">
      <path fill="#fff" transform="translate(39 147.2)" d="M0 0h100.75v100.75H0z"/>
    </clipPath>
    <clipPath id="clip3">
      <path fill="#fff" transform="rotate(-90 181.275 -48.075)" d="M0 0h46v46H0z"/>
    </clipPath>
    <clipPath id="clip4">
      <path fill="#fff" transform="rotate(180 50.175 65.6)" d="M0 0h46v46H0z"/>
    </clipPath>
    <clipPath id="clip5">
      <path fill="#fff" transform="rotate(45 -213.096 318.61)" d="M0 0h46v46H0z"/>
    </clipPath>
    <filter id="filter0_d" x="0" y="0" width="326" height="326" filterUnits="userSpaceOnUse" color-interpolation-filters="sRGB">
      <feFlood flood-opacity="0" result="BackgroundImageFix"/>
      <feColorMatrix in="SourceAlpha" values="0 0 0 0 0 0 0 0 0 0 0 0 0 0 0 0 0 0 127 0"/>
      <feOffset dy="2"/>
      <feGaussianBlur stdDeviation="4"/>
      <feColorMatrix values="0 0 0 0 0 0 0 0 0 0 0 0 0 0 0 0 0 0 0.25 0"/>
      <feBlend in2="BackgroundImageFix" result="effect1_dropShadow"/>
      <feBlend in="SourceGraphic" in2="effect1_dropShadow" result="shape"/>
    </filter>
  </defs>
</svg>
