<svg viewBox="0 0 100 100" fill="none" xmlns="http://www.w3.org/2000/svg">
  <g clip-path="url(#clip0)">
    <path d="M99.177 12.621L87.371 1.363c-.449-.43-.913-.876-1.78-.876H38.3a2.508 2.508 0 00-2.505 2.505v7.692L19.13 13.54a2.469 2.469 0 00-2.003 2.847l.846 4.932c-5.418 1.823-10.98 3.703-16.35 5.631a2.48 2.48 0 00-1.481 3.151l10.68 29.69a1.465 1.465 0 102.758-.99L3.056 29.55c5.058-1.811 10.297-3.584 15.417-5.307l5.033 29.345L29.3 87.382a2.481 2.481 0 002.848 2.008L47.833 86.7l12.258-2.101-18.435 6.626-14.539 5.227-11.29-31.404a1.465 1.465 0 10-2.757.992l11.45 31.85a2.474 2.474 0 002.319 1.624c.277 0 .558-.047.833-.148l14.974-5.384L76.65 81.76l6.496-1.114h14.35a2.51 2.51 0 002.505-2.51V14.272c0-.877-.476-1.324-.823-1.65zm-3.881.347H87.784c-.35.003-1.172.01-1.38-.198-.049-.048-.105-.207-.105-.504l-.017-7.894 9.014 8.596zm1.774 64.748H38.726V49.168a1.465 1.465 0 10-2.93 0v28.967a2.51 2.51 0 002.506 2.511h27.502l-18.466 3.165-15.23 2.614-5.713-33.333-6.303-36.744 15.704-2.692v28.715a1.465 1.465 0 002.93 0V3.416H83.35l.02 8.853c0 1.073.326 1.941.97 2.58.988.982 2.386 1.05 3.254 1.05h.211l9.265-.001v61.818z" fill="#000"/>
    <path d="M45.787 23.232c0 .81.656 1.465 1.465 1.465h41.882a1.465 1.465 0 100-2.93H47.252c-.809 0-1.465.656-1.465 1.465z" fill="#000"/>
    <path d="M89.134 32.174H47.252a1.465 1.465 0 000 2.93h41.882a1.465 1.465 0 000-2.93z" fill="#6C63FF"/>
    <path d="M89.134 42.58H47.252a1.465 1.465 0 000 2.93h41.882a1.465 1.465 0 100-2.93z" fill="#000"/>
    <path d="M89.134 52.987H47.252a1.465 1.465 0 000 2.93h41.882a1.465 1.465 0 000-2.93z" fill="#6C63FF"/>
    <path d="M89.134 63.394H47.252a1.465 1.465 0 000 2.93h41.882a1.465 1.465 0 000-2.93z" fill="#000"/>
  </g>
  <defs>
    <clipPath id="clip0">
      <path fill="#fff" d="M0 0h100v100H0z"/>
    </clipPath>
  </defs>
</svg>
