<svg viewBox="0 0 111 111" fill="none" xmlns="http://www.w3.org/2000/svg">
  <g clip-path="url(#clip0)">
    <path d="M68.031 20.577S78.667 6.773 75.61 2.813c-1.043-1.35-1.931.483-4.087.483-2.533 0-2.533-1.657-5.066-1.657s-2.533 1.657-5.065 1.657c-2.533 0-2.533-1.657-5.065-1.657-2.532 0-2.532 1.657-5.065 1.657-2.158 0-3.043-1.857-4.093-.506-3.06 3.938 7.421 17.787 7.421 17.787C8.302 51.007 23.226 92.39 50.555 92.39H72.23c27.411 0 42.243-41.282-4.198-71.812z" fill="#EABC6B"/>
    <path d="M68.031 20.577S78.667 6.773 75.609 2.813c-1.043-1.35-1.931.483-4.087.483-2.533 0-2.533-1.657-5.066-1.657s-2.533 1.657-5.065 1.657c-.125 0-.239-.007-.352-.015-1.018 4.362-5.603 11.158-8.227 14.796a68.546 68.546 0 001.777 2.5c-.617.406-1.222.814-1.817 1.224 44.224 30.397 29.426 70.587 2.38 70.587h17.077c27.411 0 42.243-41.28-4.198-71.81z" fill="#E8AE4D"/>
    <path d="M70.009 25.487c-6.18 1.56-12.286 1.561-18.468 0-2.151-.543-3.37-2.962-2.596-5.161l.026-.074c.649-1.844 2.49-2.878 4.294-2.425 5.06 1.27 9.958 1.27 15.02 0 1.805-.454 3.645.581 4.295 2.425l.026.074c.774 2.199-.446 4.618-2.597 5.161z" fill="#FFE07D"/>
    <path d="M11.898 99.489l23.537 8.76c2 .744 4.115 1.125 6.248 1.125h24.256c3.395 0 6.72-.964 9.587-2.781l30.371-19.246a5.33 5.33 0 00.868-6.984c-1.649-2.424-4.378-2.846-7.38-1.426l-29.57 13.02.035-4.798a8.587 8.587 0 00-7.342-7.652l-18.007-2.074c-4.153-.587-6.23-1.98-9.85-4.098a32.273 32.273 0 00-16.296-4.416h-6.457v30.57z" fill="#FFDDCE"/>
    <path d="M11.898 99.489l23.537 8.76c2 .744 4.115 1.125 6.248 1.125h24.256c3.395 0 6.72-.964 9.587-2.781l30.371-19.246a5.33 5.33 0 00.868-6.984c-1.649-2.424-4.378-2.846-7.38-1.426l-29.57 13.02.035-4.798a8.587 8.587 0 00-7.342-7.652l-18.007-2.074c-4.153-.587-6.23-1.98-9.85-4.098a32.273 32.273 0 00-16.296-4.416h-6.457v30.57z" fill="#FFDDCE"/>
    <path d="M106.765 80.363c-1.649-2.424-4.378-2.846-7.38-1.426l-8.134 3.581.708 1.121a5.331 5.331 0 01-.868 6.985l-17.697 11.214a17.91 17.91 0 01-7.454 1.627H41.683c-2.133 0-4.249-.381-6.248-1.125L11.9 93.58v5.909l23.536 8.761c2 .744 4.115 1.124 6.248 1.124H65.94c3.394 0 6.719-.964 9.586-2.781l30.372-19.245a5.331 5.331 0 00.867-6.985z" fill="#FFCBBE"/>
    <path d="M67.642 82.217v.116l.076-.034-.076-.082z" fill="#F5DBCC"/>
    <path d="M16.963 104.177a3.093 3.093 0 01-3.092 3.092H6.408a3.093 3.093 0 01-3.092-3.092V66.314a3.092 3.092 0 013.092-3.092h7.463a3.092 3.092 0 013.092 3.092v37.863z" fill="#407093"/>
    <path d="M108.109 79.448c-2.07-3.043-5.583-3.786-9.398-1.99l-2.022.89c3.188-6.796 3.584-14.373 1.997-21.53-1.824-8.219-6.227-16.181-13.088-23.666A1.626 1.626 0 1083.2 35.35c6.47 7.058 10.612 14.518 12.31 22.173 1.789 8.063.748 16.378-3.816 23.023l-20.236 8.91.017-2.285a1.61 1.61 0 00-.008-.173 10.188 10.188 0 00-8.774-9.106L44.71 75.82c-6.916-.984-8.698-5.129-18.064-7.492-.647-5.492.215-11.338 2.58-17.2 3.56-8.828 10.527-17.404 20.184-24.869 3.6 2.552 19.659 2.87 23.252-.423a86.783 86.783 0 015.235 4.298 1.621 1.621 0 002.295-.132 1.626 1.626 0 00-.132-2.296 90.547 90.547 0 00-5.748-4.7c.474-2.011-.19-4.365-1.941-5.767 5.09-7.72 6.57-12.774 4.525-15.421-1.404-1.819-3.152-.965-3.898-.6-1.265.617-1.954.65-3.118-.112-2.22-1.453-4.554-1.5-6.846 0-1.178.771-2.106.771-3.284 0-2.22-1.453-4.554-1.5-6.846 0-1.177.77-1.87.723-3.114.104-.745-.37-2.49-1.238-3.904.58-2 2.574-.662 7.468 4.085 14.926a5.29 5.29 0 00-.827.552c-1.888-1.993-4.98-4.073-9.454-3.573-3.71.415-6.445-.811-8.087-1.912a1.626 1.626 0 00-1.811 2.7c2.093 1.403 5.572 2.966 10.26 2.443 3.455-.388 5.8 1.378 7.26 3.175-.02.07-.039.14-.056.21a27.9 27.9 0 00-5.155.561c-4.928 1.026-8.587 3.368-10.58 6.774a1.626 1.626 0 002.807 1.642c2.964-5.066 10.2-5.686 13.074-5.725l.04.107C37.185 31.583 30.045 40.406 26.21 49.912c-2.424 6.009-3.392 12.029-2.9 17.75a33.82 33.82 0 00-4.721-.365v-.983a4.723 4.723 0 00-4.718-4.718H6.408a4.723 4.723 0 00-4.718 4.718v37.862a4.724 4.724 0 004.718 4.718h7.463a4.724 4.724 0 004.718-4.718v-.463l16.28 6.059a19.479 19.479 0 006.814 1.227h24.256c3.709 0 7.325-1.049 10.457-3.034 32.359-20.513 30.394-19.237 30.581-19.403a6.972 6.972 0 001.132-9.114zM69.611 23.911c-5.945 1.501-11.726 1.501-17.672 0-2.551-.645-1.812-5.196.93-4.508 5.32 1.336 10.492 1.336 15.812 0 2.694-.676 3.522 3.853.93 4.508zM48.304 4.104l.038.02c2.2 1.093 4.128 1.152 6.341-.296 2.77-1.813 3.07 1.094 6.708 1.094 1.75 0 2.717-.632 3.422-1.094 1.179-.771 2.107-.77 3.286 0 2.223 1.455 4.104 1.383 6.368.29.335 1.207-.422 4.801-5.243 11.979-2.394-.041-5.868 2.31-15.702.122-4.81-7.27-5.554-10.9-5.218-12.115zm56.602 81.947l-30.25 19.169a16.265 16.265 0 01-8.716 2.529H41.683c-1.946 0-3.857-.344-5.68-1.023l-17.414-6.482V82.737a1.626 1.626 0 10-3.251 0v21.44c0 .808-.658 1.466-1.467 1.466H6.408a1.468 1.468 0 01-1.466-1.466V66.314c0-.808.657-1.466 1.466-1.466h7.463c.809 0 1.466.658 1.466 1.466v8.823a1.626 1.626 0 103.251 0v-4.588c13.448.103 16.472 7.191 25.686 8.494l.041.006 17.985 2.07a6.945 6.945 0 015.924 6.12L68.2 90.33H51.429a1.626 1.626 0 000 3.252h18.386c.205 0 .442-.046.649-.136l29.576-13.022c2.127-.945 4.066-1.08 5.381.853a3.714 3.714 0 01-.515 4.773z" fill="#000"/>
    <path d="M61.203 73.759c.898 0 1.626-.728 1.626-1.626v-2.695c4.564-.74 7.227-4.434 7.806-7.88.724-4.306-1.531-8.05-5.744-9.539a81.177 81.177 0 01-2.062-.758V40.896c1.923.319 3.078 1.314 3.162 1.389a1.626 1.626 0 002.195-2.398c-.114-.106-2.105-1.899-5.357-2.274v-2.312a1.626 1.626 0 10-3.252 0v2.444c-.391.075-.793.17-1.206.294-2.757.83-4.819 3.195-5.38 6.17-.508 2.701.348 5.298 2.235 6.778 1.083.85 2.447 1.627 4.352 2.459v12.856c-1.88-.08-3.038-.432-5.057-1.753a1.626 1.626 0 10-1.78 2.72c2.654 1.737 4.428 2.19 6.837 2.283v2.58c0 .899.727 1.627 1.625 1.627zm-3.97-25.33c-.929-.729-1.33-2.114-1.046-3.617.263-1.393 1.22-3.087 3.122-3.66.09-.027.18-.05.269-.074v8.781c-.974-.486-1.737-.953-2.346-1.43zm6.574 6.656c4.046 1.43 3.795 4.903 3.622 5.934-.359 2.133-1.925 4.41-4.6 5.096V54.733c.316.115.64.232.978.352z" fill="#000"/>
  </g>
  <defs>
    <clipPath id="clip0">
      <path fill="#fff" d="M0 0h111v111H0z"/>
    </clipPath>
  </defs>
</svg>
