<svg viewBox="0 0 706 495" fill="none" xmlns="http://www.w3.org/2000/svg">
  <g clip-path="url(#clip0)">
    <path opacity=".1" d="M300.354 19.028C271.655 8.091 241.329-1.044 210.371.104c-45.519 1.684-89.215 27.348-110.614 65.033-18.155 31.929-20.395 69.352-28.216 104.785-9.625 43.649-28.093 85.144-47.811 125.713C13.14 317.43 1.967 339.695.228 363.584c-2.41 33.169 14.502 66.22 41.026 88.283 26.523 22.062 61.747 33.704 97.1 36.242 18.813 1.351 38.473.098 55.183-8.111 17.68-8.685 30.567-24.379 48.319-32.941 16.45-7.934 35.693-9.044 54.161-8.013a256.535 256.535 0 0170.707 14.095c25.814 9.084 49.817 22.245 75.539 31.459 25.723 9.214 54.532 14.356 80.854 6.669 24.745-7.223 44.281-24.764 61.896-42.526a753.447 753.447 0 0078.939-93.568c15.896-22.324 30.691-45.874 37.718-71.891 13.44-49.743-5.054-105.862-46.073-139.833-33.986-28.145-79.596-40.36-124.243-47.773-40.713-6.76-87.788-7.178-125.265-24.797-35.738-16.822-68.259-37.56-105.735-51.85z" fill="#6C63FF"/>
    <path d="M411.937 403.924v23.707h6.727l-1.302-25.449-5.425 1.742zM310.89 399.141v23.707h6.733l-1.302-25.449-5.431 1.742zM428.432 364.341a4.346 4.346 0 00-4.34-4.352 4.347 4.347 0 00-4.341 4.352v33.495a4.347 4.347 0 004.341 4.353 4.347 4.347 0 004.34-4.353v-33.495z" fill="#AAABB0"/>
    <path d="M317.077 354.984a4.347 4.347 0 00-4.341-4.353 4.347 4.347 0 00-4.34 4.353v42.846a4.346 4.346 0 004.34 4.352 4.347 4.347 0 004.341-4.352v-42.846zM439.509 107.454s8.68-3.699 9.983 0c1.302 3.7 1.953 35.675 1.953 35.675h-8.25l-3.686-35.675zM344.433 107.454s-8.687-3.699-9.989 0c-1.302 3.7-1.954 35.675-1.954 35.675h8.251l3.692-35.675zM345.729 75.695l-1.302 26.539h5.861V75.043l-4.559.652z" fill="#AAABB0"/>
    <path d="M340.741 143.129l1.739-38.285s-.651-8.483 19.966-5.873c20.617 2.61 80.97 7.831 80.97 7.831v36.327H340.741zM423.229 344.765l-3.256 58.507s-47.759 26.539-105.716 1.305l5.209-61.554 103.763 1.742z" fill="#33323D"/>
    <path d="M377.86 114.411l1.081 37.847h67.295l-3.907-50.024-64.469 12.177z" fill="#444053"/>
    <path d="M384.697 319.746h-63.388v80.479h63.388v-80.479z" fill="#4C4981"/>
    <path d="M361.365 352.595s9.116-7.178 10.634-5.005c1.517 2.173-5.418 11.531-8.244 10.441-2.827-1.09-2.39-5.436-2.39-5.436z" fill="#FFB9B9"/>
    <path d="M614.395 140.949H198.297v208.814h416.098V140.949z" fill="#504F60"/>
    <path d="M340.956 74.175s-3.256-30.455 0-34.148c3.256-3.693 57.957-38.722 108.536 2.388 0 0 4.773.222 3.907 11.094-.511 6.88-.476 13.79.104 20.666 0 0-108.855 7.83-112.547 0z" fill="#33323D"/>
    <path opacity=".1" d="M340.956 74.175s-3.256-30.455 0-34.148c3.256-3.693 57.957-38.722 108.536 2.388 0 0 4.773.222 3.907 11.094-.511 6.88-.476 13.79.104 20.666 0 0-108.855 7.83-112.547 0z" fill="#000"/>
    <path d="M340.956 78.09s-3.256-30.454 0-34.148c3.256-3.693 57.957-38.722 108.536 2.389 0 0 4.773.221 3.907 11.093-.511 6.88-.476 13.79.104 20.666 0 0-108.855 7.83-112.547 0z" fill="#33323D"/>
    <path d="M455.353 64.171s3.471 13.051 2.39 15.224-.886 8.268-.886 8.268.234 3.915-1.504 4.346c-1.739.43-3.256.652-1.85 1.957 1.407 1.305 0 3.263 0 3.263s-.762 3.047 0 5.005c.762 1.958-4.454 2.773-4.011 5.22.443 2.447 1.901 9.351 0 9.573-1.902.222.651 8.699-1.062 8.699-1.712 0-2.93 15.223-2.93 15.223s-12.047-10.218-20.077-7.393c0 0 .652-8.483 3.256-11.53 2.605-3.048 1.817-10.872 1.817-10.872l12.92-38.937 11.937-8.046z" fill="#4C4981"/>
    <path d="M390.884 244.13c-2.82 3.125-5.861-13.567-5.861-13.567s-8.029 11.093-13.239 3.7c-3.608-5.122-.762-19.635 1.302-28.059.925-3.746 1.706-6.291 1.706-6.291l11.722-1.957s.039 2.558.3 5.664c.351 4.195 1.113 9.403 2.735 10.649 2.858 2.16 4.161 26.709 1.335 29.861z" fill="#AE6E79"/>
    <path opacity=".1" d="M384.808 48.725s-20.409-.215-25.397 10.656c-4.988 10.872-5.21 14.578-7.163 16.314-1.954 1.736 21.268 10.878 21.268 10.878l1.088 37.41s4.558-4.626 11.936-2.532c7.378 2.095 16.716 0 16.716 0s-.436-.789 5.646 0c6.083.79 25.397-9.429 25.397-9.429s.319-16.366-.11-19.85c-.43-3.485 13.779-29.09 13.779-29.09s11.07-10.657-.43-14.357c0 0-4.07-6.147-14.541-6.088-10.471.059-48.189 6.088-48.189 6.088z" fill="#000"/>
    <path d="M384.808 48.073s-20.409-.216-25.397 10.656c-4.988 10.871-5.21 14.578-7.163 16.313-1.954 1.736 21.268 10.878 21.268 10.878l1.088 37.411s4.558-4.627 11.936-2.532c7.378 2.094 16.716 0 16.716 0s-.436-.79 5.646 0c6.083.789 25.397-9.429 25.397-9.429s7.593-12.399 7.163-15.877c-.429-3.478 15.193-29.801 15.193-29.801s2.39-13.92-9.117-17.62c0 0-4.07-6.146-14.541-6.088-10.471.06-48.189 6.089-48.189 6.089z" fill="#4C4981"/>
    <path opacity=".1" d="M386.866 203.6c-4.474-1.396-11.494 1.684-13.728 2.61.925-3.745 1.707-6.29 1.707-6.29l11.721-1.958s.02 2.558.3 5.638z" fill="#000"/>
    <path d="M358.538 75.043h-6.29s-1.303 13.272 0 17.188c1.302 3.915 1.953 3.347 1.517 6.244-.436 2.898 3.041 7.335 3.041 7.335s.43 10.937 2.605 15.008c2.175 4.072-2.39 22.33-2.39 22.33a26.276 26.276 0 005.425 8.484c3.692 3.693 5.646 17.396 4.558 22.617-1.087 5.22 3.041 7.178 3.041 7.178s1.739 24.366 2.39 24.366 13.239-6.526 17.146-.875l-3.041-22.402.222-43.283s-4.129-5.442-1.954-10.225c2.175-4.783-1.739-16.098-1.739-16.098l-5.646-25.228-18.885-12.64z" fill="#4C4981"/>
    <path d="M319.466 418.933s-9.116-1.958-9.331 0c-.215 1.958-10.856 21.971 2.39 27.844 13.245 5.873 48.618 18.487 106.145 2.173 0 0 3.686 1.305 2.82-6.741-.866-8.046-.866-16.966-.866-16.966s-8.687-2.395-15.199-1.52c-6.512.874-63.167 12.398-85.959-4.79z" fill="#33323D"/>
    <path opacity=".1" d="M319.466 418.933s-9.116-1.958-9.331 0c-.215 1.958-10.856 21.971 2.39 27.844 13.245 5.873 48.618 18.487 106.145 2.173 0 0 3.686 1.305 2.82-6.741-.866-8.046-.866-16.966-.866-16.966s-8.687-2.395-15.199-1.52c-6.512.874-63.167 12.398-85.959-4.79z" fill="#000"/>
    <path d="M319.466 416.323s-9.116-1.958-9.331 0c-.215 1.957-10.856 21.971 2.39 27.844 13.245 5.873 48.618 18.486 106.145 2.173 0 0 3.686 1.305 2.82-6.741-.866-8.046-.866-16.966-.866-16.966s-8.687-2.395-15.199-1.521c-6.512.875-63.167 12.399-85.959-4.789z" fill="#33323D"/>
    <path d="M372.631 82.86c-.561 3.191-1.83 6.258-2.026 9.488-.195 3.23 1.049 6.904 4.025 8.17.83.248 1.635.576 2.403.979 1.146.776 1.615 2.238 1.856 3.608.319 1.769.396 3.574.227 5.364-.162 1.801-.547 3.739.339 5.312 1.556 2.786 5.613 2.375 8.7 1.592l-1.061 8.242c-.085.652-.137 1.39.338 1.833a2.044 2.044 0 001.563.34c2.683-.17 5.444-.542 7.743-1.958 2.299-1.416 4.011-4.052 3.575-6.708-.508-3.08-3.686-5.527-3.256-8.62.332-2.395 2.67-3.915 4.207-5.756 2.78-3.367 2.93-8.483.749-12.294-2.182-3.81-6.395-6.173-10.732-6.603-2.403-.242-4.904.052-7.163-.783a5.434 5.434 0 01-3.321-3.511" fill="#444053"/>
    <path d="M296.896 373.039l2.272-4.959s12.269-11.452 15.089-12.255c2.819-.802 14.326-4.3 16.065-4.3 1.739 0 33.433-1.742 33.433-1.742l3.685 8.705-39.775 8.75-13.408 9.789-17.361-3.988z" fill="#767D9F"/>
    <path d="M392.46 239.483l-2.078 16.02-.801 6.167-9.331 1.305s-1.01-2.166-2.436-5.494c-4.33-10.102-12.483-30.931-7.756-34.526 6.284-4.79 7.815 11.093 7.815 11.093l7.163-3.485 7.424 8.92z" fill="#FFB9B9"/>
    <path d="M390.903 269.285h-47.127v71.343h47.127v-71.343z" fill="#fff"/>
    <path opacity=".1" d="M390.903 269.285h-47.127v71.343h47.127v-71.343z" fill="#000"/>
    <path d="M412.085 273.148l-46.621-6.907-10.413 70.576 46.621 6.906 10.413-70.575z" fill="#fff"/>
    <path d="M393.849 276.527l-23.996-3.555-5.36 36.324 23.997 3.555 5.359-36.324zM390.993 323.94l-29.072-4.307-1.164 7.888 29.072 4.307 1.164-7.888z" fill="#6C63FF"/>
    <path opacity=".1" d="M403.256 89.288c15.045 0 27.24-12.221 27.24-27.296s-12.195-27.296-27.24-27.296c-15.044 0-27.239 12.22-27.239 27.296 0 15.075 12.195 27.296 27.239 27.296z" fill="#000"/>
    <path d="M403.256 88.635c15.045 0 27.24-12.22 27.24-27.296 0-15.075-12.195-27.296-27.24-27.296-15.044 0-27.239 12.221-27.239 27.296s12.195 27.296 27.239 27.296z" fill="#AE6E79"/>
    <path d="M380.797 81.568a3.108 3.108 0 01.188-2.108c1.036-2.16 3.986-2.349 6.376-2.238 5.619.261 11.786.294 16.182-3.263 1.823-1.462 3.862-5.135 6.512-4.437 2.357.62 3.341 3.824 5.796 4.535 1.777.516 3.62-.307 5.431-.652 2.604-.516 5.274-.085 7.918-.066 2.644.02 5.516-.483 7.32-2.42 2.435-2.61 2.038-6.69 1.823-10.265-.267-4.62.046-9.254.931-13.795.886-4.516 2.247-9.566-.241-13.436-2.37-3.687-7.28-4.698-10.634-7.524-3.138-2.61-4.799-6.793-8.114-9.213-4.174-3.048-9.846-2.61-14.977-2.082l-11.136 1.188c-2.872.306-5.861.652-8.224 2.368-4.266 3.093-4.852 9.52-8.889 12.908-1.798 1.5-4.096 2.244-6.148 3.367-2.051 1.122-4.031 2.897-4.265 5.22-.195 1.958.859 3.765 1.374 5.651 1.218 4.503-.684 9.136-1.902 13.67-1.217 4.536-1.452 10.043 2.084 13.052.717.613 1.55 1.083 2.247 1.722 2.39 2.186 2.715 5.873 2.162 9.058M405.477 95.435c.36 0 .651-.73.651-1.632 0-.9-.291-1.631-.651-1.631-.36 0-.651.73-.651 1.631s.291 1.632.651 1.632zM405.477 102.234c.36 0 .651-.73.651-1.631s-.291-1.632-.651-1.632c-.36 0-.651.73-.651 1.632 0 .901.291 1.631.651 1.631z" fill="#444053"/>
    <path d="M391.033 244.084c.697-.803 1.16-2.865 1.427-5.586l-7.763-9.697s3.289 18.8 6.336 15.283z" fill="#AE6E79"/>
    <path opacity=".1" d="M399.786 404.362s-12.738 19.733-52.533 17.618c-37.49-1.957-55.788-20.444-54.916-26.969.873-6.526-2.39-22.409 5.64-26.976 4.656-2.643 10.784-1.077 15.108.711a8.516 8.516 0 008.967-1.612c3.952-3.569 11.324-7.589 22.961-4.424 1.497.4 3.077.371 4.558-.085 4.845-1.481 16.378-4.052 24.746 1.657a8.457 8.457 0 004.482 1.493 8.457 8.457 0 004.583-1.147l.117-.072c3.907-2.394 22.141 20.229 22.141 20.229s.872 17.404-5.854 19.577z" fill="#000"/>
    <path d="M399.786 405.014s-12.738 19.733-52.533 17.619c-37.49-1.958-55.788-20.444-54.916-26.97.873-6.525-2.39-22.408 5.64-26.976 4.656-2.643 10.784-1.077 15.108.711a8.525 8.525 0 008.967-1.611c3.952-3.57 11.324-7.59 22.961-4.425a8.243 8.243 0 004.558-.085c4.845-1.481 16.378-4.052 24.746 1.658a8.456 8.456 0 009.065.346l.117-.072c3.907-2.395 22.141 20.229 22.141 20.229s.872 17.403-5.854 19.576z" fill="#767D9F"/>
    <path opacity=".1" d="M347.253 412.74c14.329 0 25.944-11.639 25.944-25.997s-11.615-25.997-25.944-25.997c-14.328 0-25.944 11.639-25.944 25.997s11.616 25.997 25.944 25.997z" fill="#000"/>
    <path d="M347.253 413.393c14.329 0 25.944-11.64 25.944-25.997 0-14.358-11.615-25.998-25.944-25.998-14.328 0-25.944 11.64-25.944 25.998 0 14.357 11.616 25.997 25.944 25.997z" fill="#FFB9B9"/>
    <path d="M339.816 364.922c-2.722.737-5.405 2.147-6.733 4.463-.801 1.397-1.081 3.074-2.24 4.235-1.641 1.651-4.409 1.684-6.629 2.611-2.221.926-3.686 4.189-1.511 5.22-2.266.117-3.946 2.212-4.226 4.294-.28 2.081.507 4.156 1.269 6.14 2.488 6.421 5.164 13.123 10.648 17.69 8.934 7.452 22.401 7.107 34.403 6.317a5.612 5.612 0 002.819-.652c1.303-.862 1.465-2.513 1.68-3.961.906-6.187 4.253-11.805 6.441-17.71 2.188-5.906 3.086-12.842-.599-18.069-5.425-7.753-26.192-13.058-35.322-10.578z" fill="#B96B6B"/>
    <path opacity=".1" d="M390.382 255.503l-.801 6.167-9.331 1.305s-1.01-2.166-2.436-5.494l12.418-2.336.15.358z" fill="#000"/>
    <path d="M400.215 391.748l5.431-6.31-1.087-34.8a56.506 56.506 0 001.087-7.615c.215-3.7-2.715-11.962-2.715-11.962a25.904 25.904 0 011.843-4.789c1.302-2.61-1.837-8.483-1.837-8.483s-4.675-15.224-2.722-22.839c1.954-7.615-.475-11.961-.475-11.961s-1.908-8.483-1.693-11.962c.215-3.478-4.344-6.747-4.344-6.747l-3.471-8.483-13.89 2.61v29.365s.866 28.059 0 33.501c-.866 5.443 1.732 10.656 1.732 10.656s-1.517 8.046-.214 11.094c1.302 3.047 3.907 10.44 3.907 10.44a16.997 16.997 0 00.436 7.935c1.303 3.811 0 5.984 0 5.984l18.012 24.366z" fill="#767D9F"/>
    <g opacity=".1" fill="#000">
      <path opacity=".1" d="M439.294 44.712a55.344 55.344 0 00-.983 11.596 55.525 55.525 0 011.009-9.632c.573-2.897 1.302-6.016 1.146-8.907a54.19 54.19 0 01-1.172 6.943zM370.468 71.65c-.696-.653-1.53-1.11-2.246-1.73-1.902-1.625-2.703-3.98-2.859-6.525-.189 3.262.475 6.42 2.859 8.483.716.62 1.55 1.09 2.246 1.73a7.984 7.984 0 012.358 5.448c.189-2.74-.365-5.593-2.358-7.406zM368.391 47.283a12.312 12.312 0 00-.352-4.104c-.377-1.397-1.054-2.76-1.302-4.163 0 .15-.052.306-.072.47-.188 1.957.867 3.765 1.374 5.65.188.703.305 1.422.352 2.147zM436.539 68.772c-1.803 1.957-4.675 2.44-7.319 2.42-2.644-.019-5.32-.45-7.919.072-1.81.366-3.653 1.181-5.431.653-2.455-.711-3.438-3.915-5.789-4.535-2.676-.705-4.715 2.969-6.512 4.43-4.396 3.524-10.562 3.492-16.182 3.263-2.39-.11-5.34.078-6.369 2.245a3.033 3.033 0 00-.189 2.108l-7.958 1.253c-.03.656-.101 1.31-.214 1.957l8.172-1.305a3.033 3.033 0 01.189-2.108c1.029-2.166 3.979-2.355 6.369-2.244 5.62.26 11.786.293 16.182-3.263 1.823-1.462 3.862-5.136 6.512-4.43 2.351.613 3.334 3.823 5.789 4.534 1.778.51 3.621-.306 5.431-.652 2.605-.522 5.275-.091 7.919-.072 2.644.02 5.516-.483 7.319-2.42 1.804-1.939 2.065-4.83 1.954-7.649-.078 2.186-.527 4.21-1.954 5.743z"/>
    </g>
    <g opacity=".1" fill="#000">
      <path opacity=".1" d="M376.258 100.113a13.181 13.181 0 00-2.403-.978 6.23 6.23 0 01-3.146-3.224c.489 2.251 1.726 4.3 3.797 5.181.831.246 1.636.574 2.403.979.49.347.886.811 1.152 1.351-.26-1.279-.735-2.584-1.803-3.309zM387.38 115.99c-3.002.763-6.922 1.161-8.57-1.39a4.51 4.51 0 00.521 1.755c1.407 2.512 4.845 2.427 7.769 1.807l.28-2.172zM399.545 117.778c.416 2.649-1.303 5.292-3.582 6.682-2.279 1.39-5.06 1.775-7.743 1.957a2.65 2.65 0 01-1.263-.143 1.557 1.557 0 001.03 2.134c.292.076.599.064.884-.033 2.683-.17 5.444-.542 7.743-1.958 2.299-1.416 4.018-4.052 3.575-6.708a7.438 7.438 0 00-.644-1.931zM402.436 94.156a10.753 10.753 0 01-1.954 9.233c-1.536 1.866-3.874 3.361-4.206 5.755a5.442 5.442 0 00.651 3.178 4.227 4.227 0 010-1.22c.332-2.395 2.67-3.915 4.207-5.755 2.526-3.061 2.878-7.57 1.302-11.191z"/>
    </g>
    <g opacity=".1" fill="#000">
      <path opacity=".1" d="M324.22 377.235c2.214-.92 4.982-.952 6.629-2.61 1.159-1.161 1.44-2.838 2.24-4.228 1.303-2.323 4.005-3.726 6.727-4.464 9.117-2.479 29.904 2.819 35.322 10.5a14.284 14.284 0 012.487 7.883 14.758 14.758 0 00-2.481-9.182c-5.418-7.68-26.185-12.979-35.321-10.499-2.722.737-5.405 2.14-6.727 4.463-.801 1.39-1.081 3.067-2.24 4.229-1.648 1.651-4.415 1.683-6.629 2.61-1.687.698-2.937 2.76-2.481 4.144a4.484 4.484 0 012.474-2.846zM318.49 386.717c.273-2.088 1.953-4.176 4.226-4.294a1.718 1.718 0 01-.996-1.116 5.064 5.064 0 00-3.256 4.105 6.896 6.896 0 000 1.599c.026-.098.026-.196.026-.294z"/>
    </g>
    <path d="M456.434 150.242h-59.26v77.437h59.26v-77.437z" fill="#fff"/>
    <path opacity=".1" d="M456.434 150.242h-59.26v77.437h59.26v-77.437z" fill="#000"/>
    <path d="M479.075 154.785l-58.402 10.066 13.101 76.317 58.401-10.067-13.1-76.316z" fill="#fff"/>
    <path d="M448.549 214.511l-13.721 2.365 3.077 17.93 13.722-2.365-3.078-17.93zM467.536 211.235l-13.721 2.365 3.077 17.93 13.722-2.366-3.078-17.929zM480.953 184.966l-48.119 8.28 3.086 18.011 48.12-8.28-3.087-18.011zM476.942 163.47l-48.119 8.28.688 4.018 48.12-8.28-.689-4.018zM478.521 170.862l-48.12 8.28.689 4.018 48.119-8.28-.688-4.018z" fill="#6C63FF"/>
    <path d="M430.496 129.204s-27.24 27.406-13.564 34.369c13.675 6.963 22.577-23.165 22.577-23.165l2.162-6.852-11.175-4.352z" fill="#AE6E79"/>
    <path opacity=".1" d="M428.113 126.783l-3.367 7.452s16.606 2.336 20.077 7.367l-2.058-13.149-2.442-5.612-12.21 3.942z" fill="#000"/>
    <path d="M428.764 126.13l-3.367 7.452s16.606 2.336 20.077 7.367l-2.058-13.148-2.442-5.612-12.21 3.941z" fill="#4C4981"/>
    <path d="M529.283 263.145l-.358.248.495.222.534-.046.065-.372-.736-.052z" fill="#464A5F"/>
    <path opacity=".1" d="M529.283 263.145l-.358.248.495.222.534-.046.065-.372-.736-.052z" fill="#000"/>
    <path d="M529.284 263.145l-.365.235-.287-.353.176-.287.163-.052.313.457z" fill="#9C9CA1"/>
    <path opacity=".1" d="M529.284 263.145l-.365.235-.287-.353.176-.287.163-.052.313.457z" fill="#000"/>
    <path d="M593.381 218.047l-26.66-38.585a3.184 3.184 0 00-2.039-1.325 3.151 3.151 0 00-2.376.51l-59.429 40.875a3.19 3.19 0 00-.827 4.431l26.589 39.074 64.742-44.98z" fill="#9C9CA1"/>
    <path opacity=".1" d="M593.381 218.047l-26.66-38.585a3.184 3.184 0 00-2.039-1.325 3.151 3.151 0 00-2.376.51l-59.429 40.875a3.19 3.19 0 00-.827 4.431l26.589 39.074 64.742-44.98z" fill="#000"/>
    <path d="M594.032 218.139l-26.66-38.585a3.19 3.19 0 00-.889-.867 3.19 3.19 0 00-2.393-.441 3.162 3.162 0 00-1.139.492l-59.423 40.902a3.199 3.199 0 00-.833 4.43l26.588 39.094 64.749-45.025z" fill="#9C9CA1"/>
    <path d="M616.316 225.767l-22.14-7.126-64.756 44.98 22.493 7.374a3.399 3.399 0 003.015-.457l61.571-43.564a.653.653 0 00-.183-1.207z" fill="#464A5F"/>
    <path opacity=".1" d="M616.316 225.767l-22.14-7.126-64.756 44.98 22.493 7.374a3.399 3.399 0 003.015-.457l61.571-43.564a.653.653 0 00-.183-1.207z" fill="#000"/>
    <path d="M616.18 225.317l-22.141-7.133-64.755 44.98 22.492 7.361a3.374 3.374 0 003.015-.45l61.571-43.564a.656.656 0 00.309-.659.649.649 0 00-.491-.535z" fill="#464A5F"/>
    <g opacity=".1" fill="#000">
      <path opacity=".1" d="M583.574 216.416l-1.634-2.349a.652.652 0 00-.886-.163l-2.429 1.625a.653.653 0 00-.176.881l1.504 2.316a.651.651 0 00.88.189l2.559-1.611a.656.656 0 00.182-.888zM579.211 219.444l-1.641-2.343a.649.649 0 00-.886-.163l-2.422 1.638a.654.654 0 00-.182.881l1.504 2.317a.65.65 0 00.879.195l2.566-1.611a.657.657 0 00.182-.914zM574.627 222.622l-1.641-2.343a.653.653 0 00-.886-.163l-2.429 1.638a.65.65 0 00-.176.887l1.504 2.317a.651.651 0 00.879.189l2.56-1.612a.644.644 0 00.286-.417.659.659 0 00-.097-.496zM569.984 225.845l-1.641-2.349a.654.654 0 00-.88-.163l-2.429 1.645a.653.653 0 00-.175.881l1.504 2.316a.654.654 0 00.873.196l2.565-1.618a.66.66 0 00.28-.671.675.675 0 00-.097-.237zM565.347 229.063l-1.641-2.343a.651.651 0 00-.886-.163l-2.422 1.638a.654.654 0 00-.182.881l1.504 2.316a.651.651 0 00.879.196l2.566-1.618a.661.661 0 00.279-.671.628.628 0 00-.097-.236zM560.912 232.573l-2.038-2.91a.294.294 0 00-.41-.078l-2.983 2.016a.291.291 0 00-.128.188.302.302 0 00-.001.116.298.298 0 00.045.107l1.869 2.878a.296.296 0 00.41.091l3.152-1.958a.304.304 0 00.096-.086.306.306 0 00-.012-.364zM556.276 235.79l-2.051-2.91a.298.298 0 00-.193-.126.307.307 0 00-.117.001.302.302 0 00-.107.047l-2.983 2.016a.297.297 0 00-.122.19.298.298 0 00.044.221l1.869 2.878a.286.286 0 00.41.091l3.146-1.957a.293.293 0 00.103-.082.29.29 0 00.058-.25.298.298 0 00-.057-.119zM552.167 238.642l-2.039-2.884a.296.296 0 00-.19-.119.296.296 0 00-.22.047l-2.982 2.01a.304.304 0 00-.085.417l1.869 2.878a.306.306 0 00.41.091l3.152-1.957a.31.31 0 00.167-.22.31.31 0 00-.009-.142.307.307 0 00-.073-.121zM547.569 241.826l-2.038-2.91a.298.298 0 00-.41-.072l-2.983 2.01a.298.298 0 00-.083.083.293.293 0 00-.046.226.29.29 0 00.045.109l1.868 2.877a.307.307 0 00.411.092l3.152-1.958a.31.31 0 00.096-.088.32.32 0 00.046-.252.3.3 0 00-.058-.117zM543.115 244.893l-2.038-2.91a.294.294 0 00-.411-.078l-2.982 2.016a.291.291 0 00-.129.188.283.283 0 000 .116.28.28 0 00.044.107l1.869 2.878a.3.3 0 00.411.091l3.151-1.958a.293.293 0 00.147-.205.295.295 0 00-.062-.245zM538.661 248.012l-2.019-2.917a.299.299 0 00-.41-.071l-2.983 2.009a.298.298 0 00-.129.192.288.288 0 000 .117.29.29 0 00.045.109l1.869 2.878a.306.306 0 00.41.091l3.152-1.957a.3.3 0 00.135-.211.303.303 0 00-.07-.24zM534.207 251.099l-2.039-2.91a.291.291 0 00-.41-.079l-2.982 2.004a.291.291 0 00-.085.411l1.869 2.877a.302.302 0 00.41.092l3.152-1.958a.293.293 0 00.139-.2.305.305 0 00-.054-.237zM580.644 212.168l-1.641-2.349a.657.657 0 00-.41-.26.655.655 0 00-.476.097l-2.403 1.644a.656.656 0 00-.182.881l1.504 2.317a.648.648 0 00.879.189l2.566-1.612a.653.653 0 00.163-.907zM574.229 202.882l-1.641-2.362a.649.649 0 00-.879-.163l-2.429 1.638a.654.654 0 00-.182.881l1.504 2.316a.65.65 0 00.879.196l2.566-1.612a.65.65 0 00.182-.894zM576.274 215.196l-1.641-2.343a.651.651 0 00-.879-.163l-2.429 1.638a.652.652 0 00-.176.881l1.498 2.317a.653.653 0 00.879.195l2.566-1.611a.657.657 0 00.182-.914zM571.69 218.374l-1.641-2.343a.653.653 0 00-.886-.163l-2.422 1.618a.652.652 0 00-.183.888l1.504 2.316a.654.654 0 00.88.19l2.565-1.612a.654.654 0 00.183-.894zM567.047 221.597l-1.635-2.349a.649.649 0 00-.886-.163l-2.429 1.664a.653.653 0 00-.175.881l1.504 2.316a.654.654 0 00.402.272.655.655 0 00.477-.082l2.559-1.612a.64.64 0 00.289-.424.657.657 0 00-.106-.503zM569.964 206.06l-1.641-2.342a.649.649 0 00-.879-.163l-2.429 1.637a.652.652 0 00-.183.881l1.505 2.317a.651.651 0 00.879.196l2.566-1.612a.644.644 0 00.282-.418.659.659 0 00-.1-.496zM565.38 209.245l-1.641-2.349a.65.65 0 00-.886-.164l-2.423 1.619a.655.655 0 00-.182.881l1.504 2.316a.651.651 0 00.879.189l2.566-1.611a.652.652 0 00.183-.881zM560.737 212.462l-1.641-2.343a.649.649 0 00-.88-.169l-2.429 1.663a.658.658 0 00-.175.881l1.504 2.317a.651.651 0 00.879.196l2.559-1.619a.646.646 0 00.287-.686.66.66 0 00-.104-.24zM562.41 224.814l-1.641-2.342a.65.65 0 00-.879-.17l-2.409 1.644a.655.655 0 00-.176.881l1.478 2.317a.654.654 0 00.873.196l2.565-1.619a.646.646 0 00.285-.67.662.662 0 00-.096-.237zM557.774 228.031l-1.642-2.342a.65.65 0 00-.885-.163l-2.423 1.638a.65.65 0 00-.182.88l1.504 2.317a.65.65 0 00.879.196l2.566-1.612a.647.647 0 00.282-.676.665.665 0 00-.099-.238zM553.339 231.542l-2.038-2.91a.305.305 0 00-.082-.082.301.301 0 00-.223-.042.293.293 0 00-.106.045l-2.982 2.017a.292.292 0 00-.085.411l1.869 2.878a.308.308 0 00.08.085.283.283 0 00.222.049.276.276 0 00.108-.043l3.152-1.958a.293.293 0 00.147-.205.31.31 0 00-.062-.245zM549.23 234.394l-2.038-2.917a.3.3 0 00-.411-.072l-2.976 2.01a.309.309 0 00-.084.418l1.869 2.877a.306.306 0 00.41.092l3.152-1.958a.29.29 0 00.15-.206.273.273 0 00-.008-.13.274.274 0 00-.064-.114zM544.632 237.578l-2.038-2.91a.298.298 0 00-.41-.072l-2.983 2.01a.29.29 0 00-.129.304.298.298 0 00.045.107l1.869 2.884a.306.306 0 00.41.092l3.152-1.958a.302.302 0 00.146-.209.305.305 0 00-.062-.248zM540.178 240.671l-2.038-2.91a.294.294 0 00-.41-.078l-2.983 1.99a.292.292 0 00-.085.411l1.869 2.878a.3.3 0 00.411.091l3.151-1.958a.296.296 0 00.132-.314.298.298 0 00-.047-.11zM568.636 213.956l-1.641-2.343a.654.654 0 00-.88-.163l-2.429 1.645a.653.653 0 00-.175.881l1.504 2.316a.651.651 0 00.873.189l2.565-1.611a.66.66 0 00.283-.419.665.665 0 00-.1-.495zM563.992 217.18l-1.641-2.35a.649.649 0 00-.885-.163l-2.423 1.645a.654.654 0 00-.182.881l1.504 2.316a.653.653 0 00.879.196l2.566-1.618a.66.66 0 00.28-.671.647.647 0 00-.098-.236zM559.362 220.397l-1.641-2.343a.652.652 0 00-.885-.163l-2.429 1.638a.65.65 0 00-.176.881l1.504 2.316a.65.65 0 00.879.196l2.56-1.618a.655.655 0 00.285-.67.64.64 0 00-.097-.237zM554.719 223.614l-1.641-2.343a.654.654 0 00-.407-.257.655.655 0 00-.472.094l-2.429 1.638a.653.653 0 00-.176.881l1.505 2.342a.65.65 0 00.872.196l2.566-1.612a.651.651 0 00.182-.939zM550.317 227.124l-2.038-2.91a.288.288 0 00-.082-.081.297.297 0 00-.328.003l-2.983 2.016a.297.297 0 00-.084.411l1.869 2.885a.281.281 0 00.187.128.302.302 0 00.116.001.305.305 0 00.107-.045l3.152-1.957a.3.3 0 00.142-.335.289.289 0 00-.058-.116zM546.182 229.976l-2.038-2.917a.308.308 0 00-.417-.072l-2.976 2.01a.309.309 0 00-.085.418l1.869 2.877a.299.299 0 00.411.092l3.151-1.958a.293.293 0 00.147-.205.295.295 0 00-.062-.245zM541.585 233.147l-2.039-2.917a.306.306 0 00-.416-.071l-2.983 2.01a.313.313 0 00-.084.417l1.875 2.878a.298.298 0 00.41.091l3.146-1.957a.29.29 0 00.15-.334.301.301 0 00-.059-.117zM537.13 236.254l-2.038-2.911a.308.308 0 00-.083-.082.325.325 0 00-.109-.044.307.307 0 00-.225.048l-2.982 2.016a.297.297 0 00-.122.19.297.297 0 00.044.221l1.869 2.878a.283.283 0 00.302.137.28.28 0 00.108-.046l3.145-1.957a.293.293 0 00.091-.45zM535.724 243.758l-2.038-2.911a.301.301 0 00-.411-.071l-2.982 2.009a.305.305 0 00-.129.188.283.283 0 000 .116.284.284 0 00.044.108l1.869 2.884a.306.306 0 00.41.091l3.152-1.958a.3.3 0 00.147-.208.305.305 0 00-.062-.248zM531.27 246.851l-2.039-2.911a.303.303 0 00-.188-.125.295.295 0 00-.222.047l-2.982 2.017a.305.305 0 00-.084.08.305.305 0 00-.045.107.283.283 0 000 .116.284.284 0 00.044.108l1.869 2.877a.302.302 0 00.41.092l3.152-1.958a.293.293 0 00.147-.205.317.317 0 00-.004-.13.312.312 0 00-.058-.115zM538.264 228.358l-1.954-2.741a.405.405 0 00-.554-.098l-2.813 1.899a.4.4 0 00-.171.254.395.395 0 00.061.301l1.758 2.708a.394.394 0 00.247.178.404.404 0 00.3-.054l2.976-1.873a.403.403 0 00.208-.42.423.423 0 00-.058-.154zM533.809 231.451l-1.921-2.741a.397.397 0 00-.553-.104l-2.813 1.931a.394.394 0 00-.171.406c.01.051.031.099.06.142l1.758 2.715a.402.402 0 00.547.124l2.976-1.873a.4.4 0 00.196-.273.415.415 0 00-.079-.327zM529.355 234.544l-1.921-2.747a.404.404 0 00-.553-.098l-2.814 1.899a.384.384 0 00-.11.11.374.374 0 00-.06.144.373.373 0 000 .156c.01.052.03.101.06.144l1.758 2.708a.372.372 0 00.106.114.39.39 0 00.441.01l2.976-1.872a.4.4 0 00.117-.568zM524.96 237.715l-2.039-2.917a.3.3 0 00-.41-.071l-2.983 2.009a.309.309 0 00-.084.418l1.869 2.878a.306.306 0 00.41.091l3.152-1.958a.28.28 0 00.154-.204.29.29 0 00-.069-.246zM577.668 207.6l-1.765-2.512a.652.652 0 00-.886-.157l-6.889 4.836a.657.657 0 00-.17.874l1.661 2.571a.66.66 0 00.416.276.644.644 0 00.489-.1l6.994-4.9a.656.656 0 00.15-.888zM532.663 239.249l-2.162-3.061a.303.303 0 00-.193-.125.307.307 0 00-.224.053l-7.436 5.221a.29.29 0 00-.078.404l2.031 3.152a.3.3 0 00.194.133.298.298 0 00.23-.048l7.56-5.305a.31.31 0 00.078-.424zM556.321 215.842l-1.992-2.923a.303.303 0 00-.411-.079l-16.514 11.172a.3.3 0 00-.085.411l2.039 3.132a.298.298 0 00.423.085l16.462-11.38a.298.298 0 00.124-.31.287.287 0 00-.046-.108z"/>
    </g>
    <path d="M584.01 216.494l-1.641-2.349a.649.649 0 00-.885-.163l-2.423 1.644a.656.656 0 00-.182.881l1.504 2.317a.653.653 0 00.879.196l2.566-1.619a.643.643 0 00.279-.415.649.649 0 00-.097-.492zM579.621 219.522l-1.641-2.342a.646.646 0 00-.879-.163l-2.429 1.637a.656.656 0 00-.182.881l1.504 2.317a.653.653 0 00.879.196l2.566-1.612a.657.657 0 00.182-.914zM575.063 222.707l-1.641-2.343a.65.65 0 00-.886-.163l-2.422 1.644a.652.652 0 00-.183.881l1.505 2.317a.65.65 0 00.879.189l2.566-1.612a.657.657 0 00.182-.913zM570.413 225.924l-1.641-2.35a.649.649 0 00-.879-.163l-2.429 1.645a.654.654 0 00-.169.913l1.504 2.317a.653.653 0 00.879.196l2.559-1.619a.648.648 0 00.287-.697.636.636 0 00-.111-.242zM565.777 229.141l-1.641-2.343a.653.653 0 00-.879-.163l-2.429 1.638a.65.65 0 00-.176.881l1.498 2.316a.647.647 0 00.879.196l2.566-1.618a.664.664 0 00.279-.671.628.628 0 00-.097-.236zM561.342 232.651l-2.038-2.91a.294.294 0 00-.41-.078l-2.983 2.016a.291.291 0 00-.128.188.283.283 0 00-.001.116.315.315 0 00.044.107l1.869 2.878a.301.301 0 00.411.091l3.151-1.957a.296.296 0 00.147-.206.295.295 0 00-.062-.245zM556.706 235.868l-2.039-2.91a.295.295 0 00-.309-.124.283.283 0 00-.107.046l-2.976 2.016a.295.295 0 00-.13.304.298.298 0 00.045.107l1.869 2.884a.282.282 0 00.187.129.302.302 0 00.116.001.298.298 0 00.107-.045l3.152-1.957a.313.313 0 00.14-.335.318.318 0 00-.055-.116zM552.596 238.72l-2.038-2.917a.3.3 0 00-.41-.072l-2.982 1.984a.306.306 0 00-.085.418l1.869 2.878a.306.306 0 00.41.091l3.152-1.958a.3.3 0 00.084-.424zM547.999 241.911l-2.038-2.891a.302.302 0 00-.411-.072l-2.982 2.01a.302.302 0 00-.085.418l1.869 2.878a.305.305 0 00.41.091l3.152-1.958a.288.288 0 00.107-.089.285.285 0 00.056-.127.316.316 0 00-.008-.14.309.309 0 00-.07-.12zM543.545 244.997l-2.038-2.91a.32.32 0 00-.082-.082.301.301 0 00-.223-.042.295.295 0 00-.106.046l-2.982 2.016a.291.291 0 00-.129.188.283.283 0 000 .116.28.28 0 00.044.107l1.869 2.878a.308.308 0 00.08.085.274.274 0 00.106.047.284.284 0 00.224-.041l3.152-1.957a.296.296 0 00.147-.206.311.311 0 00-.004-.129.317.317 0 00-.058-.116zM539.091 248.091l-2.039-2.917a.296.296 0 00-.19-.119.295.295 0 00-.22.047l-2.982 2.01a.304.304 0 00-.085.417l1.869 2.878a.306.306 0 00.41.091l3.152-1.957a.3.3 0 00.142-.335.29.29 0 00-.057-.115zM534.636 251.177l-2.038-2.91a.291.291 0 00-.41-.079l-2.983 2.017a.29.29 0 00-.128.188.302.302 0 00-.001.116.305.305 0 00.045.107l1.869 2.878a.29.29 0 00.41.091l3.152-1.958a.304.304 0 00.096-.086.306.306 0 00-.012-.364zM581.074 212.266l-1.641-2.349a.65.65 0 00-.88-.163l-2.429 1.644a.653.653 0 00-.175.881l1.497 2.316a.65.65 0 00.879.196l2.566-1.618a.66.66 0 00.28-.671.67.67 0 00-.097-.236zM574.659 202.961l-1.641-2.343a.65.65 0 00-.879-.163l-2.429 1.638a.653.653 0 00-.176.881l1.505 2.316a.65.65 0 00.872.196l2.566-1.612a.653.653 0 00.182-.913zM576.704 215.274l-1.641-2.356a.651.651 0 00-.879-.163l-2.429 1.638a.65.65 0 00-.176.881l1.504 2.317a.65.65 0 00.873.195l2.566-1.611a.655.655 0 00.182-.901zM572.12 218.452l-1.615-2.343a.654.654 0 00-.88-.163l-2.429 1.638a.656.656 0 00-.175.888l1.497 2.316a.651.651 0 00.879.189l2.566-1.611a.653.653 0 00.157-.914zM567.483 221.676l-1.641-2.35a.649.649 0 00-.886-.163l-2.422 1.645a.65.65 0 00-.183.881l1.505 2.316a.651.651 0 00.879.196l2.566-1.618a.654.654 0 00.182-.907zM570.394 206.139l-1.641-2.356a.653.653 0 00-.879-.163l-2.429 1.638a.65.65 0 00-.176.881l1.504 2.316a.653.653 0 00.873.196l2.565-1.612a.653.653 0 00.183-.9zM565.809 209.323l-1.641-2.349a.646.646 0 00-.879-.163l-2.429 1.644a.654.654 0 00-.182.881l1.504 2.316a.65.65 0 00.879.196l2.566-1.618a.646.646 0 00.279-.416.654.654 0 00-.097-.491zM561.173 212.54l-1.641-2.343a.649.649 0 00-.886-.163l-2.422 1.638a.65.65 0 00-.183.881l1.505 2.323a.651.651 0 00.879.196l2.559-1.618a.647.647 0 00.286-.417.645.645 0 00-.097-.497zM562.84 224.893l-1.641-2.343a.653.653 0 00-.879-.163l-2.429 1.625a.65.65 0 00-.176.881l1.504 2.316a.653.653 0 00.873.196l2.566-1.618a.654.654 0 00.182-.894zM558.203 228.11l-1.641-2.343a.654.654 0 00-.407-.257.655.655 0 00-.472.094l-2.429 1.67a.656.656 0 00-.182.881l1.504 2.317a.654.654 0 00.879.196l2.566-1.612a.64.64 0 00.299-.433.659.659 0 00-.117-.513zM553.769 231.62l-2.039-2.91a.3.3 0 00-.081-.082.301.301 0 00-.223-.042.295.295 0 00-.106.046l-2.956 2.016a.29.29 0 00-.129.304.28.28 0 00.044.107l1.869 2.878a.308.308 0 00.08.085.274.274 0 00.106.047.284.284 0 00.224-.041l3.152-1.957a.309.309 0 00.059-.451zM549.666 234.452l-2.038-2.916a.304.304 0 00-.417-.072l-2.982 2.01a.314.314 0 00-.125.192.317.317 0 00.04.225l1.875 2.878a.301.301 0 00.411.091l3.145-1.957a.3.3 0 00.154-.203.29.29 0 00-.063-.248zM545.062 237.663l-2.038-2.917a.298.298 0 00-.41-.072l-2.983 2.01a.309.309 0 00-.085.418l1.869 2.877a.308.308 0 00.411.092l3.151-1.958a.286.286 0 00.085-.45zM540.614 240.749l-2.018-2.91a.3.3 0 00-.189-.125.295.295 0 00-.222.047l-2.982 2.016a.303.303 0 00-.085.411l1.869 2.878a.297.297 0 00.41.091l3.152-1.957a.298.298 0 00.065-.451zM569.065 214.041l-1.634-2.349a.646.646 0 00-.886-.163l-2.429 1.644a.653.653 0 00-.176.881l1.505 2.316a.655.655 0 00.401.272.657.657 0 00.478-.082l2.559-1.612a.66.66 0 00.28-.671.654.654 0 00-.098-.236zM564.429 217.258l-1.641-2.343a.65.65 0 00-.879-.169l-2.429 1.644a.65.65 0 00-.176.881l1.504 2.317a.648.648 0 00.873.195l2.565-1.618a.65.65 0 00.183-.907zM559.792 220.475l-1.66-2.336a.65.65 0 00-.886-.163l-2.37 1.631a.65.65 0 00-.183.881l1.505 2.317a.65.65 0 00.879.195l2.565-1.611a.65.65 0 00.256-.682.652.652 0 00-.106-.232zM555.149 223.692l-1.641-2.343a.651.651 0 00-.879-.163l-2.429 1.638a.653.653 0 00-.176.881l1.505 2.317a.649.649 0 00.872.195l2.566-1.611a.657.657 0 00.182-.914zM550.721 227.203l-2.038-2.911a.306.306 0 00-.309-.124.297.297 0 00-.108.046l-2.982 2.016a.3.3 0 00-.085.411l1.869 2.885a.308.308 0 00.191.129.288.288 0 00.117 0 .275.275 0 00.109-.045l3.145-1.957a.294.294 0 00.097-.085.3.3 0 00-.006-.365zM546.612 230.054l-2.038-2.91a.305.305 0 00-.082-.082.301.301 0 00-.223-.042.279.279 0 00-.106.046l-2.963 2.009a.309.309 0 00-.084.418l1.869 2.878a.303.303 0 00.41.091l3.152-1.958a.297.297 0 00.135-.21.303.303 0 00-.07-.24zM542.014 233.245l-2.038-2.917a.305.305 0 00-.194-.119.304.304 0 00-.223.047l-2.976 2.01a.309.309 0 00-.084.418l1.869 2.878a.3.3 0 00.41.091l3.152-1.958a.304.304 0 00.096-.086.306.306 0 00-.012-.364zM537.56 236.332l-2.038-2.911a.299.299 0 00-.417-.078l-2.976 2.016a.298.298 0 00-.084.411l1.869 2.885a.288.288 0 00.187.129.302.302 0 00.223-.044l3.152-1.958a.29.29 0 00.093-.088.301.301 0 00-.009-.362zM536.16 243.842l-2.038-2.916a.302.302 0 00-.194-.12.309.309 0 00-.223.048l-2.982 2.01a.304.304 0 00-.085.417l1.869 2.878a.306.306 0 00.41.091l3.152-1.957a.3.3 0 00.154-.203.29.29 0 00-.063-.248zM531.706 246.929l-2.038-2.91a.298.298 0 00-.192-.126.307.307 0 00-.225.047l-2.983 2.017a.302.302 0 00-.084.411l1.869 2.878a.312.312 0 00.189.133.3.3 0 00.228-.042l3.145-1.958a.288.288 0 00.154-.203.321.321 0 00-.003-.131.306.306 0 00-.06-.116zM538.693 228.443l-1.921-2.748a.403.403 0 00-.553-.098l-2.833 1.899a.407.407 0 00-.111.555l1.759 2.715a.403.403 0 00.553.117l2.97-1.873a.403.403 0 00.197-.416.391.391 0 00-.061-.151zM534.239 231.529l-1.921-2.741a.397.397 0 00-.553-.104l-2.814 1.905a.399.399 0 00-.11.548l1.758 2.715a.409.409 0 00.553.124l2.976-1.873a.4.4 0 00.175-.264.402.402 0 00-.064-.31zM529.785 234.622l-1.954-2.747a.394.394 0 00-.547-.098l-2.819 1.899a.402.402 0 00-.111.554l1.758 2.715a.406.406 0 00.554.118l2.976-1.873a.394.394 0 00.195-.253.39.39 0 00-.052-.315zM525.396 237.8l-2.038-2.917a.308.308 0 00-.417-.072l-2.983 2.01a.31.31 0 00-.078.418l1.869 2.877a.297.297 0 00.41.092l3.152-1.958a.293.293 0 00.147-.205.31.31 0 00-.062-.245zM578.104 207.698l-1.739-2.519a.65.65 0 00-.885-.156l-6.929 4.835a.655.655 0 00-.169.875l1.667 2.571a.653.653 0 00.905.176l6.987-4.901a.65.65 0 00.163-.881zM533.093 239.327l-2.162-3.061a.285.285 0 00-.193-.124.288.288 0 00-.224.053l-7.436 5.22a.303.303 0 00-.079.411l2.039 3.145a.3.3 0 00.313.133.318.318 0 00.11-.048l7.56-5.305a.31.31 0 00.123-.197.309.309 0 00-.051-.227zM556.751 215.92l-1.953-2.904a.305.305 0 00-.417-.084l-16.508 11.158a.291.291 0 00-.129.188.283.283 0 000 .116.28.28 0 00.044.107l2.032 3.132a.296.296 0 00.194.133.298.298 0 00.229-.048l16.463-11.38a.301.301 0 00.045-.418z" fill="#464A5F"/>
    <path opacity=".1" d="M556.829 205.949l-8.778-12.783a1.631 1.631 0 00-1.038-.681c-.422-.08-.859.01-1.215.25l-24.179 16.268a1.648 1.648 0 00-.69 1.048 1.641 1.641 0 00.254 1.23l8.947 13.148c.12.179.275.332.455.45a1.636 1.636 0 001.231.234c.21-.045.41-.131.587-.253l24.01-16.646a1.623 1.623 0 00.677-1.046 1.616 1.616 0 00-.261-1.219z" fill="#000"/>
    <path d="M557.233 206.028l-8.778-12.784a1.635 1.635 0 00-2.253-.43l-24.147 16.281a1.611 1.611 0 00-.452.453 1.617 1.617 0 00-.24 1.234c.043.211.128.412.249.59l8.922 13.136a1.634 1.634 0 001.685.683c.211-.045.41-.13.587-.253l24.023-16.646a1.623 1.623 0 00.404-2.264z" fill="#939498"/>
    <path d="M611.667 226.687l-18.624-6.225-59.735 41.58 18.488 6.036a3.376 3.376 0 002.989-.444l57.051-39.753a.651.651 0 00-.169-1.194z" fill="#6C63FF"/>
  </g>
  <defs>
    <clipPath id="clip0">
      <path fill="#fff" d="M0 0h706v495H0z"/>
    </clipPath>
  </defs>
</svg>
