<svg viewBox="0 0 100 100" fill="none" xmlns="http://www.w3.org/2000/svg">
  <g clip-path="url(#clip0)">
    <path fill-rule="evenodd" clip-rule="evenodd" d="M37.471 45.842c0-1.188.968-2.151 2.161-2.151h36.28c1.192 0 2.16.963 2.16 2.151v34.11a2.156 2.156 0 01-2.16 2.151h-36.28a2.156 2.156 0 01-2.16-2.151v-34.11z" fill="#FFBE90"/>
    <path fill-rule="evenodd" clip-rule="evenodd" d="M64.602 55.882l-6.83-2.176-6.831 2.176V43.691h13.661v12.191z" fill="#FFE6B4"/>
    <path fill-rule="evenodd" clip-rule="evenodd" d="M39.6 13.303c0-1.188.967-2.151 2.16-2.151h32.022c1.194 0 2.161.963 2.161 2.152v28.235a2.156 2.156 0 01-2.16 2.152H41.76a2.156 2.156 0 01-2.161-2.152V13.303z" fill="#FFD4B5"/>
    <path fill-rule="evenodd" clip-rule="evenodd" d="M64.602 23.343l-6.83-2.176-6.831 2.176V11.152h13.661v12.191z" fill="#FFE6B4"/>
    <path d="M38.807 90.203H79.16a8.1 8.1 0 008.1-8.1h-51.18" fill="#FAF7F5"/>
    <path d="M29.32 98.047c5.135 0 9.297-4.144 9.297-9.257 0-5.112-4.162-9.256-9.296-9.256-5.134 0-9.297 4.144-9.297 9.256s4.163 9.257 9.297 9.257z" fill="#99EBFA"/>
    <path d="M30.744 40.361a1.97 1.97 0 00-2.16-.794 1.974 1.974 0 00-1.41 1.719c-.07.811.4 1.602 1.14 1.936.733.331 1.615.173 2.186-.396.652-.65.753-1.7.244-2.465zM27.167 5.62v26.96a1.953 1.953 0 103.906 0V5.62c0-3.1-2.518-5.62-5.613-5.62H12.74a1.953 1.953 0 100 3.906H25.46c.94 0 1.706.769 1.706 1.714zM67.383 63.068H48.16a1.953 1.953 0 100 3.906h19.223a1.953 1.953 0 000-3.906zM67.383 71.475H48.16a1.953 1.953 0 000 3.906h19.223a1.953 1.953 0 000-3.906zM48.16 36.969h19.223a1.953 1.953 0 000-3.907H48.16a1.953 1.953 0 100 3.907z" fill="#000"/>
    <path d="M87.261 80.15h-7.24a4.21 4.21 0 00.004-.198v-34.11a4.107 4.107 0 00-2.185-3.624 4.11 4.11 0 00.057-.679V13.303A4.114 4.114 0 0073.782 9.2H41.761a4.114 4.114 0 00-4.114 4.104V41.54c0 .231.02.458.056.679a4.107 4.107 0 00-2.184 3.624v33.596a11.206 11.206 0 00-4.446-1.722V50.239a1.953 1.953 0 00-3.906 0v27.548c-5.176 1.004-9.095 5.556-9.095 11.003 0 6.181 5.046 11.21 11.25 11.21 5.026 0 9.293-3.302 10.731-7.844h39.109c5.543 0 10.053-4.51 10.053-10.053a1.954 1.954 0 00-1.954-1.953zm-47.837-.198v-34.11c0-.109.094-.198.208-.198h9.356v10.238a1.953 1.953 0 002.546 1.861l6.238-1.987 6.238 1.987a1.954 1.954 0 002.546-1.86v-10.24h9.355c.115 0 .208.09.208.2v34.109c0 .11-.093.198-.208.198H39.632a.204.204 0 01-.208-.198zm13.47-34.308h9.755v7.566l-4.284-1.365a1.957 1.957 0 00-1.186 0l-4.285 1.365v-7.566zm9.756-32.539v7.566l-4.285-1.365a1.955 1.955 0 00-1.186 0l-4.285 1.365v-7.566h9.756zm-21.097.198c0-.109.094-.198.208-.198h7.227v10.238a1.953 1.953 0 002.546 1.861l6.238-1.987 6.238 1.987a1.954 1.954 0 002.546-1.86V13.104h7.227c.114 0 .207.09.207.199v28.235c0 .11-.093.199-.207.199H41.76a.203.203 0 01-.208-.199V13.303zm-12.232 82.79c-4.049 0-7.343-3.276-7.343-7.303s3.294-7.304 7.343-7.304c4.05 0 7.344 3.277 7.344 7.304s-3.295 7.304-7.344 7.304zm49.84-7.843H40.559a11.1 11.1 0 00-1.04-4.194H84.99a6.157 6.157 0 01-5.828 4.194z" fill="#000"/>
  </g>
  <defs>
    <clipPath id="clip0">
      <path fill="#fff" d="M0 0h100v100H0z"/>
    </clipPath>
  </defs>
</svg>
