<svg viewBox="0 0 102 102" fill="none" xmlns="http://www.w3.org/2000/svg">
  <g clip-path="url(#clip0)">
    <path d="M50.594 98.334a6.636 6.636 0 006.433-5.01c-4.348-3.769-7.1-9.331-7.1-15.537 0-6.3 2.836-11.937 7.3-15.706V35.968a6.634 6.634 0 00-6.633-6.633H6.634A6.634 6.634 0 000 35.968v55.733a6.634 6.634 0 006.633 6.633" fill="#5B9ED6"/>
    <path d="M50.594 29.335h-4.915a6.634 6.634 0 016.635 6.633v22.767c0 1.035-.37 2.035-1.04 2.825a25.08 25.08 0 00-4.627 8.188 20.468 20.468 0 00-1.634 8.038c0 2.867.588 5.596 1.648 8.075l.022.063c.974 2.848-1.11 5.816-4.12 5.816H6.633A6.634 6.634 0 010 85.105v6.596a6.634 6.634 0 006.634 6.633h43.96a6.62 6.62 0 005.444-2.845l.037-.054.12-.181.042-.069a6.546 6.546 0 00.365-.674l.045-.097c.025-.055.048-.11.071-.166l.041-.1a7.4 7.4 0 00.162-.457l.03-.088c.026-.093.052-.186.076-.28a21.093 21.093 0 01-.659-.598l-.077-.073c-.207-.197-.41-.4-.609-.606l-.082-.086c-.2-.21-.395-.423-.586-.641l-.057-.066a20.462 20.462 0 01-5.03-13.466c0-6.3 2.836-11.937 7.3-15.706V35.968a6.632 6.632 0 00-6.633-6.633z" fill="#4C83B3"/>
    <path d="M12.937 23.16H44.29v6.175H12.937V23.16z" fill="#5A67AD"/>
    <path d="M36.228 23.16h8.063v6.175h-8.063V23.16z" fill="#48538A"/>
    <path d="M6.42 14.283v6.386a2.491 2.491 0 002.491 2.491h39.405a2.49 2.49 0 002.491-2.491V7.896a2.49 2.49 0 00-2.491-2.49H8.911a2.491 2.491 0 00-2.49 2.49v6.387z" fill="#5B9ED6"/>
    <path d="M39.625 5.405V23.16h8.691a2.49 2.49 0 002.491-2.491V7.896a2.49 2.49 0 00-2.491-2.49h-8.69z" fill="#4C83B3"/>
    <path d="M45.82 63.835c0 9.502-7.703 17.207-17.206 17.207s-17.207-7.705-17.207-17.207c0-9.504 7.704-17.208 17.207-17.208S45.82 54.331 45.82 63.835z" fill="#EF2D57"/>
    <path d="M38.366 49.66a17.126 17.126 0 013.032 9.752c0 9.503-7.704 17.206-17.207 17.206-3.622 0-6.98-1.12-9.752-3.032 3.103 4.502 8.293 7.456 14.175 7.456 9.503 0 17.206-7.705 17.206-17.207 0-5.882-2.952-11.072-7.454-14.175z" fill="#D9294F"/>
    <path d="M91.022 77.786c0 11.349-9.2 20.548-20.548 20.548-11.347 0-20.546-9.2-20.546-20.548 0-11.347 9.199-20.546 20.546-20.546 11.349 0 20.548 9.199 20.548 20.546z" fill="#FCDA55"/>
    <path d="M82.894 61.418a20.456 20.456 0 014.18 12.42c0 11.348-9.2 20.547-20.548 20.547-4.667 0-8.97-1.557-12.42-4.179 3.753 4.939 9.688 8.128 16.37 8.128 11.347 0 20.546-9.2 20.546-20.548 0-6.68-3.19-12.615-8.128-16.368z" fill="#D9BC4A"/>
    <path d="M56.367 92.525a20.708 20.708 0 002.51 1.868L87.222 66.05a20.573 20.573 0 00-1.867-2.51c-.127.07-.248.157-.356.265L56.633 92.17a1.566 1.566 0 00-.267.355z" fill="#D9BC4A"/>
    <path d="M83.342 31.714c-7.346 1.777-13.098 7.81-13.098 15.63v9.899c.077-.001.153-.003.23-.003 11.349 0 20.548 9.199 20.548 20.547 0 5.6-2.24 10.675-5.873 14.38.322.02.646.033.973.033 8.77 0 15.878-7.109 15.878-15.877V47.344c0-7.82-5.655-14.315-13.098-15.63 0 0-3.657-.46-5.56 0z" fill="#F084AD"/>
    <path d="M88.902 31.714c-1.994-.273-3.847-.273-5.56 0l-.168.033c7.358 1.384 12.929 7.836 12.929 15.597v28.979c0 6.666-4.11 12.369-9.933 14.722-.327.387-.667.761-1.021 1.123.322.02.646.032.973.032 8.77 0 15.878-7.109 15.878-15.877V47.344c0-7.82-5.655-14.315-13.098-15.63z" fill="#D47499"/>
    <path d="M83.423 61.833c4.636 3.768 7.599 9.515 7.599 15.953 0 5.6-2.24 10.676-5.873 14.382.322.019.646.032.973.032 8.77 0 15.878-7.109 15.878-15.877v-14.49H83.423z" fill="#EF2D57"/>
    <path d="M96.103 76.323c0 6.666-4.11 12.368-9.933 14.722a19.801 19.801 0 01-.546.619c-.156.17-.314.34-.475.504.322.02.646.032.973.032 8.77 0 15.878-7.109 15.878-15.877v-14.49h-5.897v14.49z" fill="#CC264B"/>
    <path d="M36.52 62.255h-6.327v-6.327a1.58 1.58 0 00-3.158 0v6.327h-6.327a1.58 1.58 0 100 3.159h6.327v6.326a1.58 1.58 0 103.158 0v-6.326h6.327a1.58 1.58 0 000-3.159z" fill="#fff"/>
    <path d="M17.3 24.7a1.58 1.58 0 01-1.58-1.58V5.364a1.58 1.58 0 013.16 0V23.12a1.58 1.58 0 01-1.58 1.58zM28.638 24.7a1.58 1.58 0 01-1.58-1.58V5.364a1.58 1.58 0 013.159 0V23.12c0 .872-.707 1.58-1.58 1.58zM39.976 24.7a1.58 1.58 0 01-1.58-1.58V5.364a1.58 1.58 0 013.159 0V23.12c0 .872-.707 1.58-1.579 1.58z" fill="#674297"/>
    <path d="M56.085 93.74a1.581 1.581 0 01-1.117-2.697l28.365-28.366a1.58 1.58 0 012.235 2.234L57.202 93.276a1.578 1.578 0 01-1.117.464z" fill="#E69326"/>
  </g>
  <defs>
    <clipPath id="clip0">
      <path fill="#fff" d="M0 0h102v102H0z"/>
    </clipPath>
  </defs>
</svg>
