<svg viewBox="0 0 318 318" fill="none" xmlns="http://www.w3.org/2000/svg">
  <g filter="url(#filter0_d)">
    <circle cx="159" cy="157" r="155" fill="#F7FAFC"/>
    <path d="M101.932 256.148v-3.18h3.444v3.18h-3.444zm-4.356 0v-3.18h3.432v3.18h-3.432zm4.356-4.056v-2.136h-.924v2.136H96.7v5.676h.876v-.744h3.432v3.888h.924v-3.888h3.444v.684h.912v-5.616h-4.356zm11.928 5.544v-2.016h2.4v-.768h-2.4v-1.704h2.7v-.804h-6.132v.804h2.592v1.704h-2.256v.768h2.256v2.016h-2.76v.756h6.54v-.756h-2.94zm.756-1.488c.432.408.936.984 1.164 1.356l.612-.36c-.24-.372-.768-.924-1.212-1.308l-.564.312zm-5.148 3.348v-8.16h8.028v8.16h-8.028zm-.888-8.988v10.416h.888v-.6h8.028v.6h.924v-10.416h-9.84zM184.944 248.916l-.348.888c1.656.216 4.8.9 6.264 1.428l.384-.924c-1.512-.528-4.74-1.2-6.3-1.392zm-.54 3.168l-.36.9c1.704.252 4.632.912 6.024 1.464l.384-.924c-1.5-.552-4.404-1.164-6.048-1.44zm-.66 3.492l-.372.912c1.944.312 5.508 1.116 7.104 1.812l.408-.924c-1.644-.66-5.124-1.488-7.14-1.8zm14.376-4.92l-1.032.252c.108.18.204.42.288.72.072.228.216.744.396 1.38-.732.132-1.296.24-1.464.264-.36.06-.66.108-.996.132l.24.912c.324-.072 1.308-.264 2.436-.492.468 1.716 1.044 3.84 1.2 4.38.084.3.144.612.18.876l1.02-.264a66.37 66.37 0 01-.264-.816c-.156-.528-.744-2.64-1.224-4.368 1.668-.336 3.36-.672 3.636-.72-.408.72-1.308 1.824-2.064 2.472l.852.42c.816-.804 2.052-2.484 2.556-3.504l-.6-.42c-.12.06-.312.108-.456.144-.408.096-2.448.492-4.14.816-.18-.636-.324-1.152-.396-1.416a13.93 13.93 0 01-.168-.768zm10.104-1.452l-.684.732c.888.6 2.388 1.884 2.988 2.508l.756-.756c-.672-.672-2.208-1.92-3.06-2.484zm-1.032 8.04l.636.984a13.153 13.153 0 004.716-1.86c1.812-1.14 3.216-2.772 4.032-4.272l-.576-1.02c-.696 1.476-2.16 3.252-4.008 4.416a12.39 12.39 0 01-4.8 1.752zm21.456-6.852l-.756-.612c-.168.06-.444.096-.78.096h-7.152c-.42 0-.888-.048-1.224-.096v1.08c.24-.024.756-.072 1.224-.072h7.056c-.6 1.08-1.98 2.844-3.744 4.164-.816-.732-1.8-1.536-2.244-1.86l-.78.636c.636.444 2.028 1.644 2.748 2.364.756.78 1.716 1.836 2.16 2.448l.876-.696c-.48-.588-1.332-1.488-2.052-2.208 1.98-1.512 3.504-3.468 4.368-4.872.072-.108.18-.24.3-.372zm2.076 2.412v1.176a19.72 19.72 0 011.668-.06h6.588c.54 0 1.044.048 1.284.06v-1.176c-.264.024-.696.06-1.296.06h-6.576c-.672 0-1.308-.036-1.668-.06zM138.958 185.672l15.616-10.939 15.617 10.939a2.196 2.196 0 102.521-3.599l-15.941-11.166v-17.233a2.197 2.197 0 10-4.394 0v17.233l-15.94 11.166a2.197 2.197 0 102.521 3.599z" fill="#2D3748"/>
    <path d="M139.669 96.166c0 6.725 5.441 12.167 12.166 12.167 6.724 0 12.166-5.441 12.166-12.167C164.002 89.442 158.56 84 151.835 84c-6.724 0-12.166 5.441-12.166 12.166zm17.662-5.495a7.72 7.72 0 012.276 5.495 7.768 7.768 0 01-7.771 7.772 7.767 7.767 0 01-7.772-7.772 7.768 7.768 0 017.772-7.772 7.72 7.72 0 015.495 2.277z" fill="#3C366B"/>
    <path d="M136.472 145.265h55.629c4.596 0 8.335-3.739 8.335-8.335 0-2.227-1.72-4.316-4.498-4.316a7.364 7.364 0 00.644-3.014v-3.999a2.198 2.198 0 10-4.395 0v3.999a3.017 3.017 0 01-3.014 3.014h-23.761a3.017 3.017 0 01-3.014-3.014v-18.253a3.017 3.017 0 013.014-3.014h23.761a3.017 3.017 0 013.014 3.014v4a2.198 2.198 0 004.395 0v-4c0-4.085-3.324-7.409-7.409-7.409h-23.761c-4.085 0-7.409 3.324-7.409 7.409v.947h-13.47c-7.151 0-12.969 5.818-12.969 12.969v15.094a4.914 4.914 0 004.908 4.908zm59.569-8.256a3.946 3.946 0 01-3.94 3.862h-29.617a3.946 3.946 0 01-3.94-3.862h37.497zm-60.083-11.746c0-4.728 3.847-8.574 8.574-8.574h13.471V129.6a7.47 7.47 0 00.641 3.014c-2.773 0-4.496 2.089-4.496 4.315 0 1.405.364 2.775.992 3.941h-9.808v-12.091a2.197 2.197 0 00-4.395 0v12.091h-4.465a.514.514 0 01-.514-.514v-15.093z" fill="#434190"/>
    <path d="M102.668 176.298a12.086 12.086 0 00-3.563 8.603c0 6.724 5.441 12.166 12.166 12.166 6.725 0 12.166-5.441 12.166-12.166.001-10.796-13.124-16.248-20.769-8.603zm16.375 8.603a7.768 7.768 0 01-7.772 7.772 7.767 7.767 0 01-7.771-7.772c0-4.324 3.502-7.769 7.772-7.769a7.765 7.765 0 017.771 7.769z" fill="#3C366B"/>
    <path d="M95.908 234h55.629c4.596 0 8.335-3.74 8.335-8.336a4.32 4.32 0 00-4.315-4.315h-.182a7.368 7.368 0 00.643-3.015v-18.252c0-4.086-3.323-7.409-7.409-7.409h-23.761c-4.085 0-7.409 3.323-7.409 7.409v.947h-13.47c-7.151 0-12.969 5.817-12.969 12.969v15.094A4.914 4.914 0 0095.908 234zm25.925-30.721v-3.197a3.019 3.019 0 013.015-3.015h23.761a3.018 3.018 0 013.014 3.015v18.253a3.017 3.017 0 01-3.014 3.014h-23.761a3.018 3.018 0 01-3.015-3.014v-15.056zm33.644 22.464a3.946 3.946 0 01-3.94 3.862h-29.616a3.946 3.946 0 01-3.941-3.862h37.497zm-60.083-11.745c0-4.728 3.847-8.574 8.575-8.574h13.47v12.91c0 1.067.24 2.116.641 3.015-2.768 0-4.496 2.085-4.496 4.315 0 1.4.363 2.774.992 3.941h-9.807v-12.091a2.197 2.197 0 00-4.395 0v12.091h-4.466a.514.514 0 01-.514-.514v-15.093z" fill="#434190"/>
    <path d="M180.232 184.901c0 6.768 5.483 12.161 12.167 12.161 10.805 0 16.246-13.12 8.603-20.764-7.651-7.651-20.77-2.187-20.77 8.603zm17.662 5.495c-4.887 4.888-13.267 1.397-13.267-5.495 0-4.322 3.501-7.768 7.772-7.768 1.99 0 3.98.757 5.495 2.272 3.031 3.03 3.031 7.961 0 10.991z" fill="#3C366B"/>
    <path d="M175.723 118.276a2.197 2.197 0 100 4.395h3.139a2.198 2.198 0 100-4.395h-3.139z" fill="#7F9CF5"/>
    <path d="M219.425 207.011h-3.139a2.197 2.197 0 100 4.394h3.139a2.197 2.197 0 100-4.394z" fill="#F6E05E"/>
    <path d="M136.128 211.405h3.139a2.196 2.196 0 100-4.394h-3.139a2.196 2.196 0 100 4.394z" fill="#FC8181"/>
    <path d="M232.664 229.605h-9.681a2.197 2.197 0 100 4.395h9.681c4.596 0 8.336-3.74 8.336-8.336 0-2.194-1.687-4.315-4.498-4.315a7.369 7.369 0 00.644-3.015v-18.252c0-4.086-3.324-7.409-7.409-7.409h-23.761c-4.086 0-7.409 3.323-7.409 7.409v.947h-13.471c-7.151 0-12.968 5.817-12.968 12.968v15.094a4.914 4.914 0 004.908 4.909h35.693a2.198 2.198 0 100-4.395h-9.681a3.946 3.946 0 01-3.94-3.862h37.497a3.946 3.946 0 01-3.941 3.862zm-37.952-3.941c0 1.394.36 2.77.992 3.941h-9.808v-12.091a2.196 2.196 0 10-4.394 0v12.091h-4.466a.514.514 0 01-.514-.514v-15.094c0-4.727 3.846-8.574 8.574-8.574h13.47v12.911c0 1.07.239 2.113.641 3.014-2.767.001-4.495 2.086-4.495 4.316zm38.039-7.33a3.018 3.018 0 01-3.014 3.015h-23.761a3.018 3.018 0 01-3.015-3.015v-18.252a3.018 3.018 0 013.015-3.015h23.761a3.018 3.018 0 013.014 3.015v18.252z" fill="#434190"/>
    <path d="M145.56 64.124v-3.348h5.952v3.348h-5.952zm5.952-7.464v3.24h-5.952v-3.24h5.952zm-6.852-.876v9.996h.9V65h5.952v.732h.936v-9.948h-7.788zm21.048 2.58v-.888h-4.752v-2.508h-.924v2.508h-4.716v.888h4.164c-1.008 2.052-2.748 3.996-4.572 4.944.204.168.504.504.636.72 1.764-1.02 3.384-2.832 4.488-4.908v3.672h-2.34v.888h2.34v2.232h.924V63.68h2.28v-.888h-2.28V59.12c1.08 2.076 2.688 3.9 4.5 4.896.132-.252.444-.6.66-.78-1.884-.912-3.612-2.82-4.608-4.872h4.2z" fill="#2D3748"/>
  </g>
  <defs>
    <filter id="filter0_d" x="0" y="0" width="318" height="318" filterUnits="userSpaceOnUse" color-interpolation-filters="sRGB">
      <feFlood flood-opacity="0" result="BackgroundImageFix"/>
      <feColorMatrix in="SourceAlpha" values="0 0 0 0 0 0 0 0 0 0 0 0 0 0 0 0 0 0 127 0"/>
      <feOffset dy="2"/>
      <feGaussianBlur stdDeviation="2"/>
      <feColorMatrix values="0 0 0 0 0 0 0 0 0 0 0 0 0 0 0 0 0 0 0.25 0"/>
      <feBlend in2="BackgroundImageFix" result="effect1_dropShadow"/>
      <feBlend in="SourceGraphic" in2="effect1_dropShadow" result="shape"/>
    </filter>
  </defs>
</svg>
