<svg viewBox="0 0 100 100" fill="none" xmlns="http://www.w3.org/2000/svg">
  <path d="M85.352 25.195h-2.735V14.648C82.617 6.571 76.046 0 67.97 0H32.03c-8.077 0-14.648 6.571-14.648 14.648v10.547h-2.735C6.571 25.195 0 31.767 0 39.844V63.28C0 71.358 6.571 77.93 14.648 77.93h2.735v13.28c0 4.847 3.943 8.79 8.789 8.79h47.656c4.846 0 8.79-3.943 8.79-8.79V77.93h2.734C93.429 77.93 100 71.358 100 63.28V39.844c0-8.077-6.571-14.649-14.648-14.649zm-62.11-10.547c0-4.846 3.943-8.789 8.79-8.789h35.937c4.846 0 8.789 3.943 8.789 8.79v10.546H23.242V14.648zm53.516 76.563a2.933 2.933 0 01-2.93 2.93H26.172a2.933 2.933 0 01-2.93-2.93V62.305h53.516V91.21zM94.14 63.28c0 4.846-3.943 8.79-8.79 8.79h-2.734v-9.766h1.758a2.93 2.93 0 000-5.86h-68.75a2.93 2.93 0 000 5.86h1.758v9.765h-2.735c-4.846 0-8.789-3.942-8.789-8.789V39.844c0-4.846 3.943-8.79 8.79-8.79h70.703c4.846 0 8.789 3.944 8.789 8.79V63.28z" fill="#000"/>
  <path d="M57.813 68.945H42.187a2.93 2.93 0 000 5.86h15.626a2.93 2.93 0 000-5.86zM57.813 81.445H42.187a2.93 2.93 0 000 5.86h15.626a2.93 2.93 0 000-5.86zM25 37.695h-9.375a2.93 2.93 0 000 5.86H25a2.93 2.93 0 000-5.86z" fill="#6C63FF"/>
</svg>
