<svg viewBox="0 0 176 185" fill="none" xmlns="http://www.w3.org/2000/svg">
  <path d="M158.038 18.61h-32.75V5.587c0-1.59 1.488-2.878 3.323-2.878h26.104c1.835 0 3.323 1.289 3.323 2.878V18.61z" fill="#365E7D"/>
  <path d="M140.765 182.29H8.16c-2.779 0-5.03-1.951-5.03-4.357V30.592c0-2.407 2.252-4.357 5.03-4.357h132.605c2.778 0 5.03 1.95 5.03 4.357v147.341c0 2.406-2.252 4.357-5.03 4.357z" fill="#FFF6F4"/>
  <path d="M140.765 26.235h-8.481c2.778 0 5.03 1.95 5.03 4.356v147.342c0 2.406-2.252 4.357-5.03 4.357h8.481c2.778 0 5.03-1.951 5.03-4.357V30.592c0-2.407-2.252-4.357-5.03-4.357z" fill="#D8E2F1"/>
  <path d="M40.926 77.688c4.453 0 8.063-3.127 8.063-6.984s-3.61-6.984-8.063-6.984c-4.454 0-8.064 3.127-8.064 6.984s3.61 6.984 8.064 6.984zM74.462 77.688c4.454 0 8.064-3.127 8.064-6.984s-3.61-6.984-8.064-6.984c-4.453 0-8.064 3.127-8.064 6.984s3.61 6.984 8.064 6.984z" fill="#DD636E"/>
  <path d="M107.999 77.688c4.454 0 8.064-3.127 8.064-6.984s-3.61-6.984-8.064-6.984c-4.454 0-8.064 3.127-8.064 6.984s3.61 6.984 8.064 6.984zM40.926 124.039c4.453 0 8.063-3.127 8.063-6.984s-3.61-6.984-8.063-6.984c-4.454 0-8.064 3.127-8.064 6.984s3.61 6.984 8.064 6.984z" fill="#365E7D"/>
  <path d="M74.462 124.039c4.454 0 8.064-3.127 8.064-6.984s-3.61-6.984-8.064-6.984c-4.453 0-8.064 3.127-8.064 6.984s3.61 6.984 8.064 6.984zM107.999 124.039c4.454 0 8.064-3.127 8.064-6.984s-3.61-6.984-8.064-6.984c-4.454 0-8.064 3.127-8.064 6.984s3.61 6.984 8.064 6.984z" fill="#DD636E"/>
  <path d="M40.926 170.391c4.453 0 8.063-3.127 8.063-6.984 0-3.858-3.61-6.984-8.063-6.984-4.454 0-8.064 3.126-8.064 6.984 0 3.857 3.61 6.984 8.064 6.984z" fill="#365E7D"/>
  <path d="M74.462 170.391c4.454 0 8.064-3.127 8.064-6.984s-3.61-6.984-8.064-6.984c-4.453 0-8.064 3.127-8.064 6.984s3.61 6.984 8.064 6.984zM107.999 170.391c4.454 0 8.064-3.127 8.064-6.984 0-3.858-3.61-6.984-8.064-6.984-4.454 0-8.064 3.126-8.064 6.984 0 3.857 3.61 6.984 8.064 6.984z" fill="#DD636E"/>
  <path d="M141.663 65.68c17.004 0 30.788-11.938 30.788-26.665 0-14.727-13.784-26.666-30.788-26.666-17.003 0-30.788 11.939-30.788 26.666S124.66 65.68 141.663 65.68z" fill="#F6E266"/>
  <path d="M141.663 12.35c-1.632 0-3.234.112-4.798.324 14.725 1.996 25.99 13.028 25.99 26.34 0 13.314-11.265 24.346-25.99 26.342 1.564.212 3.166.324 4.798.324 17.004 0 30.788-11.939 30.788-26.665 0-14.727-13.784-26.666-30.788-26.666z" fill="#ECBE6B"/>
  <path d="M52.119 70.704c0-5.345-5.022-9.694-11.193-9.694-6.172 0-11.193 4.349-11.193 9.694 0 5.346 5.02 9.694 11.193 9.694 6.171 0 11.193-4.348 11.193-9.694zm-16.129 0c0-2.357 2.214-4.274 4.935-4.274 2.722 0 4.936 1.917 4.936 4.274s-2.214 4.274-4.936 4.274c-2.72 0-4.935-1.917-4.935-4.274zM85.655 70.704c0-5.345-5.021-9.694-11.193-9.694S63.27 65.359 63.27 70.704c0 5.346 5.021 9.694 11.193 9.694s11.193-4.348 11.193-9.694zm-16.128 0c0-2.357 2.214-4.274 4.935-4.274 2.721 0 4.935 1.917 4.935 4.274s-2.214 4.274-4.935 4.274c-2.72 0-4.935-1.917-4.935-4.274zM119.192 70.704c0-5.345-5.021-9.694-11.193-9.694s-11.193 4.349-11.193 9.694c0 5.346 5.021 9.694 11.193 9.694s11.193-4.348 11.193-9.694zm-16.128 0c0-2.357 2.214-4.274 4.935-4.274 2.721 0 4.935 1.917 4.935 4.274s-2.214 4.274-4.935 4.274c-2.722 0-4.935-1.917-4.935-4.274zM25.219 93.88c0 1.497 1.4 2.71 3.129 2.71h92.228c1.729 0 3.129-1.213 3.129-2.71 0-1.497-1.4-2.71-3.129-2.71H28.348c-1.728 0-3.129 1.213-3.129 2.71zM29.733 117.055c0 5.346 5.02 9.694 11.192 9.694 6.172 0 11.193-4.348 11.193-9.694 0-5.345-5.02-9.694-11.193-9.694-6.172 0-11.192 4.349-11.192 9.694zm16.128 0c0 2.357-2.214 4.275-4.935 4.275-2.721 0-4.935-1.918-4.935-4.275 0-2.356 2.214-4.274 4.935-4.274 2.721 0 4.935 1.918 4.935 4.274zM63.27 117.055c0 5.346 5.02 9.694 11.192 9.694 6.172 0 11.193-4.348 11.193-9.694 0-5.345-5.021-9.694-11.193-9.694s-11.193 4.349-11.193 9.694zm16.127 0c0 2.357-2.214 4.275-4.935 4.275-2.72 0-4.935-1.918-4.935-4.275 0-2.356 2.214-4.274 4.935-4.274 2.721 0 4.935 1.918 4.935 4.274zM96.806 117.055c0 5.346 5.021 9.694 11.193 9.694s11.193-4.348 11.193-9.694c0-5.345-5.021-9.694-11.193-9.694s-11.193 4.349-11.193 9.694zm16.128 0c0 2.357-2.214 4.275-4.935 4.275-2.721 0-4.935-1.918-4.935-4.275 0-2.356 2.214-4.274 4.935-4.274 2.721 0 4.935 1.918 4.935 4.274zM123.705 140.231c0-1.497-1.4-2.71-3.129-2.71H28.348c-1.729 0-3.129 1.213-3.129 2.71 0 1.497 1.4 2.71 3.129 2.71h92.228c1.729 0 3.129-1.213 3.129-2.71zM40.926 173.101c6.171 0 11.193-4.349 11.193-9.695 0-5.345-5.022-9.694-11.193-9.694-6.172 0-11.193 4.349-11.193 9.694 0 5.346 5.02 9.695 11.193 9.695zm0-13.969c2.72 0 4.935 1.918 4.935 4.274 0 2.357-2.214 4.275-4.935 4.275-2.721 0-4.935-1.918-4.935-4.275 0-2.356 2.213-4.274 4.935-4.274zM63.27 163.406c0 5.346 5.02 9.695 11.192 9.695 6.172 0 11.193-4.349 11.193-9.695 0-5.345-5.021-9.694-11.193-9.694s-11.193 4.349-11.193 9.694zm16.127 0c0 2.357-2.214 4.275-4.935 4.275-2.72 0-4.935-1.918-4.935-4.275 0-2.356 2.214-4.274 4.935-4.274 2.721 0 4.935 1.918 4.935 4.274zM96.806 163.406c0 5.346 5.021 9.695 11.193 9.695s11.193-4.349 11.193-9.695c0-5.345-5.021-9.694-11.193-9.694s-11.193 4.349-11.193 9.694zm16.128 0c0 2.357-2.214 4.275-4.935 4.275-2.721 0-4.935-1.918-4.935-4.275 0-2.356 2.214-4.274 4.935-4.274 2.721 0 4.935 1.918 4.935 4.274zM141.663 24.944c1.728 0 3.129-1.213 3.129-2.71V20.66c0-1.497-1.401-2.71-3.129-2.71s-3.129 1.213-3.129 2.71v1.573c0 1.497 1.401 2.71 3.129 2.71zM161.038 36.305c-1.728 0-3.128 1.213-3.128 2.71 0 1.497 1.4 2.71 3.128 2.71h1.817c1.728 0 3.129-1.213 3.129-2.71 0-1.497-1.401-2.71-3.129-2.71h-1.817zM138.534 55.796v1.573c0 1.497 1.401 2.71 3.129 2.71s3.129-1.213 3.129-2.71v-1.573c0-1.497-1.401-2.71-3.129-2.71s-3.129 1.213-3.129 2.71zM120.471 36.305c-1.729 0-3.129 1.213-3.129 2.71 0 1.497 1.4 2.71 3.129 2.71h1.816c1.729 0 3.129-1.213 3.129-2.71 0-1.497-1.4-2.71-3.129-2.71h-1.816zM150.789 39.015c0-1.497-1.401-2.71-3.129-2.71h-2.868v-6.163c0-1.497-1.401-2.71-3.129-2.71s-3.129 1.213-3.129 2.71v8.873c0 1.497 1.401 2.71 3.129 2.71h5.997c1.728 0 3.129-1.213 3.129-2.71z" fill="#000"/>
  <path d="M161.167 15.005V5.588c0-3.081-2.894-5.588-6.452-5.588h-26.104c-3.557 0-6.452 2.507-6.452 5.588v9.416c-3.717 2.272-6.885 5.17-9.296 8.52H8.159C3.66 23.525 0 26.695 0 30.593v147.341C0 181.829 3.66 185 8.16 185h13.932c1.729 0 3.13-1.213 3.13-2.71 0-1.497-1.401-2.71-3.13-2.71H8.16c-1.048 0-1.901-.739-1.901-1.647V30.592c0-.909.853-1.647 1.901-1.647H109.8a25.773 25.773 0 00-2.054 10.07c0 1.986.232 3.926.668 5.803H28.348c-1.729 0-3.129 1.213-3.129 2.71 0 1.497 1.4 2.71 3.129 2.71h81.977c5.297 11.054 18.006 18.508 32.342 18.138v109.557c0 .908-.853 1.647-1.902 1.647H34.603c-1.729 0-3.13 1.213-3.13 2.71 0 1.497 1.401 2.71 3.13 2.71h106.162c4.499 0 8.16-3.17 8.16-7.067V67.707c7.019-1.335 13.44-4.585 18.263-9.359 1.138-1.126 1.007-2.838-.294-3.824-1.3-.985-3.277-.871-4.415.255-5.26 5.205-12.848 8.191-20.816 8.191-15.251 0-27.659-10.746-27.659-23.955 0-13.21 12.408-23.956 27.659-23.956s27.659 10.746 27.659 23.956c0 2.481-.44 4.933-1.308 7.288-.525 1.426.384 2.95 2.03 3.406 1.644.453 3.407-.333 3.932-1.759a25.773 25.773 0 001.604-8.935c0-9.913-5.705-18.688-14.413-24.01zm-32.75-3.031V5.588c0-.093.087-.168.194-.168h26.104c.107 0 .194.075.194.168v6.386c-4.072-1.502-8.548-2.334-13.246-2.334-4.697 0-9.174.832-13.246 2.334z" fill="#000"/>
</svg>
