<svg viewBox="0 0 110 110" fill="none" xmlns="http://www.w3.org/2000/svg">
  <path d="M52.637 109.033c29.07 0 52.636-23.566 52.636-52.636 0-29.071-23.566-52.637-52.636-52.637C23.567 3.76 0 27.326 0 56.397c0 29.07 23.566 52.636 52.637 52.636z" fill="#91E0E8"/>
  <path d="M12.246 34.339H4.835A52.434 52.434 0 000 56.397c0 .935.025 1.864.073 2.788h12.173V34.339z" fill="#445EA0"/>
  <path d="M89.241 72.778h-4.618v17.375h4.618a2.155 2.155 0 002.149-2.148V74.927a2.155 2.155 0 00-2.149-2.149z" fill="#293D7C"/>
  <path d="M60.523 71.97v18.991l17.775 10.606V61.365L60.523 71.97z" fill="#EEF6FF"/>
  <path d="M84.838 104.965c0 .591-.484 1.074-1.075 1.074h-4.606c-.59 0-1.074-.483-1.074-1.074V57.966c0-.59.483-1.074 1.074-1.074h4.606c.591 0 1.075.483 1.075 1.074v46.999z" fill="#FE3745"/>
  <path d="M81.773 104.965V57.966c0-.59.483-1.074 1.074-1.074h-3.69c-.59 0-1.074.483-1.074 1.074v46.999c0 .591.483 1.075 1.074 1.075h3.69a1.079 1.079 0 01-1.074-1.075z" fill="#B7092B"/>
  <path d="M41.017 73.509h-4.98c-.59 0-1.074.483-1.074 1.074v13.765c0 .59.483 1.074 1.074 1.074h4.98V73.51z" fill="#EEF6FF"/>
  <path d="M38.08 88.348V74.584c0-.591.484-1.075 1.075-1.075h-3.118c-.59 0-1.074.484-1.074 1.075v13.764c0 .59.483 1.074 1.074 1.074h3.118c-.591 0-1.075-.483-1.075-1.074z" fill="#D9EAFC"/>
  <path d="M60.738 91.064c0 .591-.483 1.075-1.074 1.075H41.877c-.59 0-1.074-.484-1.074-1.075V71.867c0-.591.483-1.075 1.074-1.075h17.787c.59 0 1.074.484 1.074 1.075v19.197z" fill="#FE3745"/>
  <path d="M45.066 91.064V71.867c0-.591.483-1.075 1.074-1.075h-4.263c-.59 0-1.074.484-1.074 1.075v19.197c0 .591.483 1.075 1.074 1.075h4.263c-.59 0-1.074-.484-1.074-1.075z" fill="#B7092B"/>
  <path d="M104.097 18.292c0-.59-.483-1.074-1.074-1.074H73.707c-.59 0-1.074.483-1.074 1.074v20.4c0 .591.484 1.075 1.075 1.075h8.849c.59 0 1.363.387 1.717.86l3.448 4.613c.354.473.933.473 1.287 0l3.447-4.613c.354-.473 1.127-.86 1.718-.86h8.849c.591 0 1.074-.484 1.074-1.074V18.292z" fill="#52BBEF"/>
  <path d="M76.896 38.693V18.292c0-.59.484-1.074 1.075-1.074h-4.264c-.59 0-1.074.483-1.074 1.074v20.4c0 .592.484 1.075 1.075 1.075h4.263c-.591 0-1.075-.483-1.075-1.074z" fill="#1E99D6"/>
  <path d="M97.57 25.188H79.16a1.611 1.611 0 110-3.222H97.57a1.611 1.611 0 110 3.222zM97.57 30.184H79.16a1.611 1.611 0 110-3.223H97.57a1.611 1.611 0 110 3.223zM88.402 35.18h-9.24a1.611 1.611 0 110-3.224h9.24a1.611 1.611 0 110 3.223z" fill="#fff"/>
  <path d="M57.58 24.86c6.598 0 11.947-5.348 11.947-11.946S64.178.968 57.58.968c-6.598 0-11.946 5.348-11.946 11.946s5.348 11.947 11.946 11.947z" fill="#FE3745"/>
  <path d="M49.896 12.913c0-5.87 4.235-10.747 9.815-11.753A11.995 11.995 0 0057.58.967c-6.597 0-11.946 5.349-11.946 11.946 0 6.598 5.349 11.947 11.946 11.947.728 0 1.44-.069 2.132-.194-5.58-1.005-9.815-5.883-9.815-11.753z" fill="#B7092B"/>
  <path d="M57.558 19.49a.72.72 0 01-.514-.215l-5.643-5.69a3.63 3.63 0 01-1.055-2.573c0-.972.374-1.885 1.055-2.572a3.568 3.568 0 012.55-1.065 3.57 3.57 0 012.552 1.065l1.076 1.086 1.077-1.086a3.566 3.566 0 012.55-1.065c.964 0 1.87.378 2.551 1.065a3.628 3.628 0 011.057 2.572 3.63 3.63 0 01-1.057 2.573l-5.688 5.692a.718.718 0 01-.51.213z" fill="#fff"/>
  <path d="M16.58 79.154a.608.608 0 01-.434-.181l-4.763-4.803a3.063 3.063 0 01-.891-2.171c0-.82.316-1.592.89-2.171a3.01 3.01 0 012.154-.9c.813 0 1.577.32 2.153.9l.908.916.91-.916a3.01 3.01 0 012.152-.9c.814 0 1.578.32 2.153.9.575.58.892 1.35.892 2.17 0 .82-.317 1.591-.892 2.172l-4.8 4.805a.605.605 0 01-.432.179z" fill="#FE3745"/>
  <path d="M13.784 73.167a3.063 3.063 0 01-.89-2.171c0-.77.281-1.495.79-2.06-.049-.003-.098-.008-.148-.008a3.01 3.01 0 00-2.153.9c-.575.578-.89 1.35-.89 2.17 0 .82.316 1.592.89 2.171l4.763 4.804a.608.608 0 00.866.001l1.27-1.271-4.498-4.536z" fill="#B7092B"/>
  <path d="M39.998 60.637V57.67a3.011 3.011 0 013.008-3.008h.695a.215.215 0 100-.43 3.011 3.011 0 01-3.008-3.007V48.26a3.011 3.011 0 013.008-3.008.215.215 0 100-.43 3.011 3.011 0 01-3.008-3.007v-2.966a3.011 3.011 0 013.008-3.008.215.215 0 100-.43h-1.328a3.011 3.011 0 01-3.007-3.007v-2.966c0-1.473 1.065-2.7 2.466-2.957V14.936a3.232 3.232 0 00-3.223-3.223h-5.012c-1.773 0-3.419 1.437-3.658 3.194l-2.02 14.815c-.238 1.75-1.502 3.181-2.812 3.192v27.93h14.901c-.004-.069-.01-.137-.01-.207z" fill="#FFE2B8"/>
  <path d="M38.61 11.713h-5.013c-1.773 0-3.419 1.437-3.658 3.194l-2.02 14.815c-.238 1.75-1.501 3.181-2.812 3.192v4.264h4.248c1.316 0 2.588-1.437 2.828-3.193l2.019-14.815c.24-1.757 1.885-3.193 3.658-3.193h3.972v-1.041a3.232 3.232 0 00-3.223-3.223z" fill="#FFC987"/>
  <path d="M43.006 63.86a3.232 3.232 0 01-3.223-3.223V57.67a3.232 3.232 0 013.223-3.222h17.477a3.232 3.232 0 013.223 3.222v2.966a3.232 3.232 0 01-3.223 3.222H43.006z" fill="#FFE2B8"/>
  <path d="M13.105 64.341c-.59 0-1.074-.483-1.074-1.074v-33.01c0-.591.484-1.075 1.074-1.075h11.143c.59 0 1.074.484 1.074 1.074v33.01c0 .591-.483 1.075-1.074 1.075H13.105z" fill="#293D7C"/>
  <path d="M16.294 63.267v-33.01c0-.591.484-1.075 1.075-1.075h-4.264c-.59 0-1.074.484-1.074 1.074v33.01c0 .591.484 1.075 1.074 1.075h4.264c-.591 0-1.075-.483-1.075-1.074z" fill="#1A2B63"/>
  <path d="M18.676 37.32a2.876 2.876 0 100-5.752 2.876 2.876 0 000 5.752z" fill="#AEC1ED"/>
  <path d="M42.374 35.627a3.232 3.232 0 01-3.223-3.223v-2.966a3.232 3.232 0 013.223-3.223h18.11a3.232 3.232 0 013.222 3.223v2.966a3.232 3.232 0 01-3.223 3.223h-18.11zM43.7 45.038a3.232 3.232 0 01-3.222-3.223V38.85a3.232 3.232 0 013.223-3.222h17.567a3.232 3.232 0 013.222 3.222v2.966a3.232 3.232 0 01-3.222 3.223H43.7z" fill="#FFE2B8"/>
  <path d="M43.7 54.449a3.232 3.232 0 01-3.222-3.223v-2.965a3.232 3.232 0 013.223-3.223h17.567a3.232 3.232 0 013.222 3.223v2.965a3.232 3.232 0 01-3.222 3.223H43.7z" fill="#FFE2B8"/>
  <path d="M46.323 60.542a3.232 3.232 0 01-3.223-3.223v-2.87h-.094a3.232 3.232 0 00-3.223 3.222v2.966a3.232 3.232 0 003.223 3.222h17.477a3.232 3.232 0 003.223-3.222v-.095H46.323zM45.691 32.31a3.232 3.232 0 01-3.223-3.223v-2.871h-.094a3.232 3.232 0 00-3.223 3.222v2.966a3.232 3.232 0 003.223 3.223h18.11a3.232 3.232 0 003.222-3.223v-.095H45.69z" fill="#FFC987"/>
  <path d="M47.019 41.72a3.232 3.232 0 01-3.223-3.222v-2.871H43.7a3.232 3.232 0 00-3.223 3.222v2.966a3.232 3.232 0 003.223 3.223h17.567a3.232 3.232 0 003.222-3.223v-.094H47.02zM47.019 51.131a3.232 3.232 0 01-3.223-3.223v-2.87H43.7a3.232 3.232 0 00-3.223 3.223v2.965a3.232 3.232 0 003.223 3.223h17.567a3.232 3.232 0 003.222-3.223v-.095H47.02z" fill="#FFC987"/>
  <path d="M26.207 83.713H6.988a.43.43 0 00-.427.43v12.331a.43.43 0 00.427.43h19.22a.43.43 0 00.427-.43V84.142a.43.43 0 00-.428-.429z" fill="#FFAF10"/>
  <path d="M10.824 96.474v-9.393l-4.16-3.215a.43.43 0 01-.103.276v12.332a.43.43 0 00.427.429h4.263a.429.429 0 01-.427-.429z" fill="#EF9614"/>
  <path d="M26.207 83.713H6.988c-.13 0-.246.06-.324.153l9.595 7.416c.187.144.491.144.677 0l9.596-7.416a.423.423 0 00-.325-.153z" fill="#FFD00D"/>
  <path d="M109.573 49.877h-19.22a.43.43 0 00-.426.429v12.332a.43.43 0 00.427.429h19.219a.43.43 0 00.427-.43V50.307a.43.43 0 00-.427-.43z" fill="#FFAF10"/>
  <path d="M94.19 62.638v-9.393l-4.16-3.215a.43.43 0 01-.103.276v12.332a.43.43 0 00.427.429h4.263a.43.43 0 01-.428-.43z" fill="#EF9614"/>
  <path d="M109.573 49.877h-19.22c-.13 0-.245.06-.324.153l9.596 7.416a.585.585 0 00.677 0l9.595-7.416a.425.425 0 00-.324-.153z" fill="#FFD00D"/>
</svg>
