<svg viewBox="0 0 318 318" fill="none" xmlns="http://www.w3.org/2000/svg">
  <g filter="url(#filter0_d)">
    <circle cx="159" cy="157" r="155" fill="#F7FAFC"/>
    <path d="M157.359 154.092h4.871v4.218h-4.871v-4.218z" fill="#434190"/>
    <path d="M157.359 162.529h4.871v4.219h-4.871v-4.219z" fill="#4C51BF"/>
    <path d="M157.359 170.967h4.871v4.219h-4.871v-4.219z" fill="#5A67D8"/>
    <path d="M157.359 179.404h4.871v4.219h-4.871v-4.219z" fill="#667EEA"/>
    <path d="M157.359 187.842h4.871v4.218h-4.871v-4.218z" fill="#7F9CF5"/>
    <path d="M162.055 231.348c6.895 0 12.504-4.858 12.504-10.83 0-5.971-5.609-10.829-12.504-10.829-6.894 0-12.503 4.858-12.503 10.829 0 5.972 5.609 10.83 12.503 10.83zm0-17.925c4.518 0 8.193 3.183 8.193 7.095 0 3.913-3.675 7.096-8.193 7.096-4.517 0-8.192-3.183-8.192-7.096 0-3.912 3.675-7.095 8.192-7.095zM187.351 231.348c4.358 0 7.904-3.071 7.904-6.846s-3.546-6.846-7.904-6.846c-4.359 0-7.905 3.071-7.905 6.846s3.546 6.846 7.905 6.846zm0-9.958c1.981 0 3.593 1.396 3.593 3.112 0 1.716-1.612 3.112-3.593 3.112-1.982 0-3.593-1.396-3.593-3.112 0-1.716 1.611-3.112 3.593-3.112z" fill="#3C366B"/>
    <path d="M189.09 235.58h-3.335c-3.929 0-7.321 2.011-8.866 4.899-3.182-3.009-7.753-4.899-12.824-4.899h-4.018c-5.071 0-9.642 1.89-12.824 4.899-1.546-2.888-4.938-4.899-8.867-4.899h-3.335c-5.381 0-9.758 3.769-9.758 8.401v13.595c0 2.011 1.896 3.647 4.227 3.647h13.183c.221 2.228 2.384 3.983 5.014 3.983h28.738c2.629 0 4.792-1.755 5.013-3.983h13.033c2.414 0 4.378-1.694 4.378-3.777v-13.465c0-4.632-4.378-8.401-9.759-8.401zm-59.516 8.401c0-2.573 2.444-4.666 5.447-4.666h3.335c3.003 0 5.447 2.093 5.447 4.666v1.279c-1.45 3.269-1.15 5.228-1.15 12.229h-13.079v-13.508zm47.572 16.866c0 .344-.323.625-.721.625h-28.739c-.398 0-.721-.281-.721-.625v-10.202c0-6.248 5.868-11.33 13.082-11.33h4.018c7.213 0 13.081 5.082 13.081 11.33v10.202zm17.391-3.401c0 .065.804.043-13.079.043 0-7.052.298-8.965-1.15-12.229v-1.279c0-2.573 2.444-4.666 5.447-4.666h3.335c3.003 0 5.447 2.093 5.447 4.666v13.465z" fill="#434190"/>
    <path d="M136.76 231.348c4.359 0 7.905-3.071 7.905-6.846s-3.546-6.846-7.905-6.846c-4.358 0-7.904 3.071-7.904 6.846s3.546 6.846 7.904 6.846zm0-9.958c1.982 0 3.593 1.396 3.593 3.112 0 1.716-1.611 3.112-3.593 3.112-1.981 0-3.593-1.396-3.593-3.112 0-1.716 1.612-3.112 3.593-3.112z" fill="#3C366B"/>
    <path d="M197.113 67.042h-32.981V50.503c0-.83-.777-1.503-1.736-1.503h-41.66c-.959 0-1.736.673-1.736 1.503v73.968c0 .831.777 1.504 1.736 1.504h76.377c.958 0 1.735-.673 1.735-1.504V68.545c0-.83-.777-1.503-1.735-1.503zm-32.981 3.007h31.245v37.885h-31.245V70.049zm-27.774 52.919v-12.027h10.415v12.027h-10.415zm12.151-15.034h-13.886c-.959 0-1.736.673-1.736 1.503v13.531h-10.415V52.007h38.188v70.961h-10.415v-13.531c0-.83-.777-1.503-1.736-1.503zm15.623 15.034v-12.027h31.245v12.027h-31.245z" fill="#434190"/>
    <path d="M139.83 61.028h3.471c.959 0 1.736-.674 1.736-1.504v-3.007c0-.83-.777-1.503-1.736-1.503h-3.471c-.959 0-1.736.673-1.736 1.503v3.007c0 .83.777 1.504 1.736 1.504zM139.83 71.552h3.471c.959 0 1.736-.674 1.736-1.504v-3.007c0-.83-.777-1.503-1.736-1.503h-3.471c-.959 0-1.736.673-1.736 1.503v3.007c0 .83.777 1.504 1.736 1.504zM139.83 82.075h3.471c.959 0 1.736-.673 1.736-1.503v-3.007c0-.83-.777-1.503-1.736-1.503h-3.471c-.959 0-1.736.673-1.736 1.503v3.007c0 .83.777 1.503 1.736 1.503zM139.83 92.6h3.471c.959 0 1.736-.674 1.736-1.504v-3.007c0-.83-.777-1.503-1.736-1.503h-3.471c-.959 0-1.736.673-1.736 1.503v3.007c0 .83.777 1.503 1.736 1.503zM139.83 103.123h3.471c.959 0 1.736-.673 1.736-1.503v-3.007c0-.83-.777-1.504-1.736-1.504h-3.471c-.959 0-1.736.674-1.736 1.504v3.007c0 .83.777 1.503 1.736 1.503zM127.679 61.028h3.471c.959 0 1.736-.674 1.736-1.504v-3.007c0-.83-.777-1.503-1.736-1.503h-3.471c-.959 0-1.736.673-1.736 1.503v3.007c0 .83.777 1.504 1.736 1.504zM127.679 71.552h3.471c.959 0 1.736-.674 1.736-1.504v-3.007c0-.83-.777-1.503-1.736-1.503h-3.471c-.959 0-1.736.673-1.736 1.503v3.007c0 .83.777 1.504 1.736 1.504zM127.679 82.075h3.471c.959 0 1.736-.673 1.736-1.503v-3.007c0-.83-.777-1.503-1.736-1.503h-3.471c-.959 0-1.736.673-1.736 1.503v3.007c0 .83.777 1.503 1.736 1.503zM127.679 92.6h3.471c.959 0 1.736-.674 1.736-1.504v-3.007c0-.83-.777-1.503-1.736-1.503h-3.471c-.959 0-1.736.673-1.736 1.503v3.007c0 .83.777 1.503 1.736 1.503zM127.679 103.123h3.471c.959 0 1.736-.673 1.736-1.503v-3.007c0-.83-.777-1.504-1.736-1.504h-3.471c-.959 0-1.736.674-1.736 1.504v3.007c0 .83.777 1.503 1.736 1.503zM155.452 55.014h-3.471c-.959 0-1.736.673-1.736 1.503v3.007c0 .83.777 1.504 1.736 1.504h3.471c.959 0 1.736-.674 1.736-1.504v-3.007c0-.83-.777-1.503-1.736-1.503zM155.452 65.538h-3.471c-.959 0-1.736.673-1.736 1.503v3.007c0 .83.777 1.503 1.736 1.503h3.471c.959 0 1.736-.673 1.736-1.503v-3.007c0-.83-.777-1.503-1.736-1.503zM155.452 76.061h-3.471c-.959 0-1.736.674-1.736 1.504v3.007c0 .83.777 1.503 1.736 1.503h3.471c.959 0 1.736-.673 1.736-1.503v-3.007c0-.83-.777-1.504-1.736-1.504zM155.452 86.586h-3.471c-.959 0-1.736.673-1.736 1.503v3.007c0 .83.777 1.503 1.736 1.503h3.471c.959 0 1.736-.673 1.736-1.503v-3.007c0-.83-.777-1.503-1.736-1.503zM155.452 97.11h-3.471c-.959 0-1.736.672-1.736 1.503v3.007c0 .83.777 1.503 1.736 1.503h3.471c.959 0 1.736-.673 1.736-1.503v-3.007c0-.83-.777-1.504-1.736-1.504zM187.565 76.061h-3.471c-.959 0-1.736.674-1.736 1.504v3.007c0 .83.777 1.503 1.736 1.503h3.471c.959 0 1.736-.673 1.736-1.503v-3.007c0-.83-.777-1.504-1.736-1.504zM187.565 86.586h-3.471c-.959 0-1.736.673-1.736 1.503v3.007c0 .83.777 1.503 1.736 1.503h3.471c.959 0 1.736-.673 1.736-1.503v-3.007c0-.83-.777-1.503-1.736-1.503zM187.565 97.11h-3.471c-.959 0-1.736.672-1.736 1.503v3.007c0 .83.777 1.503 1.736 1.503h3.471c.959 0 1.736-.673 1.736-1.503v-3.007c0-.83-.777-1.504-1.736-1.504zM175.415 76.061h-3.472c-.958 0-1.735.674-1.735 1.504v3.007c0 .83.777 1.503 1.735 1.503h3.472c.958 0 1.735-.673 1.735-1.503v-3.007c0-.83-.777-1.504-1.735-1.504zM175.415 86.586h-3.472c-.958 0-1.735.673-1.735 1.503v3.007c0 .83.777 1.503 1.735 1.503h3.472c.958 0 1.735-.673 1.735-1.503v-3.007c0-.83-.777-1.503-1.735-1.503zM175.415 97.11h-3.472c-.958 0-1.735.672-1.735 1.503v3.007c0 .83.777 1.503 1.735 1.503h3.472c.958 0 1.735-.673 1.735-1.503v-3.007c0-.83-.777-1.504-1.735-1.504z" fill="#000"/>
    <path d="M159.707 140l5.424 9.394h-10.848l5.424-9.394z" fill="#3C366B"/>
  </g>
  <defs>
    <filter id="filter0_d" x="0" y="0" width="318" height="318" filterUnits="userSpaceOnUse" color-interpolation-filters="sRGB">
      <feFlood flood-opacity="0" result="BackgroundImageFix"/>
      <feColorMatrix in="SourceAlpha" values="0 0 0 0 0 0 0 0 0 0 0 0 0 0 0 0 0 0 127 0"/>
      <feOffset dy="2"/>
      <feGaussianBlur stdDeviation="2"/>
      <feColorMatrix values="0 0 0 0 0 0 0 0 0 0 0 0 0 0 0 0 0 0 0.25 0"/>
      <feBlend in2="BackgroundImageFix" result="effect1_dropShadow"/>
      <feBlend in="SourceGraphic" in2="effect1_dropShadow" result="shape"/>
    </filter>
  </defs>
</svg>
