<svg width="342" height="182" viewBox="0 0 342 182" fill="none" xmlns="http://www.w3.org/2000/svg">
<g clip-path="url(#clip0)">
<path d="M315.779 143.917C315.398 144.738 315.018 145.549 314.639 146.348C314.048 147.589 313.464 148.806 312.888 150C312.632 150.528 312.376 151.047 312.126 151.566C309.302 157.337 306.665 162.44 304.425 166.637C302.392 170.44 299.374 173.627 295.687 175.863C292 178.099 287.78 179.303 283.468 179.347L233.661 179.889H233.136L228.866 179.935L225.214 179.975L214.015 180.096H213.562L207.86 180.158H207.686L172.544 180.539L141.176 180.868L137.527 180.907L114.865 181.154H114.839L100.142 181.311H99.9841L53.5114 181.814L39.609 181.965C38.4252 181.978 37.2417 181.919 36.0652 181.787V181.787C35.6645 181.741 35.2638 181.689 34.8664 181.626C28.3826 180.626 22.4374 177.434 18.0213 172.582C12.0406 166.004 7.6889 158.328 4.76588 150C4.3433 148.798 3.94919 147.58 3.58354 146.348C-6.53537 112.143 5.80044 68.0132 28.0023 38.4817C28.9328 37.2469 29.8787 36.0427 30.8399 34.8691L30.8629 34.8428C37.6909 26.4616 45.3466 19.4597 53.5015 14.4809C67.9524 5.6431 83.9633 3.15369 99.7115 10.5727C113.036 16.8521 125.477 19.8045 137.537 20.6059C138.755 20.6847 139.974 20.7438 141.186 20.7799C168.849 21.6502 194.775 11.6827 225.221 5.249C226.433 4.99283 227.648 4.73995 228.873 4.50021C250.592 0.17821 274.686 -2.10102 303.338 2.69062C306.314 3.1769 309.252 3.87938 312.126 4.7925C313.39 5.19974 314.607 5.63763 315.779 6.10617C329.454 11.6696 336.913 21.9491 340.082 34.8297C340.382 36.0252 340.642 37.2414 340.861 38.4784C346.48 69.4615 330.023 113.411 315.779 143.917Z" fill="#F2F2F2"/>
<path opacity="0.1" d="M163.236 146.347C163.104 147.575 162.899 148.795 162.622 149.999H193.396V146.347H163.236ZM137.537 166.975L141.185 166.945V157.924C139.934 157.868 138.716 157.812 137.537 157.753V166.975ZM61.0388 146.347V149.999H126.232V146.347H61.0388ZM340.099 34.842H315.795V6.10861C314.623 5.63349 313.406 5.1956 312.143 4.79493V34.842H228.873V4.4895C227.648 4.72925 226.433 4.98213 225.221 5.2383V34.842H141.185V20.7692C139.973 20.7331 138.755 20.674 137.537 20.5952V34.842H53.5013V14.48C45.3464 19.4588 37.6907 26.4607 30.8627 34.842H30.8397V34.8683C29.8763 36.0506 28.9304 37.2548 28.0021 38.4809H30.8397V146.347H3.58008C3.94354 147.579 4.33765 148.797 4.76242 149.999H30.8364V180.745C32.1483 181.147 33.4874 181.453 34.8433 181.662C35.2407 181.724 35.6413 181.777 36.042 181.823C37.2185 181.954 38.402 182.014 39.5858 182L53.4882 181.849V149.992H137.537V180.933L141.185 180.893V149.999H225.221V180.003L228.873 179.964V149.999H312.126V151.565C312.376 151.046 312.632 150.528 312.888 149.999C313.464 148.806 314.048 147.588 314.639 146.347C315.018 145.55 315.397 144.74 315.778 143.917V38.494H340.877C340.656 37.2482 340.396 36.0309 340.099 34.842ZM53.5013 146.347V38.4809H137.537V146.347H53.5013ZM141.192 146.347V38.4809H225.221V146.347H141.192ZM312.133 146.347H228.873V38.4809H312.126L312.133 146.347Z" fill="black"/>
<path d="M283.464 175.261V179.53L233.569 179.99L233.037 180L214.074 180.174L213.62 180.181L207.857 180.23H207.686L172.55 180.555L114.875 181.09H114.826L100.161 181.228L100.004 181.232L34.8433 181.829V176.903L50.1645 167.707L80.9055 167.451L81.5623 167.448L81.7791 167.444L82.4359 167.435L97.1956 167.313L97.8557 167.31L98.0659 167.307L98.7228 167.303L103.455 167.264L103.58 167.261L115.256 167.162H115.351L206.457 166.394L208.687 166.377H208.911L210.612 166.361L222.977 166.259L223.634 166.249L224.242 166.242H224.557L228.403 166.213L229.165 166.203L230.186 166.196L233.389 166.167L238.469 166.124L239.126 166.118L240.269 166.111H240.483L265.02 165.901L283.464 175.261Z" fill="#65617D"/>
<path opacity="0.2" d="M283.464 175.261V179.53L233.569 179.99L233.037 180L214.074 180.174L213.62 180.181L207.857 180.23H207.686L172.55 180.555L114.875 181.09H114.826L100.161 181.228L100.004 181.232L34.8433 181.829V176.903L50.1645 167.707L80.9055 167.451L81.5623 167.448L81.7791 167.444L82.4359 167.435L97.1956 167.313L97.8557 167.31L98.0659 167.307L98.7228 167.303L103.455 167.264L103.58 167.261L115.256 167.162H115.351L206.457 166.394L208.687 166.377H208.911L210.612 166.361L222.977 166.259L223.634 166.249L224.242 166.242H224.557L228.403 166.213L229.165 166.203L230.186 166.196L233.389 166.167L238.469 166.124L239.126 166.118L240.269 166.111H240.483L265.02 165.901L283.464 175.261Z" fill="black"/>
<path d="M97.2479 158.843V166.886C97.2481 167.267 97.1401 167.64 96.9367 167.962C96.7332 168.284 96.4425 168.542 96.0984 168.706C95.8421 168.83 95.562 168.897 95.2773 168.903L83.8151 169.146C83.509 169.153 83.2054 169.089 82.9284 168.958C82.5782 168.798 82.2815 168.54 82.0736 168.216C81.8657 167.892 81.7554 167.514 81.7559 167.129V158.843H97.2479Z" fill="#3F3D56"/>
<path opacity="0.1" d="M97.2479 158.843V166.886C97.2481 167.267 97.1401 167.64 96.9367 167.962C96.7332 168.284 96.4425 168.542 96.0984 168.706C95.8421 168.83 95.562 168.897 95.2773 168.903L83.8151 169.146C83.509 169.153 83.2054 169.089 82.9284 168.958C82.5782 168.798 82.2815 168.54 82.0736 168.216C81.8657 167.892 81.7554 167.514 81.7559 167.129V158.843H97.2479Z" fill="black"/>
<path d="M97.9046 158.843V166.886C97.9048 167.267 97.7969 167.64 97.5934 167.962C97.3899 168.284 97.0992 168.542 96.7551 168.706C96.4989 168.83 96.2187 168.897 95.934 168.903L84.4719 169.146C84.1657 169.153 83.8621 169.089 83.5851 168.958C83.2349 168.798 82.9382 168.54 82.7304 168.216C82.5225 167.892 82.4122 167.514 82.4126 167.129V158.843H97.9046Z" fill="#3F3D56"/>
<path d="M239.126 158.84H223.634V169.185H239.126V158.84Z" fill="#3F3D56"/>
<path opacity="0.1" d="M239.126 158.84H223.634V169.185H239.126V158.84Z" fill="black"/>
<path d="M238.469 158.84H222.977V169.185H238.469V158.84Z" fill="#3F3D56"/>
<path opacity="0.1" d="M97.9017 158.84V160.472L82.4097 160.886V158.84H97.9017Z" fill="black"/>
<path d="M125.246 102.585V157.825C125.242 158.162 125.109 158.485 124.873 158.726C124.638 158.968 124.319 159.11 123.982 159.122L61.0383 160.797H61.0219C60.6792 160.793 60.3517 160.655 60.1093 160.413C59.8669 160.17 59.7289 159.843 59.7246 159.5V102.585C59.7289 102.242 59.8669 101.915 60.1093 101.672C60.3517 101.43 60.6792 101.292 61.0219 101.288H123.949C124.292 101.292 124.619 101.43 124.862 101.672C125.104 101.915 125.242 102.242 125.246 102.585V102.585Z" fill="#65617D"/>
<path opacity="0.1" d="M61.0383 101.288V160.797H61.0219C60.6792 160.793 60.3517 160.655 60.1093 160.413C59.8669 160.17 59.7289 159.843 59.7246 159.5V102.585C59.7289 102.242 59.8669 101.915 60.1093 101.672C60.3517 101.43 60.6792 101.292 61.0219 101.288H61.0383Z" fill="black"/>
<path d="M63.9092 104.815H122.205V153.503L63.9092 154.817V104.815Z" fill="#6C63FF"/>
<path opacity="0.1" d="M238.469 158.84V160.945L222.977 160.531V158.84H238.469Z" fill="black"/>
<path d="M258.917 102.585V159.5C258.913 159.846 258.773 160.175 258.527 160.418C258.281 160.661 257.949 160.797 257.603 160.797V160.797L194.647 159.122C194.31 159.11 193.991 158.968 193.755 158.726C193.52 158.485 193.386 158.162 193.382 157.825V102.585C193.387 102.242 193.525 101.915 193.767 101.672C194.009 101.43 194.337 101.292 194.68 101.288H257.607C257.952 101.289 258.283 101.425 258.528 101.668C258.773 101.911 258.913 102.24 258.917 102.585V102.585Z" fill="#65617D"/>
<path opacity="0.1" d="M258.917 102.585V159.5C258.913 159.846 258.773 160.175 258.527 160.418C258.281 160.661 257.949 160.797 257.604 160.797V160.797V101.288C257.949 101.288 258.281 101.424 258.527 101.667C258.773 101.909 258.913 102.239 258.917 102.585Z" fill="black"/>
<path d="M254.726 104.815H196.43V153.503L254.726 154.817V104.815Z" fill="#6C63FF"/>
<path d="M191.754 102.585V157.825C191.75 158.162 191.616 158.485 191.381 158.726C191.145 158.968 190.826 159.11 190.489 159.122L127.546 160.797C127.2 160.797 126.868 160.661 126.622 160.418C126.377 160.175 126.236 159.846 126.232 159.5V102.585C126.236 102.242 126.374 101.915 126.617 101.672C126.859 101.43 127.186 101.292 127.529 101.288H190.456C190.799 101.292 191.127 101.43 191.369 101.672C191.611 101.915 191.749 102.242 191.754 102.585V102.585Z" fill="#65617D"/>
<path d="M130.416 104.815H188.712V153.503L130.416 154.817V104.815Z" fill="#6C63FF"/>
<path opacity="0.1" d="M283.464 175.261V179.53L233.569 179.99L233.037 180L214.074 180.174L213.62 180.181L207.857 180.23H207.686L172.55 180.555L114.875 181.09H114.826L100.161 181.228L100.004 181.232L34.8433 181.829V176.903L101.353 176.466H101.511L114.973 176.374H115.036L208.008 175.76H208.103L208.159 175.757H208.313L209.886 175.747H210.366L234.83 175.583L236.275 175.576L236.597 175.573L283.464 175.261Z" fill="black"/>
<path d="M160.03 114.776C169.341 114.776 176.888 107.228 176.888 97.9182C176.888 88.6079 169.341 81.0604 160.03 81.0604C150.72 81.0604 143.172 88.6079 143.172 97.9182C143.172 107.228 150.72 114.776 160.03 114.776Z" fill="#FBBEBE"/>
<path d="M176.892 123.867C176.892 123.867 144.213 127.808 147.334 123.867C148.463 122.441 148.775 118.218 148.713 113.406C148.693 111.945 148.641 110.431 148.565 108.923C148.204 101.698 147.334 94.6372 147.334 94.6372C147.334 94.6372 175.907 81.1721 172.623 91.8457C171.309 96.1578 171.739 102.214 172.738 107.899C173.03 109.557 173.368 111.183 173.723 112.727C174.588 116.492 175.646 120.21 176.892 123.867V123.867Z" fill="#FBBEBE"/>
<path d="M166.228 122.53C170.008 121.83 174.012 120.559 177.569 122.024C178.505 122.408 179.365 122.97 180.324 123.292C181.283 123.614 182.334 123.692 183.333 123.919C186.84 124.714 189.684 127.384 191.511 130.487C193.337 133.591 194.282 137.102 195.209 140.577L197.475 149.06C199.445 156.433 201.416 163.868 201.872 171.491C174.438 173.061 146.94 173.218 119.489 171.96C121.276 168.564 123.102 164.962 122.951 161.122C122.8 157.283 120.589 153.497 121.388 149.713C121.897 147.303 123.545 145.316 124.554 143.072C127.427 136.662 125.191 128.034 130.242 123.154C132.515 120.96 135.825 120.129 138.988 120.234C143.021 120.369 147.15 121.627 151.14 122.241C156.25 123.016 161.078 123.476 166.228 122.53Z" fill="#FF6584"/>
<path opacity="0.1" d="M209.22 159.04L209.187 159.51V159.543L209.131 160.298L208.694 166.377L208.165 173.701L208.014 175.763L207.686 180.177V180.233L172.544 180.562L114.875 181.185V181.461H114.829V181.185V181.094L114.977 176.377L115.259 167.162L115.502 159.349L115.525 158.571C115.54 158.101 115.65 157.639 115.849 157.213C116.047 156.787 116.331 156.406 116.682 156.094C117.033 155.781 117.444 155.543 117.89 155.395C118.336 155.247 118.808 155.191 119.276 155.231C120.826 155.362 122.839 155.523 125.247 155.694L126.232 155.766C140.135 156.731 165.828 157.979 191.754 156.423C192.299 156.393 192.847 156.36 193.396 156.321C197.416 156.068 201.433 155.743 205.41 155.336C205.913 155.283 206.421 155.341 206.899 155.506C207.377 155.671 207.813 155.939 208.176 156.29C208.539 156.642 208.821 157.069 209.001 157.541C209.181 158.013 209.256 158.52 209.22 159.024V159.04Z" fill="black"/>
<path d="M114.865 181.461V181.186L172.544 180.558L207.685 180.23H207.784V180.174L208.112 175.76L208.254 173.79L208.792 166.364L209.216 160.485V160.341C209.236 160.07 209.223 159.798 209.18 159.53C209.182 159.519 209.182 159.508 209.18 159.497C209.09 158.943 208.864 158.419 208.523 157.973C208.161 157.509 207.688 157.145 207.146 156.915C206.605 156.686 206.014 156.597 205.429 156.659C201.452 157.066 197.435 157.392 193.415 157.644C192.867 157.684 192.318 157.717 191.773 157.746C165.847 159.287 140.154 158.039 126.251 157.089L125.266 157.017C122.859 156.846 120.845 156.689 119.295 156.554C118.442 156.482 117.593 156.729 116.912 157.246C116.23 157.763 115.764 158.515 115.604 159.356C115.571 159.533 115.551 159.713 115.545 159.894L115.321 167.172L115.016 176.391L114.871 181.107V181.199V181.475L114.865 181.461Z" fill="#3F3D56"/>
<path opacity="0.1" d="M209.318 161.342L208.914 166.377L208.313 173.881L208.162 175.76L207.833 179.967L207.813 180.177V180.233L207.764 180.719L207.8 180.233H207.705L172.563 180.562L114.875 181.186V181.094L115.035 176.377L115.364 167.162L115.574 161.037C115.584 160.689 115.682 160.348 115.857 160.047C116.033 159.746 116.281 159.494 116.579 159.313C116.951 159.085 117.386 158.981 117.821 159.017C118.51 159.073 119.358 159.139 120.346 159.211C121.952 159.329 123.933 159.467 126.238 159.612C130.508 159.881 135.864 160.17 142.003 160.406C159.081 161.063 182.137 161.283 204.037 159.365C205.022 159.28 206.04 159.185 207.035 159.089C207.429 159.05 207.826 159.125 208.178 159.306C208.278 159.356 208.372 159.415 208.46 159.484C208.746 159.691 208.973 159.969 209.117 160.291C209.151 160.356 209.178 160.423 209.199 160.492C209.298 160.764 209.338 161.054 209.318 161.342V161.342Z" fill="black"/>
<path opacity="0.1" d="M97.9046 165.839V166.886C97.9048 167.267 97.7969 167.64 97.5934 167.962C97.3899 168.284 97.0992 168.542 96.7551 168.706L83.5851 168.958C83.2349 168.798 82.9382 168.54 82.7304 168.216C82.5225 167.892 82.4122 167.514 82.4126 167.129V166.144L97.9046 165.839Z" fill="black"/>
<path d="M98.0657 169.323L80.9053 169.651V166.804L98.0657 166.476V169.323Z" fill="#3F3D56"/>
<path opacity="0.1" d="M98.0657 169.323L80.9053 169.651V166.804L98.0657 166.476V169.323Z" fill="black"/>
<path d="M98.7225 169.323L81.562 169.651V166.804L98.7225 166.476V169.323Z" fill="#3F3D56"/>
<path opacity="0.1" d="M223.076 166.495V167.543C223.076 167.924 223.183 168.297 223.387 168.619C223.59 168.941 223.881 169.199 224.225 169.362L237.395 169.615C237.745 169.455 238.042 169.197 238.25 168.873C238.458 168.548 238.568 168.171 238.568 167.786V166.801L223.076 166.495Z" fill="black"/>
<path opacity="0.1" d="M222.912 169.98L240.072 170.308V167.461L222.912 167.132V169.98Z" fill="black"/>
<path d="M222.255 169.98L239.415 170.308V167.461L222.255 167.132V169.98Z" fill="#3F3D56"/>
<path d="M149.366 103.084C149.393 105.383 148.329 107.551 147.425 109.676C144.137 117.416 142.713 125.82 143.267 134.212C143.507 137.824 144.115 141.437 143.507 145.017C142.9 148.597 140.739 152.166 137.267 153.194C143.024 156.626 150.818 156.265 156.237 152.321C159.124 150.219 161.275 147.286 163.381 144.403C163.13 149.582 161.631 154.625 159.009 159.099C163.748 158.68 168.345 157.27 172.504 154.96C176.663 152.651 180.291 149.494 183.152 145.693C184.567 143.785 185.799 141.69 186.344 139.378C187.359 135.108 185.944 130.671 184.863 126.405C183.96 122.839 183.283 119.219 182.837 115.567C182.695 114.398 182.58 113.196 182.87 112.053C183.198 110.717 184.075 109.587 184.722 108.368C186.561 104.907 186.604 100.716 185.661 96.9132C184.719 93.1101 182.873 89.6026 181.043 86.1378C179.579 83.3594 177.989 80.4529 175.309 78.8206C173.634 77.8025 171.696 77.3789 169.765 76.9683L161.433 75.185C159.61 74.7942 157.735 74.4034 155.892 74.6891C152.782 75.1752 150.591 77.4216 148.667 79.7271C147.159 81.5202 143.474 84.8865 143.215 87.2347C142.978 89.399 144.89 93.0247 145.215 95.3073C145.642 98.263 145.944 97.2778 147.613 99.0907C148.667 100.214 149.347 101.511 149.366 103.084Z" fill="#3F3D56"/>
<path d="M98.614 109.557H65.9025C65.8589 109.557 65.8172 109.54 65.7864 109.509C65.7556 109.478 65.7383 109.437 65.7383 109.393C65.7383 109.35 65.7556 109.308 65.7864 109.277C65.8172 109.246 65.8589 109.229 65.9025 109.229H98.614C98.6576 109.229 98.6994 109.246 98.7302 109.277C98.761 109.308 98.7783 109.35 98.7783 109.393C98.7783 109.437 98.761 109.478 98.7302 109.509C98.6994 109.54 98.6576 109.557 98.614 109.557Z" fill="#F2F2F2"/>
<path d="M98.614 112.513H65.9025C65.8589 112.513 65.8172 112.496 65.7864 112.465C65.7556 112.434 65.7383 112.392 65.7383 112.349C65.7383 112.305 65.7556 112.264 65.7864 112.233C65.8172 112.202 65.8589 112.185 65.9025 112.185H98.614C98.6576 112.185 98.6994 112.202 98.7302 112.233C98.761 112.264 98.7783 112.305 98.7783 112.349C98.7783 112.392 98.761 112.434 98.7302 112.465C98.6994 112.496 98.6576 112.513 98.614 112.513Z" fill="#F2F2F2"/>
<path d="M98.614 115.469H65.9025C65.8589 115.469 65.8172 115.452 65.7864 115.421C65.7556 115.39 65.7383 115.348 65.7383 115.305C65.7383 115.261 65.7556 115.219 65.7864 115.189C65.8172 115.158 65.8589 115.141 65.9025 115.141H98.614C98.6576 115.141 98.6994 115.158 98.7302 115.189C98.761 115.219 98.7783 115.261 98.7783 115.305C98.7783 115.348 98.761 115.39 98.7302 115.421C98.6994 115.452 98.6576 115.469 98.614 115.469Z" fill="#F2F2F2"/>
</g>
<defs>
<clipPath id="clip0">
<rect width="342" height="182" fill="white"/>
</clipPath>
</defs>
</svg>
