<svg viewBox="0 0 78 78" fill="none" xmlns="http://www.w3.org/2000/svg">
  <path d="M11.273 37.02S31.31 31.078 34.277 15.69c0 0 6.703 21.134 25.137 21.024 0 0-23.766 3.656-25.137 27.726 0 0 1.22-24.68-23.004-27.422zM2.285 13.545s7.102-2.106 8.153-7.56c0 0 2.376 7.491 8.91 7.452 0 0-8.424 1.296-8.91 9.827 0 0 .432-8.747-8.153-9.719zM51.035 59.653s9.955-2.952 11.43-10.596c0 0 3.33 10.5 12.488 10.445 0 0-11.807 1.816-12.489 13.775 0 0 .606-12.261-11.429-13.624z" fill="#FFDA8F"/>
  <path d="M49.055 61.09c6.72 0 12.187 5.467 12.187 12.187a1.524 1.524 0 003.047 0c0-6.72 5.467-12.187 12.188-12.187a1.524 1.524 0 000-3.047c-6.72 0-12.188-5.467-12.188-12.188a1.524 1.524 0 00-3.047 0c0 6.72-5.467 12.188-12.187 12.188a1.524 1.524 0 000 3.047zm13.71-8.597a15.336 15.336 0 007.074 7.073 15.337 15.337 0 00-7.073 7.074 15.336 15.336 0 00-7.073-7.074 15.335 15.335 0 007.073-7.073zM1.523 15.387c4.2 0 7.618 3.417 7.618 7.617a1.524 1.524 0 003.046 0c0-4.2 3.418-7.617 7.618-7.617a1.523 1.523 0 000-3.047c-4.2 0-7.617-3.417-7.617-7.617a1.523 1.523 0 00-3.047 0c0 4.2-3.417 7.617-7.618 7.617a1.524 1.524 0 000 3.047zm9.141-5.176a10.751 10.751 0 003.652 3.652 10.747 10.747 0 00-3.652 3.653 10.75 10.75 0 00-3.652-3.653 10.751 10.751 0 003.652-3.652zM42.504 46.313a1.523 1.523 0 100-3.047 1.523 1.523 0 000 3.047z" fill="#000"/>
  <path d="M46.568 41.315c.43.723 1.364.962 2.088.532a25.867 25.867 0 0113.196-3.609 1.524 1.524 0 000-3.047c-14.28 0-25.899-11.618-25.899-25.898a1.523 1.523 0 00-3.047 0c0 14.28-11.618 25.898-25.898 25.898a1.523 1.523 0 000 3.047c14.28 0 25.898 11.618 25.898 25.899a1.524 1.524 0 003.047 0c0-4.654 1.248-9.217 3.61-13.196a1.523 1.523 0 00-2.621-1.555 28.74 28.74 0 00-2.513 5.474 29.084 29.084 0 00-18.147-18.145A29.085 29.085 0 0034.43 18.567a29.084 29.084 0 0018.144 18.147 28.752 28.752 0 00-5.473 2.513 1.524 1.524 0 00-.533 2.088z" fill="#000"/>
</svg>
