<svg viewBox="0 0 1200 269" fill="none" xmlns="http://www.w3.org/2000/svg">
  <path fill-rule="evenodd" clip-rule="evenodd" d="M1200 80.7l-40 26.9c-40 26.9-120 80.7-200 80.7s-160-53.8-240-76.217c-80-22.416-160-13.45-240-8.966-80 4.483-160 4.483-240-13.45-80-17.934-160-53.8-200-71.734L0 0v269h1200V80.7z" fill="#4C51BF"/>
  <path fill-rule="evenodd" clip-rule="evenodd" d="M0 199.427l40-23.191c40-23.191 120-69.572 200-110.157 80-40.584 160-75.37 240-46.381C560 48.686 640 141.45 720 164.64c80 23.191 160-23.191 240-34.787 80-11.595 160 11.596 200 23.191l40 11.596V269H0v-69.573z" fill="#5A67D8" fill-opacity=".76"/>
</svg>
