<svg width="755" height="610" viewBox="0 0 755 610" fill="none" xmlns="http://www.w3.org/2000/svg">
<path d="M730.401 76.2479H18.665V531.981H730.401V76.2479Z" fill="#E6E6E6"/>
<path d="M710.049 133.408H39.0171V505.019H710.049V133.408Z" fill="white"/>
<path d="M730.097 75.8446H18.3613V106.075H730.097V75.8446Z" fill="#6C63FF"/>
<path d="M40.8313 96.9034C43.9264 96.9034 46.4355 94.3948 46.4355 91.3003C46.4355 88.2058 43.9264 85.6973 40.8313 85.6973C37.7361 85.6973 35.2271 88.2058 35.2271 91.3003C35.2271 94.3948 37.7361 96.9034 40.8313 96.9034Z" fill="white"/>
<path d="M62.1038 96.9034C65.1989 96.9034 67.708 94.3948 67.708 91.3003C67.708 88.2058 65.1989 85.6973 62.1038 85.6973C59.0086 85.6973 56.4995 88.2058 56.4995 91.3003C56.4995 94.3948 59.0086 96.9034 62.1038 96.9034Z" fill="white"/>
<path d="M83.3757 96.9034C86.4708 96.9034 88.9799 94.3948 88.9799 91.3003C88.9799 88.2058 86.4708 85.6973 83.3757 85.6973C80.2806 85.6973 77.7715 88.2058 77.7715 91.3003C77.7715 94.3948 80.2806 96.9034 83.3757 96.9034Z" fill="white"/>
<path d="M272.413 171.966H99.9897V466.462H272.413V171.966Z" fill="#E6E6E6"/>
<path d="M445.864 171.966H302.177V253.029H445.864V171.966Z" fill="#6C63FF"/>
<path d="M445.864 275.604H302.177V362.824H445.864V275.604Z" fill="#E6E6E6"/>
<path d="M445.864 385.399H302.177V466.462H445.864V385.399Z" fill="#E6E6E6"/>
<path d="M649.077 171.966H476.653V300.306H649.077V171.966Z" fill="#E6E6E6"/>
<path d="M649.077 338.122H476.653V466.462H649.077V338.122Z" fill="#6C63FF"/>
<path d="M375.5 208.61L373.25 208.012L422.368 23.2753H707.276V25.6028H424.157L375.5 208.61Z" fill="#3F3D56"/>
<path d="M730.556 48.8775C725.722 48.8775 720.996 47.4442 716.976 44.7588C712.956 42.0735 709.823 38.2567 707.973 33.7911C706.123 29.3255 705.639 24.4117 706.582 19.671C707.525 14.9303 709.853 10.5758 713.272 7.15795C716.69 3.74013 721.046 1.41257 725.787 0.469594C730.529 -0.473381 735.444 0.0105922 739.91 1.8603C744.377 3.71001 748.195 6.84238 750.88 10.8613C753.566 14.8802 755 19.6052 755 24.4388C754.993 30.9181 752.415 37.1299 747.832 41.7114C743.25 46.293 737.037 48.8701 730.556 48.8775V48.8775ZM730.556 2.32752C726.182 2.32751 721.906 3.62431 718.269 6.05393C714.632 8.48354 711.798 11.9369 710.124 15.9772C708.45 20.0175 708.012 24.4633 708.865 28.7525C709.719 33.0416 711.825 36.9815 714.918 40.0738C718.011 43.1661 721.952 45.272 726.242 46.1252C730.532 46.9783 734.978 46.5405 739.019 44.8669C743.061 43.1934 746.515 40.3593 748.945 36.7231C751.375 33.0869 752.672 28.812 752.672 24.4388C752.665 18.5765 750.333 12.9563 746.187 8.81111C742.041 4.66589 736.42 2.33417 730.556 2.32752V2.32752Z" fill="#3F3D56"/>
<path d="M730.556 33.7488C735.699 33.7488 739.868 29.5805 739.868 24.4388C739.868 19.297 735.699 15.1288 730.556 15.1288C725.413 15.1288 721.244 19.297 721.244 24.4388C721.244 29.5805 725.413 33.7488 730.556 33.7488Z" fill="#6C63FF"/>
<path d="M517.277 586.53H232.368V584.202H515.487L564.144 401.194L566.395 401.792L517.277 586.53Z" fill="#3F3D56"/>
<path d="M209.088 609.805C204.254 609.805 199.528 608.372 195.508 605.686C191.488 603.001 188.355 599.184 186.505 594.718C184.655 590.253 184.171 585.339 185.114 580.598C186.057 575.858 188.385 571.503 191.804 568.085C195.222 564.668 199.578 562.34 204.32 561.397C209.061 560.454 213.976 560.938 218.443 562.788C222.909 564.638 226.727 567.77 229.413 571.789C232.099 575.808 233.532 580.533 233.532 585.366C233.525 591.846 230.947 598.057 226.365 602.639C221.782 607.22 215.569 609.798 209.088 609.805ZM209.088 563.255C204.714 563.255 200.438 564.552 196.801 566.981C193.165 569.411 190.33 572.864 188.656 576.905C186.982 580.945 186.544 585.391 187.397 589.68C188.251 593.969 190.357 597.909 193.45 601.001C196.543 604.094 200.484 606.199 204.774 607.053C209.064 607.906 213.511 607.468 217.552 605.794C221.593 604.121 225.047 601.287 227.477 597.651C229.907 594.014 231.204 589.739 231.204 585.366C231.198 579.504 228.865 573.884 224.719 569.739C220.573 565.593 214.952 563.262 209.088 563.255V563.255Z" fill="#3F3D56"/>
<path d="M209.088 594.676C214.231 594.676 218.4 590.508 218.4 585.366C218.4 580.224 214.231 576.056 209.088 576.056C203.945 576.056 199.776 580.224 199.776 585.366C199.776 590.508 203.945 594.676 209.088 594.676Z" fill="#6C63FF"/>
</svg>
