<svg viewBox="0 0 781 462" fill="none" xmlns="http://www.w3.org/2000/svg">
  <g clip-path="url(#clip0)">
    <path opacity=".2" d="M114.134.053c-6.076-.174-12.303 0-18.002 1.751-15.507 4.771-22.857 20.383-20.467 33.873 2.39 13.49 12.22 25.244 22.42 35.986 10.199 10.742 21.251 21.364 26.845 34.205 2.789 6.409 4.093 13.588 1.258 19.989-4.372 9.867-17.557 15.378-30.214 16.525-12.658 1.148-25.368-1.087-38.07-1.834-5.33-.31-10.81-.347-15.831 1.094-5.511 1.571-10.102 4.779-14.324 8.123-16.471 13.12-29.657 31.019-27.523 49.824 2.412 21.311 23.927 38.152 47.493 47.189 7.803 3.019 16.057 5.42 22.925 9.693 18.093 11.27 22.156 32.408 20.354 51.061-1.802 18.654-7.938 37.33-4.523 55.818 4.018 21.507 21.802 40.938 45.79 50.012 21.372 8.085 48.119 7.549 67.093-3.858 9.25-5.571 16.246-13.309 22.33-21.31a172.011 172.011 0 0022.201-38.5c2.646-6.41 5.134-13.302 11.308-17.756 3.769-2.74 8.654-4.273 13.486-5.465 14.565-3.594 29.906-4.575 44.606-7.776 14.701-3.201 29.491-9.187 37.482-19.831 11.308-15.098 6.031-34.439 6.084-52.194.09-40.508 29.483-76.766 40.331-116.255 3.544-12.901 4.863-27.176-3.053-38.689-5.375-7.813-14.444-13.452-23.972-17.808-20.965-9.58-44.795-13.845-68.232-17.997-32.575-5.767-72.13-6.515-97.377-25.176C180.323 12.833 147.176.053 114.134.053z" fill="#6C63FF"/>
    <path d="M430.455 462C624.055 462 781 419.915 781 368s-156.945-94.001-350.545-94.001c-193.601 0-350.546 42.086-350.546 94.001 0 51.915 156.945 94 350.546 94z" fill="#F5F5F5"/>
    <path d="M698.354 316.998h-48.428a16.203 16.203 0 001.689-7.224V88.92a16.25 16.25 0 00-4.75-11.482 16.203 16.203 0 00-11.466-4.756H260.474a16.197 16.197 0 00-11.471 4.753 16.265 16.265 0 00-4.752 11.485V309.78a16.196 16.196 0 001.688 7.225H195.8a4.286 4.286 0 00-3.033 1.258 4.299 4.299 0 00-1.256 3.037v3.465a24.038 24.038 0 007.034 16.971 23.971 23.971 0 0016.954 7.028h463.157a23.967 23.967 0 0016.961-7.036 24.037 24.037 0 007.026-16.985v-3.465a4.288 4.288 0 00-4.289-4.281zm-298.446 13.74l-4.131-4.719h103.068l-4.599 4.726-94.338-.007z" fill="url(#paint0_linear)"/>
    <path d="M629.451 75.807H266.392c-9.684 0-17.535 7.862-17.535 17.56v212.481c0 9.698 7.851 17.559 17.535 17.559h363.059c9.684 0 17.535-7.861 17.535-17.559V93.366c0-9.697-7.851-17.559-17.535-17.559z" fill="#535461"/>
    <path d="M637.759 111.899H257.232v202.276h380.527V111.899zM447.499 97.631a3.357 3.357 0 003.355-3.359 3.357 3.357 0 00-3.355-3.36 3.357 3.357 0 00-3.354 3.36 3.357 3.357 0 003.354 3.36z" fill="#fff"/>
    <path d="M506.256 314.59l-13.08 13.43h-92.197l-11.813-13.43H201.5a4.199 4.199 0 00-4.192 4.197v3.382c0 6.227 2.47 12.199 6.867 16.602a23.432 23.432 0 0016.578 6.876h452.656a23.43 23.43 0 0016.578-6.876 23.495 23.495 0 006.867-16.602v-3.382a4.198 4.198 0 00-4.191-4.197H506.256z" fill="#535461"/>
    <path d="M544.668 136.561h-30.157V124.56c0-1.464 1.37-2.652 3.06-2.652h24.038c1.689 0 3.059 1.188 3.059 2.652v12.001z" fill="#365E7D"/>
    <path d="M528.763 287.385H406.655c-2.558 0-4.632-1.797-4.632-4.015V147.601c0-2.217 2.074-4.015 4.632-4.015h122.108c2.559 0 4.633 1.798 4.633 4.015V283.37c0 2.218-2.074 4.015-4.633 4.015z" fill="#FFF6F4"/>
    <path d="M528.763 143.586h-7.81c2.558 0 4.632 1.798 4.632 4.015V283.37c0 2.218-2.074 4.015-4.632 4.015h7.81c2.558 0 4.632-1.798 4.632-4.015V147.601c0-2.217-2.074-4.015-4.632-4.015z" fill="#D8E2F1"/>
    <path d="M436.828 190.998c4.1 0 7.425-2.881 7.425-6.435s-3.325-6.436-7.425-6.436c-4.101 0-7.426 2.882-7.426 6.436s3.325 6.435 7.426 6.435zM467.709 190.998c4.101 0 7.425-2.881 7.425-6.435s-3.324-6.436-7.425-6.436-7.426 2.882-7.426 6.436 3.325 6.435 7.426 6.435z" fill="#DD636E"/>
    <path d="M498.591 190.998c4.101 0 7.425-2.881 7.425-6.435s-3.324-6.436-7.425-6.436-7.425 2.882-7.425 6.436 3.324 6.435 7.425 6.435zM436.827 233.709c4.101 0 7.426-2.881 7.426-6.435s-3.325-6.436-7.426-6.436-7.425 2.882-7.425 6.436 3.324 6.435 7.425 6.435z" fill="#365E7D"/>
    <path d="M467.709 233.71c4.101 0 7.425-2.882 7.425-6.436s-3.324-6.436-7.425-6.436-7.426 2.882-7.426 6.436 3.325 6.436 7.426 6.436zM498.591 233.709c4.101 0 7.426-2.881 7.426-6.435s-3.325-6.436-7.426-6.436-7.425 2.882-7.425 6.436 3.324 6.435 7.425 6.435z" fill="#DD636E"/>
    <path d="M436.827 276.421c4.101 0 7.426-2.882 7.426-6.436s-3.325-6.435-7.426-6.435-7.425 2.881-7.425 6.435 3.324 6.436 7.425 6.436z" fill="#365E7D"/>
    <path d="M467.709 276.421c4.101 0 7.425-2.882 7.425-6.436s-3.324-6.435-7.425-6.435-7.426 2.881-7.426 6.435 3.325 6.436 7.426 6.436zM498.591 276.421c4.101 0 7.426-2.882 7.426-6.436s-3.325-6.435-7.426-6.435-7.425 2.881-7.425 6.435 3.324 6.436 7.425 6.436z" fill="#DD636E"/>
    <path d="M529.59 179.934c15.657 0 28.35-11.001 28.35-24.571 0-13.571-12.693-24.571-28.35-24.571-15.658 0-28.35 11-28.35 24.571 0 13.57 12.692 24.571 28.35 24.571z" fill="#F6E266"/>
    <path d="M529.59 130.792a32.9 32.9 0 00-4.418.298c13.559 1.839 23.932 12.005 23.932 24.273 0 12.267-10.373 22.433-23.932 24.272a32.9 32.9 0 004.418.299c15.658 0 28.351-11.001 28.351-24.571 0-13.57-12.693-24.571-28.351-24.571z" fill="#ECBE6B"/>
    <path d="M447.134 184.563c0-4.925-4.624-8.933-10.307-8.933-5.683 0-10.307 4.008-10.307 8.933 0 4.926 4.624 8.933 10.307 8.933 5.683 0 10.307-4.007 10.307-8.933zm-14.852 0c0-2.172 2.039-3.939 4.545-3.939 2.505 0 4.544 1.767 4.544 3.939s-2.039 3.939-4.544 3.939c-2.506 0-4.545-1.767-4.545-3.939zM478.015 184.563c0-4.925-4.623-8.933-10.306-8.933-5.684 0-10.307 4.008-10.307 8.933 0 4.926 4.623 8.933 10.307 8.933 5.683 0 10.306-4.007 10.306-8.933zm-14.85 0c0-2.172 2.038-3.939 4.544-3.939 2.505 0 4.544 1.767 4.544 3.939s-2.039 3.939-4.544 3.939c-2.506 0-4.544-1.767-4.544-3.939zM508.897 184.563c0-4.925-4.623-8.933-10.306-8.933-5.684 0-10.307 4.008-10.307 8.933 0 4.926 4.623 8.933 10.307 8.933 5.683 0 10.306-4.007 10.306-8.933zm-14.851 0c0-2.172 2.039-3.939 4.545-3.939 2.505 0 4.544 1.767 4.544 3.939s-2.039 3.939-4.544 3.939c-2.506 0-4.545-1.767-4.545-3.939zM422.364 205.918c0 1.38 1.289 2.498 2.881 2.498h84.927c1.592 0 2.882-1.118 2.882-2.498 0-1.379-1.29-2.497-2.882-2.497h-84.927c-1.591 0-2.881 1.118-2.881 2.497zM426.52 227.274c0 4.925 4.623 8.933 10.307 8.933 5.683 0 10.307-4.008 10.307-8.933 0-4.926-4.624-8.933-10.307-8.933-5.684 0-10.307 4.007-10.307 8.933zm14.852 0c0 2.171-2.039 3.938-4.545 3.938-2.505 0-4.544-1.767-4.544-3.938 0-2.172 2.039-3.939 4.544-3.939 2.506 0 4.545 1.767 4.545 3.939zM457.402 227.274c0 4.925 4.623 8.933 10.307 8.933 5.683 0 10.306-4.008 10.306-8.933 0-4.926-4.623-8.933-10.306-8.933-5.684 0-10.307 4.007-10.307 8.933zm14.851 0c0 2.171-2.039 3.938-4.544 3.938-2.506 0-4.544-1.767-4.544-3.938 0-2.172 2.038-3.939 4.544-3.939 2.505 0 4.544 1.767 4.544 3.939zM488.284 227.274c0 4.925 4.623 8.933 10.307 8.933 5.683 0 10.306-4.008 10.306-8.933 0-4.926-4.623-8.933-10.306-8.933-5.684 0-10.307 4.007-10.307 8.933zm14.851 0c0 2.171-2.039 3.938-4.544 3.938-2.506 0-4.545-1.767-4.545-3.938 0-2.172 2.039-3.939 4.545-3.939 2.505 0 4.544 1.767 4.544 3.939zM513.054 248.63c0-1.38-1.29-2.498-2.882-2.498h-84.927c-1.592 0-2.881 1.118-2.881 2.498 0 1.379 1.289 2.497 2.881 2.497h84.927c1.592 0 2.882-1.118 2.882-2.497zM436.827 278.918c5.683 0 10.307-4.008 10.307-8.933 0-4.926-4.624-8.933-10.307-8.933-5.683 0-10.307 4.007-10.307 8.933 0 4.925 4.624 8.933 10.307 8.933zm0-12.872c2.506 0 4.545 1.767 4.545 3.939s-2.039 3.939-4.545 3.939-4.544-1.767-4.544-3.939c-.001-2.172 2.038-3.939 4.544-3.939zM457.402 269.985c0 4.925 4.623 8.933 10.307 8.933 5.683 0 10.306-4.008 10.306-8.933 0-4.926-4.623-8.933-10.306-8.933-5.684 0-10.307 4.007-10.307 8.933zm14.851 0c0 2.172-2.039 3.939-4.544 3.939-2.506 0-4.544-1.767-4.544-3.939s2.038-3.939 4.544-3.939c2.505 0 4.544 1.767 4.544 3.939zM488.284 269.985c0 4.925 4.623 8.933 10.307 8.933 5.683 0 10.306-4.008 10.306-8.933 0-4.926-4.623-8.933-10.306-8.933-5.684 0-10.307 4.007-10.307 8.933zm14.851 0c0 2.172-2.039 3.939-4.544 3.939-2.506 0-4.545-1.767-4.545-3.939s2.039-3.939 4.545-3.939c2.505 0 4.544 1.767 4.544 3.939zM529.59 142.396c1.592 0 2.881-1.117 2.881-2.497v-1.449c0-1.38-1.289-2.498-2.881-2.498-1.592 0-2.881 1.118-2.881 2.498v1.449c0 1.38 1.29 2.497 2.881 2.497zM547.432 152.866c-1.592 0-2.881 1.118-2.881 2.497 0 1.379 1.289 2.497 2.881 2.497h1.673c1.591 0 2.881-1.118 2.881-2.497 0-1.379-1.29-2.497-2.881-2.497h-1.673zM526.709 170.826v1.449c0 1.38 1.289 2.498 2.881 2.498 1.592 0 2.881-1.118 2.881-2.498v-1.449c0-1.38-1.289-2.498-2.881-2.498-1.592 0-2.881 1.118-2.881 2.498zM510.075 152.866c-1.591 0-2.881 1.118-2.881 2.497 0 1.379 1.29 2.497 2.881 2.497h1.673c1.592 0 2.881-1.118 2.881-2.497 0-1.379-1.289-2.497-2.881-2.497h-1.673zM537.993 155.363c0-1.38-1.289-2.497-2.881-2.497h-2.641v-5.679c0-1.38-1.289-2.498-2.881-2.498-1.592 0-2.881 1.118-2.881 2.498v8.176c0 1.379 1.289 2.497 2.881 2.497h5.522c1.592 0 2.881-1.118 2.881-2.497z" fill="#000"/>
    <path d="M547.55 133.238v-8.677c0-2.839-2.665-5.149-5.941-5.149h-24.038c-3.276 0-5.941 2.31-5.941 5.149v8.677c-3.422 2.093-6.34 4.763-8.56 7.851h-96.415c-4.143 0-7.514 2.921-7.514 6.512V283.37c0 3.591 3.371 6.512 7.514 6.512h12.83c1.591 0 2.881-1.117 2.881-2.497 0-1.379-1.29-2.497-2.881-2.497h-12.83c-.966 0-1.751-.681-1.751-1.518V147.601c0-.837.785-1.518 1.751-1.518h93.594a23.762 23.762 0 00-1.891 9.28c0 1.83.213 3.618.615 5.347h-73.728c-1.591 0-2.881 1.118-2.881 2.497 0 1.38 1.29 2.498 2.881 2.498h75.488c4.878 10.186 16.58 17.053 29.781 16.713V283.37c0 .837-.785 1.518-1.751 1.518h-97.758c-1.592 0-2.881 1.118-2.881 2.497 0 1.38 1.289 2.497 2.881 2.497h97.758c4.143 0 7.514-2.92 7.514-6.512V181.801c6.463-1.23 12.376-4.225 16.817-8.623 1.049-1.038.927-2.616-.27-3.524-1.197-.908-3.018-.803-4.066.234-4.844 4.797-11.83 7.548-19.168 7.548-14.044 0-25.47-9.902-25.47-22.073 0-12.172 11.426-22.075 25.47-22.075 14.044 0 25.469 9.903 25.469 22.075 0 2.286-.405 4.545-1.204 6.715-.483 1.314.354 2.719 1.87 3.139 1.513.417 3.136-.307 3.62-1.621a23.754 23.754 0 001.477-8.233c0-9.135-5.253-17.221-13.272-22.125zm-30.157-2.793v-5.884c0-.085.08-.155.178-.155h24.038c.098 0 .178.07.178.155v5.884c-3.749-1.384-7.871-2.151-12.197-2.151-4.326 0-8.448.767-12.197 2.151z" fill="#000"/>
    <path d="M375.732 119.01h-160.52a14.698 14.698 0 00-10.402 4.301 14.74 14.74 0 00-4.321 10.405v222.696a14.742 14.742 0 004.321 10.405 14.697 14.697 0 0010.402 4.3h160.52a14.697 14.697 0 0010.402-4.3 14.742 14.742 0 004.321-10.405V133.716a14.74 14.74 0 00-4.321-10.405 14.698 14.698 0 00-10.402-4.301z" fill="url(#paint1_linear)"/>
    <path d="M373.116 122.03H217.821c-8.327 0-15.078 6.759-15.078 15.098v216.657c0 8.338 6.751 15.098 15.078 15.098h155.295c8.327 0 15.077-6.76 15.077-15.098V137.128c0-8.339-6.75-15.098-15.077-15.098z" fill="#535461"/>
    <path d="M378.77 145.379H212.167v200.155H378.77V145.379zM294.714 135.618a2.264 2.264 0 000-4.529 2.263 2.263 0 00-2.261 2.264 2.263 2.263 0 002.261 2.265zM294.714 363.599c3.748 0 6.785-3.042 6.785-6.795a6.79 6.79 0 00-6.785-6.794c-3.747 0-6.784 3.042-6.784 6.794 0 3.753 3.037 6.795 6.784 6.795z" fill="#fff"/>
    <path d="M347.305 180.381h-21.491v-8.551c0-1.044.976-1.89 2.181-1.89h17.129c1.204 0 2.181.846 2.181 1.89v8.551z" fill="#365E7D"/>
    <path d="M335.97 287.861h-87.016c-1.823 0-3.301-1.281-3.301-2.861v-96.751c0-1.58 1.478-2.861 3.301-2.861h87.016c1.824 0 3.301 1.281 3.301 2.861V285c0 1.58-1.477 2.861-3.301 2.861z" fill="#FFF6F4"/>
    <path d="M335.97 185.388h-5.565c1.823 0 3.301 1.281 3.301 2.861V285c0 1.58-1.478 2.861-3.301 2.861h5.565c1.823 0 3.301-1.281 3.301-2.861v-96.751c0-1.58-1.478-2.861-3.301-2.861z" fill="#D8E2F1"/>
    <path d="M270.455 219.174c2.922 0 5.292-2.053 5.292-4.586 0-2.532-2.37-4.586-5.292-4.586-2.922 0-5.291 2.054-5.291 4.586 0 2.533 2.369 4.586 5.291 4.586zM292.462 219.174c2.922 0 5.291-2.053 5.291-4.586 0-2.532-2.369-4.586-5.291-4.586-2.923 0-5.292 2.054-5.292 4.586 0 2.533 2.369 4.586 5.292 4.586z" fill="#DD636E"/>
    <path d="M314.469 219.174c2.922 0 5.292-2.053 5.292-4.586 0-2.532-2.37-4.586-5.292-4.586-2.922 0-5.292 2.054-5.292 4.586 0 2.533 2.37 4.586 5.292 4.586zM270.455 249.611c2.922 0 5.292-2.053 5.292-4.586 0-2.533-2.37-4.586-5.292-4.586-2.922 0-5.291 2.053-5.291 4.586 0 2.533 2.369 4.586 5.291 4.586z" fill="#365E7D"/>
    <path d="M292.462 249.611c2.922 0 5.291-2.053 5.291-4.586 0-2.533-2.369-4.586-5.291-4.586-2.923 0-5.292 2.053-5.292 4.586 0 2.533 2.369 4.586 5.292 4.586zM314.469 249.611c2.922 0 5.292-2.053 5.292-4.586 0-2.533-2.37-4.586-5.292-4.586-2.922 0-5.292 2.053-5.292 4.586 0 2.533 2.37 4.586 5.292 4.586z" fill="#DD636E"/>
    <path d="M270.455 280.048c2.922 0 5.292-2.054 5.292-4.586 0-2.533-2.37-4.587-5.292-4.587-2.922 0-5.291 2.054-5.291 4.587 0 2.532 2.369 4.586 5.291 4.586z" fill="#365E7D"/>
    <path d="M292.462 280.048c2.922 0 5.291-2.054 5.291-4.586 0-2.533-2.369-4.587-5.291-4.587-2.923 0-5.292 2.054-5.292 4.587 0 2.532 2.369 4.586 5.292 4.586zM314.469 280.048c2.922 0 5.292-2.054 5.292-4.586 0-2.533-2.37-4.587-5.292-4.587-2.922 0-5.292 2.054-5.292 4.587 0 2.532 2.37 4.586 5.292 4.586z" fill="#DD636E"/>
    <path d="M336.559 211.289c11.158 0 20.203-7.839 20.203-17.509 0-9.671-9.045-17.51-20.203-17.51-11.157 0-20.203 7.839-20.203 17.51 0 9.67 9.046 17.509 20.203 17.509z" fill="#F6E266"/>
    <path d="M336.559 176.27a23.44 23.44 0 00-3.148.213c9.662 1.311 17.054 8.555 17.054 17.297s-7.392 15.986-17.054 17.297c1.026.139 2.077.212 3.148.212 11.158 0 20.203-7.839 20.203-17.509s-9.045-17.51-20.203-17.51z" fill="#ECBE6B"/>
    <path d="M277.8 214.589c0-3.51-3.295-6.366-7.345-6.366s-7.344 2.856-7.344 6.366 3.294 6.365 7.344 6.365c4.05 0 7.345-2.855 7.345-6.365zm-10.583 0c0-1.548 1.453-2.807 3.238-2.807 1.786 0 3.239 1.259 3.239 2.807 0 1.547-1.453 2.806-3.239 2.806-1.785 0-3.238-1.259-3.238-2.806zM299.807 214.589c0-3.51-3.295-6.366-7.345-6.366s-7.345 2.856-7.345 6.366 3.295 6.365 7.345 6.365 7.345-2.855 7.345-6.365zm-10.583 0c0-1.548 1.452-2.807 3.238-2.807 1.785 0 3.238 1.259 3.238 2.807 0 1.547-1.453 2.806-3.238 2.806-1.786 0-3.238-1.259-3.238-2.806zM321.814 214.589c0-3.51-3.295-6.366-7.345-6.366s-7.345 2.856-7.345 6.366 3.295 6.365 7.345 6.365 7.345-2.855 7.345-6.365zm-10.584 0c0-1.548 1.453-2.807 3.239-2.807 1.785 0 3.238 1.259 3.238 2.807 0 1.547-1.453 2.806-3.238 2.806-1.786 0-3.239-1.259-3.239-2.806zM260.148 229.807c0 .983.919 1.779 2.054 1.779h60.52c1.134 0 2.054-.796 2.054-1.779 0-.983-.92-1.78-2.054-1.78h-60.52c-1.134 0-2.054.797-2.054 1.78zM263.11 245.025c0 3.51 3.295 6.366 7.345 6.366s7.345-2.856 7.345-6.366-3.295-6.366-7.345-6.366-7.345 2.856-7.345 6.366zm10.584 0c0 1.547-1.453 2.807-3.239 2.807-1.785 0-3.238-1.26-3.238-2.807 0-1.548 1.453-2.807 3.238-2.807 1.786 0 3.239 1.259 3.239 2.807zM285.117 245.025c0 3.51 3.295 6.366 7.345 6.366s7.345-2.856 7.345-6.366-3.295-6.366-7.345-6.366-7.345 2.856-7.345 6.366zm10.583 0c0 1.547-1.453 2.807-3.238 2.807-1.786 0-3.238-1.26-3.238-2.807 0-1.548 1.452-2.807 3.238-2.807 1.785 0 3.238 1.259 3.238 2.807zM307.124 245.025c0 3.51 3.295 6.366 7.345 6.366s7.345-2.856 7.345-6.366-3.295-6.366-7.345-6.366-7.345 2.856-7.345 6.366zm10.583 0c0 1.547-1.453 2.807-3.238 2.807-1.786 0-3.239-1.26-3.239-2.807 0-1.548 1.453-2.807 3.239-2.807 1.785 0 3.238 1.259 3.238 2.807zM324.776 260.243c0-.983-.92-1.779-2.054-1.779h-60.52c-1.135 0-2.054.796-2.054 1.779 0 .983.919 1.78 2.054 1.78h60.52c1.134 0 2.054-.797 2.054-1.78zM270.455 281.827c4.05 0 7.345-2.855 7.345-6.366 0-3.51-3.295-6.365-7.345-6.365s-7.344 2.855-7.344 6.365c0 3.511 3.294 6.366 7.344 6.366zm0-9.172c1.786 0 3.239 1.259 3.239 2.806 0 1.548-1.453 2.807-3.239 2.807-1.785 0-3.238-1.259-3.238-2.807 0-1.547 1.453-2.806 3.238-2.806zM285.117 275.461c0 3.511 3.295 6.366 7.345 6.366s7.345-2.855 7.345-6.366c0-3.51-3.295-6.365-7.345-6.365s-7.345 2.855-7.345 6.365zm10.583 0c0 1.548-1.453 2.807-3.238 2.807-1.786 0-3.238-1.259-3.238-2.807 0-1.547 1.452-2.806 3.238-2.806 1.785 0 3.238 1.259 3.238 2.806zM307.124 275.461c0 3.511 3.295 6.366 7.345 6.366s7.345-2.855 7.345-6.366c0-3.51-3.295-6.365-7.345-6.365s-7.345 2.855-7.345 6.365zm10.583 0c0 1.548-1.453 2.807-3.238 2.807-1.786 0-3.239-1.259-3.239-2.807 0-1.547 1.453-2.806 3.239-2.806 1.785 0 3.238 1.259 3.238 2.806zM336.559 184.54c1.135 0 2.054-.797 2.054-1.78v-1.033c0-.983-.919-1.779-2.054-1.779-1.134 0-2.053.796-2.053 1.779v1.033c0 .983.919 1.78 2.053 1.78zM349.274 192.001c-1.134 0-2.053.796-2.053 1.779 0 .983.919 1.78 2.053 1.78h1.192c1.134 0 2.053-.797 2.053-1.78s-.919-1.779-2.053-1.779h-1.192zM334.506 204.799v1.033c0 .983.919 1.78 2.053 1.78 1.135 0 2.054-.797 2.054-1.78v-1.033c0-.983-.919-1.779-2.054-1.779-1.134 0-2.053.796-2.053 1.779zM322.653 192.001c-1.134 0-2.053.796-2.053 1.779 0 .983.919 1.78 2.053 1.78h1.192c1.134 0 2.053-.797 2.053-1.78s-.919-1.779-2.053-1.779h-1.192zM342.548 193.78c0-.983-.919-1.779-2.054-1.779h-1.882v-4.047c0-.983-.919-1.78-2.053-1.78s-2.053.797-2.053 1.78v5.826c0 .983.919 1.779 2.053 1.779h3.935c1.135 0 2.054-.796 2.054-1.779z" fill="#000"/>
    <path d="M349.358 178.013v-6.183c0-2.023-1.899-3.669-4.234-3.669h-17.129c-2.335 0-4.234 1.646-4.234 3.669v6.183c-2.439 1.492-4.518 3.395-6.1 5.595h-68.707c-2.952 0-5.354 2.082-5.354 4.641V285c0 2.559 2.401 4.641 5.354 4.641h9.143c1.134 0 2.053-.797 2.053-1.78s-.919-1.779-2.053-1.779h-9.143c-.688 0-1.248-.485-1.248-1.082v-96.751c0-.597.56-1.082 1.248-1.082h66.697a16.928 16.928 0 00-1.348 6.613c0 1.304.152 2.578.438 3.811h-52.539c-1.135 0-2.054.796-2.054 1.779 0 .983.919 1.78 2.054 1.78h53.793c3.476 7.258 11.816 12.152 21.223 11.91V285c0 .597-.56 1.082-1.248 1.082h-69.664c-1.134 0-2.053.796-2.053 1.779 0 .983.919 1.78 2.053 1.78h69.664c2.952 0 5.355-2.082 5.355-4.641v-72.379c4.606-.877 8.819-3.012 11.984-6.146.747-.739.661-1.864-.193-2.511-.853-.647-2.15-.572-2.897.167-3.452 3.418-8.431 5.379-13.659 5.379-10.009 0-18.151-7.057-18.151-15.73 0-8.674 8.142-15.731 18.151-15.731 10.007 0 18.149 7.057 18.149 15.731 0 1.629-.289 3.239-.858 4.786-.344.936.252 1.937 1.332 2.236 1.079.298 2.236-.218 2.581-1.155a16.933 16.933 0 001.052-5.867c0-6.509-3.743-12.272-9.458-15.767zm-21.491-1.99v-4.193c0-.061.058-.11.128-.11h17.129c.07 0 .127.049.127.11v4.193a25.095 25.095 0 00-8.691-1.532c-3.083 0-6.021.546-8.693 1.532z" fill="#000"/>
    <path d="M253.38 194.501h-82.419a8.144 8.144 0 00-7.539 5.023 8.176 8.176 0 00-.626 3.122v180.739a8.175 8.175 0 002.398 5.765 8.145 8.145 0 005.767 2.38h82.419a8.144 8.144 0 007.538-5.024c.412-.989.625-2.05.627-3.121V202.646a8.158 8.158 0 00-2.398-5.766 8.153 8.153 0 00-5.767-2.379z" fill="url(#paint2_linear)"/>
    <path d="M252.498 196.01h-80.663c-4.58 0-8.292 3.718-8.292 8.304v178.157c0 4.586 3.712 8.304 8.292 8.304h80.663c4.58 0 8.293-3.718 8.293-8.304V204.314c0-4.586-3.713-8.304-8.293-8.304z" fill="#535461"/>
    <path d="M253.629 214.128h-82.925v158.529h82.925V214.128zM202.366 205.824a.754.754 0 100-1.508.754.754 0 000 1.508zM221.967 204.314H206.89a.754.754 0 000 1.51h15.077a.755.755 0 000-1.51zM211.79 385.491a5.281 5.281 0 005.277-5.285 5.28 5.28 0 00-5.277-5.284 5.28 5.28 0 00-5.277 5.284 5.28 5.28 0 005.277 5.285z" fill="#fff"/>
    <path d="M540.172 404.627c0 .068-.046.151-.068.212a22.145 22.145 0 00-1.184 3.993 23.43 23.43 0 01.633-1.796c.297-.777.504-1.585.619-2.409zM468.48 409.466c-.4.106-.792.642-1.161 1.374l.12-.045c.332-.091.897-.755 1.583-1.736a1.46 1.46 0 01-.542.407z" fill="#DDDBE2"/>
    <path d="M244.1 260.979h-12.894v-5.131c0-.626.585-1.134 1.308-1.134h10.278c.722 0 1.308.508 1.308 1.134v5.131z" fill="#365E7D"/>
    <path d="M237.299 325.467h-52.21c-1.093 0-1.98-.768-1.98-1.716V265.7c0-.948.887-1.717 1.98-1.717h52.21c1.094 0 1.981.769 1.981 1.717v58.051c0 .948-.887 1.716-1.981 1.716z" fill="#FFF6F4"/>
    <path d="M237.299 263.983h-3.339c1.094 0 1.98.769 1.98 1.717v58.051c0 .948-.887 1.716-1.98 1.716h3.339c1.094 0 1.98-.768 1.98-1.716V265.7c0-.948-.886-1.717-1.98-1.717z" fill="#D8E2F1"/>
    <path d="M197.99 284.255c1.754 0 3.175-1.232 3.175-2.751 0-1.52-1.421-2.752-3.175-2.752-1.753 0-3.175 1.232-3.175 2.752 0 1.519 1.422 2.751 3.175 2.751zM211.194 284.255c1.753 0 3.175-1.232 3.175-2.751 0-1.52-1.422-2.752-3.175-2.752-1.754 0-3.175 1.232-3.175 2.752 0 1.519 1.421 2.751 3.175 2.751z" fill="#DD636E"/>
    <path d="M224.398 284.255c1.754 0 3.175-1.232 3.175-2.751 0-1.52-1.421-2.752-3.175-2.752-1.753 0-3.175 1.232-3.175 2.752 0 1.519 1.422 2.751 3.175 2.751zM197.99 302.517c1.754 0 3.175-1.232 3.175-2.751 0-1.52-1.421-2.752-3.175-2.752-1.753 0-3.175 1.232-3.175 2.752 0 1.519 1.422 2.751 3.175 2.751z" fill="#365E7D"/>
    <path d="M211.194 302.517c1.753 0 3.175-1.232 3.175-2.751 0-1.52-1.422-2.752-3.175-2.752-1.754 0-3.175 1.232-3.175 2.752 0 1.519 1.421 2.751 3.175 2.751zM224.398 302.517c1.754 0 3.175-1.232 3.175-2.751 0-1.52-1.421-2.752-3.175-2.752-1.753 0-3.175 1.232-3.175 2.752 0 1.519 1.422 2.751 3.175 2.751z" fill="#DD636E"/>
    <path d="M197.99 320.779c1.754 0 3.175-1.232 3.175-2.751 0-1.52-1.421-2.752-3.175-2.752-1.753 0-3.175 1.232-3.175 2.752 0 1.519 1.422 2.751 3.175 2.751z" fill="#365E7D"/>
    <path d="M211.194 320.779c1.753 0 3.175-1.232 3.175-2.751 0-1.52-1.422-2.752-3.175-2.752-1.754 0-3.175 1.232-3.175 2.752 0 1.519 1.421 2.751 3.175 2.751zM224.398 320.779c1.754 0 3.175-1.232 3.175-2.751 0-1.52-1.421-2.752-3.175-2.752-1.753 0-3.175 1.232-3.175 2.752 0 1.519 1.422 2.751 3.175 2.751z" fill="#DD636E"/>
    <path d="M237.653 279.524c6.694 0 12.121-4.703 12.121-10.506 0-5.802-5.427-10.505-12.121-10.505-6.695 0-12.122 4.703-12.122 10.505 0 5.803 5.427 10.506 12.122 10.506z" fill="#F6E266"/>
    <path d="M237.653 258.513c-.643 0-1.274.044-1.89.127 5.798.787 10.233 5.133 10.233 10.378 0 5.246-4.435 9.592-10.233 10.379.616.083 1.247.127 1.89.127 6.694 0 12.122-4.703 12.122-10.506 0-5.802-5.428-10.505-12.122-10.505z" fill="#ECBE6B"/>
    <path d="M202.397 281.504c0-2.106-1.977-3.82-4.407-3.82-2.43 0-4.407 1.714-4.407 3.82s1.977 3.819 4.407 3.819c2.43 0 4.407-1.713 4.407-3.819zm-6.35 0c0-.929.872-1.684 1.943-1.684 1.071 0 1.943.755 1.943 1.684 0 .928-.872 1.684-1.943 1.684-1.071 0-1.943-.756-1.943-1.684zM215.601 281.504c0-2.106-1.977-3.82-4.407-3.82-2.43 0-4.407 1.714-4.407 3.82s1.977 3.819 4.407 3.819c2.43 0 4.407-1.713 4.407-3.819zm-6.35 0c0-.929.872-1.684 1.943-1.684 1.071 0 1.943.755 1.943 1.684 0 .928-.872 1.684-1.943 1.684-1.071 0-1.943-.756-1.943-1.684zM228.805 281.504c0-2.106-1.977-3.82-4.407-3.82-2.43 0-4.407 1.714-4.407 3.82s1.977 3.819 4.407 3.819c2.43 0 4.407-1.713 4.407-3.819zm-6.35 0c0-.929.872-1.684 1.943-1.684 1.071 0 1.943.755 1.943 1.684 0 .928-.872 1.684-1.943 1.684-1.071 0-1.943-.756-1.943-1.684zM191.806 290.635c0 .589.551 1.067 1.232 1.067h36.312c.681 0 1.232-.478 1.232-1.067 0-.59-.551-1.068-1.232-1.068h-36.312c-.681 0-1.232.478-1.232 1.068zM193.583 299.765c0 2.107 1.977 3.82 4.407 3.82 2.43 0 4.407-1.713 4.407-3.82 0-2.106-1.977-3.819-4.407-3.819-2.43 0-4.407 1.713-4.407 3.819zm6.35 0c0 .929-.872 1.685-1.943 1.685-1.071 0-1.943-.756-1.943-1.685 0-.928.872-1.683 1.943-1.683 1.071 0 1.943.755 1.943 1.683zM206.787 299.765c0 2.107 1.977 3.82 4.407 3.82 2.43 0 4.407-1.713 4.407-3.82 0-2.106-1.977-3.819-4.407-3.819-2.43 0-4.407 1.713-4.407 3.819zm6.35 0c0 .929-.872 1.685-1.943 1.685-1.071 0-1.943-.756-1.943-1.685 0-.928.872-1.683 1.943-1.683 1.071 0 1.943.755 1.943 1.683zM219.991 299.765c0 2.107 1.977 3.82 4.407 3.82 2.43 0 4.407-1.713 4.407-3.82 0-2.106-1.977-3.819-4.407-3.819-2.43 0-4.407 1.713-4.407 3.819zm6.35 0c0 .929-.872 1.685-1.943 1.685-1.071 0-1.943-.756-1.943-1.685 0-.928.872-1.683 1.943-1.683 1.071 0 1.943.755 1.943 1.683zM230.582 308.896c0-.589-.551-1.067-1.232-1.067h-36.312c-.681 0-1.232.478-1.232 1.067 0 .59.551 1.068 1.232 1.068h36.312c.681 0 1.232-.478 1.232-1.068zM197.99 321.847c2.43 0 4.407-1.714 4.407-3.82s-1.977-3.819-4.407-3.819c-2.43 0-4.407 1.713-4.407 3.819s1.977 3.82 4.407 3.82zm0-5.504c1.072 0 1.943.756 1.943 1.684 0 .929-.871 1.684-1.943 1.684-1.071 0-1.943-.755-1.943-1.684 0-.928.872-1.684 1.943-1.684zM206.787 318.027c0 2.106 1.977 3.82 4.407 3.82 2.43 0 4.407-1.714 4.407-3.82s-1.977-3.819-4.407-3.819c-2.43 0-4.407 1.713-4.407 3.819zm6.35 0c0 .929-.872 1.684-1.943 1.684-1.071 0-1.943-.755-1.943-1.684 0-.928.872-1.684 1.943-1.684 1.071 0 1.943.756 1.943 1.684zM219.991 318.027c0 2.106 1.977 3.82 4.407 3.82 2.43 0 4.407-1.714 4.407-3.82s-1.977-3.819-4.407-3.819c-2.43 0-4.407 1.713-4.407 3.819zm6.35 0c0 .929-.872 1.684-1.943 1.684-1.071 0-1.943-.755-1.943-1.684 0-.928.872-1.684 1.943-1.684 1.071 0 1.943.756 1.943 1.684zM237.653 263.474c.68 0 1.232-.477 1.232-1.067v-.62c0-.59-.552-1.068-1.232-1.068-.681 0-1.232.478-1.232 1.068v.62c0 .59.551 1.067 1.232 1.067zM245.281 267.951c-.68 0-1.232.478-1.232 1.068 0 .589.552 1.067 1.232 1.067h.715c.681 0 1.232-.478 1.232-1.067 0-.59-.551-1.068-1.232-1.068h-.715zM236.421 275.63v.62c0 .59.551 1.068 1.232 1.068.68 0 1.232-.478 1.232-1.068v-.62c0-.59-.552-1.068-1.232-1.068-.681 0-1.232.478-1.232 1.068zM229.309 267.951c-.681 0-1.232.478-1.232 1.068 0 .589.551 1.067 1.232 1.067h.715c.68 0 1.232-.478 1.232-1.067 0-.59-.552-1.068-1.232-1.068h-.715zM241.246 269.019c0-.59-.552-1.068-1.232-1.068h-1.13v-2.428c0-.59-.551-1.068-1.231-1.068-.681 0-1.232.478-1.232 1.068v3.496c0 .589.551 1.067 1.232 1.067h2.361c.68 0 1.232-.478 1.232-1.067z" fill="#000"/>
    <path d="M245.332 259.559v-3.71c0-1.214-1.14-2.202-2.541-2.202h-10.277c-1.401 0-2.541.988-2.541 2.202v3.71c-1.463.894-2.71 2.036-3.66 3.356h-41.224c-1.771 0-3.212 1.249-3.212 2.785v58.051c0 1.535 1.441 2.784 3.212 2.784h5.486c.68 0 1.232-.478 1.232-1.068 0-.589-.552-1.067-1.232-1.067h-5.486c-.413 0-.748-.291-.748-.649V265.7c0-.358.335-.649.748-.649h40.018a10.155 10.155 0 00-.808 3.967c0 .783.091 1.547.263 2.287h-31.524c-.681 0-1.232.478-1.232 1.068 0 .589.551 1.067 1.232 1.067h32.276c2.086 4.356 7.089 7.292 12.734 7.147v43.164c0 .358-.336.649-.749.649h-41.798c-.681 0-1.232.478-1.232 1.067 0 .59.551 1.068 1.232 1.068h41.798c1.771 0 3.213-1.249 3.213-2.784v-43.428c2.763-.526 5.291-1.807 7.19-3.687.449-.444.397-1.119-.115-1.507-.512-.388-1.291-.343-1.739.1-2.071 2.051-5.058 3.228-8.195 3.228-6.005 0-10.89-4.234-10.89-9.439 0-5.204 4.885-9.438 10.89-9.438 6.004 0 10.889 4.234 10.889 9.438 0 .978-.173 1.944-.514 2.872-.207.562.151 1.162.799 1.342.647.178 1.341-.131 1.548-.693.419-1.138.631-2.322.631-3.52 0-3.906-2.246-7.363-5.674-9.46zm-12.895-1.195v-2.515c0-.037.035-.067.077-.067h10.277c.042 0 .077.03.077.067v2.515a15.073 15.073 0 00-5.215-.919c-1.85 0-3.613.328-5.216.919z" fill="#000"/>
  </g>
  <defs>
    <linearGradient id="paint0_linear" x1="447.077" y1="348.78" x2="447.077" y2="72.674" gradientUnits="userSpaceOnUse">
      <stop stop-color="gray" stop-opacity=".25"/>
      <stop offset=".54" stop-color="gray" stop-opacity=".12"/>
      <stop offset="1" stop-color="gray" stop-opacity=".1"/>
    </linearGradient>
    <linearGradient id="paint1_linear" x1="90232.7" y1="160371" x2="90232.7" y2="76167.1" gradientUnits="userSpaceOnUse">
      <stop stop-color="gray" stop-opacity=".25"/>
      <stop offset=".54" stop-color="gray" stop-opacity=".12"/>
      <stop offset="1" stop-color="gray" stop-opacity=".1"/>
    </linearGradient>
    <linearGradient id="paint2_linear" x1="36051.8" y1="130756" x2="36051.8" y2="79331.4" gradientUnits="userSpaceOnUse">
      <stop stop-color="gray" stop-opacity=".25"/>
      <stop offset=".54" stop-color="gray" stop-opacity=".12"/>
      <stop offset="1" stop-color="gray" stop-opacity=".1"/>
    </linearGradient>
    <clipPath id="clip0">
      <path fill="#fff" d="M0 0h781v462H0z"/>
    </clipPath>
  </defs>
</svg>
